<?xml version="1.0" encoding="utf-8"?>
<!-- Generator: Adobe Illustrator 27.8.1, SVG Export Plug-In . SVG Version: 6.00 Build 0)  -->
<svg version="1.1" id="Layer_1" xmlns="http://www.w3.org/2000/svg" xmlns:xlink="http://www.w3.org/1999/xlink" x="0px" y="0px"
	 viewBox="0 0 3508.4 862.3" style="enable-background:new 0 0 3508.4 862.3;" xml:space="preserve">
<style type="text/css">
	.st0{fill:#FFFFFF;}
	.st1{fill:#00346A;}
	.st2{fill:#37479D;stroke:#000000;stroke-width:16;stroke-miterlimit:10;}
	.st3{fill:#87C4EB;}
	.st4{fill:none;stroke:#87C4EB;stroke-miterlimit:10;}
	.st5{font-family:'Futura-Bold';}
	.st6{font-size:140px;}
	.st7{fill:#495D8B;}
	.st8{font-family:'Futura-Medium';}
</style>
<path class="st0" d="M3393.6,862.3H114.8C51.7,862.3,0,810.6,0,747.5V152.6C0,89.4,51.7,37.7,114.8,37.7h3278.8
	c63.2,0,114.8,51.7,114.8,114.8v594.9C3508.4,810.6,3456.7,862.3,3393.6,862.3z"/>
<g>
	<path class="st1" d="M631.4,503.4c6.3,12.7,2.8,27.4-0.3,40.2l-0.6,2.7c-1.1,4.5-2.6,7.6-5,9.9c-1.3,1.3-2.9,2.3-4.7,2.9
		c-0.3-0.5-0.6-0.9-1-1.3c-0.4-0.4-0.9-0.6-1.4-0.5l-0.1-0.6c2-0.5,3.8-1.4,5.2-2.7c1.9-1.8,3.2-4.5,4.1-8.4l0.6-2.7
		c3-12.4,6.3-26.4,0.5-38.2c-1.6-3.3-3.7-6.4-5.7-9.4c-1.4-2.1-2.9-4.3-4.2-6.6c-2.5-4.3-4.1-8.3-4.7-12c-0.1-0.9-0.2-1.8-0.3-2.6
		c-0.2-2.1-0.4-3.5-1.4-5.2l0.4-0.2c0.1,0.2,0.3,0.3,0.5,0.4c0.2,0.1,0.4,0.1,0.6,0.1c0.6,0,1.1-0.3,1.4-0.9c0-0.1,0.1-0.1,0.1-0.2
		c1,1.9,1.2,3.7,1.4,5.6c0.1,0.8,0.2,1.6,0.3,2.4c0.6,3.4,2,6.9,4.3,11c1.3,2.2,2.7,4.3,4.1,6.4C627.5,496.8,629.7,500,631.4,503.4z
		"/>
	<path class="st1" d="M623.2,567c0.3,9-2.7,18.2-8.2,25.4c-0.5,0.6-1,1.3-1.7,2c-0.4-0.7-1.3-0.9-2-0.6l-1.7-0.2c1.3-1,2.4-2.2,3-3
		c5-6.6,7.8-15.2,7.6-23.5c-0.1-2.8-1-5.4-2.5-7.1c1.1-0.2,2.1-0.5,3.1-0.8C622.2,561.3,623.1,564,623.2,567z"/>
	<path class="st1" d="M622.2,435.6c0.8,10.1-1.5,21.1-6.9,32.7c-0.3-0.7-0.8-1.4-1.4-2.2c-0.2-0.2-0.4-0.5-0.6-0.7
		c4.6-10.5,6.6-20.4,5.9-29.6c-1-12-7.4-23.1-16.5-28.8c0.4-1,0.7-1.9,1-2.9C613.9,410.2,621.1,422.4,622.2,435.6z"/>
	<path class="st1" d="M619.8,557.9c0.4,0.4,0.7,0.8,1,1.3c-1,0.4-2,0.7-3.1,0.8c0,0,0,0,0,0c0,0,0-0.1-0.1-0.1
		c-0.6-0.6-0.5-1.6,0.1-2.1c0.2-0.2,0.5-0.3,0.7-0.4C618.9,557.3,619.4,557.5,619.8,557.9z"/>
	<path class="st1" d="M618.3,556.8l0.1,0.6c-0.3,0-0.5,0.2-0.7,0.4c-0.6,0.6-0.7,1.5-0.1,2.1c0,0,0.1,0,0.1,0.1
		c-0.2,0-0.4,0.1-0.6,0.1c-3.1,0.4-6.2-0.2-8.7-1.6c-4.3-2.4-6-6.4-7.7-10.2c-1.3-3.1-2.6-6.1-5.2-8c-4.4-3.3-10.6-2.6-13.1-2.1
		c-7.1,1.4-13.8,5.1-18.6,10.5c-5,5.5-8,12.5-11,19.2c-1.7,3.9-3.4,7.8-5.5,11.6c-4.9,8.7-12.2,16.3-20,23.2c-0.5-0.9-1.2-1.7-2-2.3
		c7.6-6.7,14.7-14.1,19.4-22.4c2-3.6,3.7-7.5,5.4-11.3c3-6.9,6.2-14.1,11.5-20c5.3-5.9,12.5-10,20.3-11.5c2.9-0.6,10.2-1.4,15.6,2.6
		c3.2,2.4,4.7,5.9,6.1,9.2c1.6,3.6,3,6.9,6.4,8.8c2,1.1,4.4,1.5,6.9,1.2C617.2,557,617.8,556.9,618.3,556.8z"/>
	<path class="st1" d="M615.7,603.5c0.3,4.9-0.7,9.9-3,15.9c-4.3,10.5-9.2,18.6-15.2,24.8c-1.8,1.8-4,3.9-6.9,4.8
		c-0.4,0.1-0.8,0.2-1.2,0.3c-0.1-0.4-0.2-0.7-0.4-1.1c-0.2-0.6-0.8-1-1.4-1l-0.1-0.7c0.7-0.1,1.4-0.2,2.1-0.4
		c2.2-0.8,4.1-2.5,5.7-4.1c5.7-5.9,10.4-13.6,14.5-23.8c2.1-5.6,3-10.2,2.8-14.7c-0.2-2.7-0.8-5.3-1.8-7.4c0.9-0.6,1.7-1.3,2.4-2
		c0,0,0,0,0,0.1C614.7,597,615.5,600.1,615.7,603.5z"/>
	<path class="st1" d="M615.3,468.3c0,0.1-0.1,0.1-0.1,0.2c-0.2,0.6-0.8,0.9-1.4,0.9c-0.2,0-0.4-0.1-0.6-0.1
		c-0.2-0.1-0.4-0.2-0.5-0.4c-0.4-0.4-0.5-1.1-0.2-1.6c0.3-0.6,0.6-1.2,0.8-1.8c0.2,0.2,0.4,0.5,0.6,0.7
		C614.5,466.8,615,467.6,615.3,468.3z"/>
	<path class="st1" d="M613.3,465.4c-0.3,0.6-0.5,1.2-0.8,1.8c-0.2,0.6-0.1,1.2,0.2,1.6l-0.4,0.2c-0.2-0.4-0.5-0.7-0.8-1.1
		c-4.2-5.2-11.4-6.7-18.9-3.9c-1.7,0.6-3.4,1.4-5.1,2.5c-0.2-1.1-0.4-2.1-0.6-3.1c1.6-0.9,3.1-1.6,4.6-2.2
		C600.1,458.1,608.3,459.7,613.3,465.4z"/>
	<path class="st1" d="M611.3,593.7c0.7-0.4,1.6-0.1,2,0.6c-0.7,0.7-1.5,1.4-2.4,2c-0.1-0.2-0.2-0.3-0.2-0.5
		C610.3,595,610.5,594.1,611.3,593.7z"/>
	<path class="st1" d="M609.6,593.5l1.7,0.2c-0.7,0.4-1,1.3-0.6,2c0.1,0.2,0.2,0.3,0.2,0.5c-1.8,1.2-4,1.9-6.4,1.3
		c-1.8-0.4-3.4-1.6-5-3.6c-1.8-2.2-3.1-4.8-4.3-7.3c-1.9-3.8-3.8-7.4-7.1-9.4c-4.9-2.9-11.3-0.9-15.2,2.1c-5.2,4.1-9.4,10.1-13.4,16
		c-1,1.5-2,2.9-3,4.3c-5.4,7.5-10.2,15.6-14.3,23.9c-5,10.3-10.5,22.2-11.8,33.2c0,0.1,0,0.2-0.1,0.3c-0.8-0.8-1.7-1.6-2.7-2.2
		c1.7-11,7-22.5,11.9-32.6c4.2-8.5,9-16.7,14.5-24.4c1-1.4,2-2.8,3-4.2c4.1-6,8.4-12.2,14-16.6c4.8-3.8,12.4-6,18.5-2.4
		c4.1,2.4,6.2,6.6,8.2,10.6c1.2,2.3,2.4,4.8,4,6.8c1.2,1.4,2.3,2.3,3.4,2.5C606.8,595.1,608.3,594.4,609.6,593.5z"/>
	<path class="st1" d="M604.5,391.4c0.3,3.4,0.4,8.2-0.8,12.7c-0.4-0.2-0.8-0.4-1.2-0.7c-0.7-0.4-1.5-0.2-1.9,0.4
		c1.3-4.3,1.2-8.9,0.9-12.2c-1-10-3.9-18.6-8.5-25.4c-3-4.5-6.7-8-10.8-10.4c0.2-0.2,0.4-0.3,0.5-0.5c0.5-0.6,1.1-1.1,1.5-1.7
		c4.3,2.6,8.1,6.3,11.2,11C600.4,371.9,603.5,380.9,604.5,391.4z"/>
	<path class="st1" d="M602.5,403.5c0.4,0.2,0.8,0.4,1.2,0.7c-0.3,1-0.6,2-1,2.9c-0.5-0.3-1-0.6-1.6-0.9c-0.5-0.3-0.8-0.8-0.8-1.3
		c0.1-0.3,0.2-0.6,0.3-1C601.1,403.3,601.9,403.1,602.5,403.5z"/>
	<path class="st1" d="M601.1,406.1c0.5,0.3,1.1,0.6,1.6,0.9c-1.2,2.9-3.2,5.6-6.2,7.5c-5.3,3.3-11.7,2.9-17.9,2.5
		c-4.1-0.3-8.3-0.6-12.3,0.2c-4.7,0.9-9.2,3.5-12.8,7.3l-0.6-0.5c0.4-0.3,0.6-0.9,0.5-1.4c-0.1-0.6-0.5-1-1-1.2
		c3.9-3.6,8.5-6.2,13.3-7.1c4.3-0.9,8.8-0.5,13-0.2c6,0.4,11.6,0.8,16.1-2c2.7-1.7,4.4-4.3,5.4-7.1
		C600.3,405.4,600.6,405.9,601.1,406.1z"/>
	<path class="st1" d="M600.5,404.1c0-0.1,0.1-0.1,0.1-0.2c-0.1,0.3-0.2,0.6-0.3,1C600.3,404.6,600.4,404.3,600.5,404.1z"/>
	<path class="st1" d="M589.5,649.3c4.1,11.7,0.4,25.8-11,41.9c-6.5,9.2-14.7,17.2-22.6,24.9c-5.5,5.3-11,10.4-17.2,13.5
		c0-0.1,0-0.2,0.1-0.3c0.1-0.8-0.4-1.6-1.2-1.7c-0.4-0.1-0.7,0-1,0.2l-0.2-0.3c6.3-2.9,11.9-8,17.5-13.5
		c7.8-7.6,15.9-15.4,22.2-24.4c11-15.6,14.5-29,10.3-39.9C587.4,649.7,588.5,649.6,589.5,649.3z"/>
	<path class="st1" d="M589.1,648.3c0.1,0.4,0.3,0.7,0.4,1.1c-1,0.2-2,0.3-3.1,0.3c0-0.1-0.1-0.2-0.1-0.3c-0.3-0.8,0.1-1.6,0.8-1.9
		c0.2-0.1,0.4-0.1,0.6-0.1C588.3,647.3,588.9,647.7,589.1,648.3z"/>
	<path class="st1" d="M588.8,477.3c0.8,9,2,21.3-3.9,27.8c-3.9,4.4-10.1,6.2-16,7.9c-3.5,1-6.9,2-9.7,3.5c-5,2.6-9.2,6-12.5,10.1
		l-2.4-0.1c0.3-0.5,0.3-1.2,0-1.7c3.6-4.4,8.1-8.1,13.6-11c3-1.6,6.7-2.7,10.2-3.7c5.5-1.6,11.3-3.3,14.6-7
		c4.9-5.5,3.8-17.5,3.1-25.5c-0.1-1.1-0.2-2.1-0.3-3c-0.2-3.1-0.6-6-1.1-8.8l0.7-0.1c0,0.2,0.1,0.4,0.2,0.6c0.4,0.7,1.3,0.9,2.1,0.5
		c0.1-0.1,0.2-0.1,0.2-0.1c0.4,2.5,0.7,5.1,1,7.8C588.6,475.2,588.7,476.2,588.8,477.3z"/>
	<path class="st1" d="M588.7,342.1c0.2,3.7-1.3,7.8-4.4,11.6c-0.4-0.2-0.8-0.4-1.1-0.7c-0.6-0.3-1.3-0.2-1.8,0.3l-0.4-0.4
		c3.2-3.4,4.9-7.3,4.7-10.6c-0.3-3.9-2.3-7.6-4-10.1l0.5-0.2c0.2,0.4,0.5,0.6,0.9,0.8c0.1,0,0.3,0.1,0.4,0.1c0.6,0,1.2-0.4,1.4-1
		C586.6,334.5,588.4,338.1,588.7,342.1z"/>
	<path class="st1" d="M587.6,646.6l0.1,0.7c-0.2,0-0.4,0-0.6,0.1c-0.8,0.3-1.1,1.2-0.8,1.9c0,0.1,0.1,0.2,0.1,0.3
		c-2.9,0-5.8-0.8-8.2-1.5c-2.9-0.8-6-1.7-8.6-3.2c0.1-0.1,0.2-0.2,0.4-0.4c0.6-0.6,0.6-1.5,0-2.1c-0.1-0.1-0.2-0.1-0.2-0.2l0.4-0.5
		c2.6,1.7,5.9,2.6,8.9,3.5C582.1,646.2,585,646.9,587.6,646.6z"/>
	<path class="st1" d="M587.6,466.5c-0.1,0-0.2,0.1-0.2,0.1c-0.7,0.4-1.6,0.2-2.1-0.5c-0.1-0.2-0.2-0.4-0.2-0.6
		c-0.1-0.6,0.2-1.2,0.7-1.5c0.4-0.2,0.8-0.5,1.2-0.7C587.2,464.4,587.4,465.5,587.6,466.5z"/>
	<path class="st1" d="M587,463.4c-0.4,0.2-0.8,0.5-1.2,0.7c-0.5,0.3-0.8,0.9-0.7,1.5l-0.7,0.1c-0.9-4.9-2.2-9.2-4-13
		c1-0.3,1.9-0.8,2.6-1.5C584.7,454.9,586.1,458.9,587,463.4z"/>
	<path class="st1" d="M581.2,303c5.1,8.4,6.5,19.1,3.8,28.6c0,0,0,0,0,0.1c-0.4-0.6-0.8-1.2-1.1-1.7c-0.4-0.6-0.8-1.1-1.1-1.6
		c1.6-8,0.2-16.7-4.1-23.8c-1.2-1.9-2.5-3.8-3.9-5.6c-1.1-1.5-2.2-3-3.3-4.5c-4.4-6.7-5.4-14.7-6.3-22.4c-0.8-6.6-1.6-13.5-4.6-19.4
		c-5.5-10.6-15.5-19.4-25.8-22.5c0.3-0.9,0.6-1.9,0.8-2.9c11,3.3,21.8,12.7,27.6,24c3.3,6.4,4.1,13.5,5,20.4
		c0.9,7.7,1.8,15,5.8,21.1c1,1.5,2.1,3,3.1,4.4C578.5,299.1,580,301,581.2,303z"/>
	<path class="st1" d="M583.9,330c0.3,0.5,0.7,1.1,1.1,1.7c-0.2,0.6-0.8,1-1.4,1c-0.1,0-0.3,0-0.4-0.1c-0.4-0.1-0.7-0.4-0.9-0.8
		c-0.2-0.3-0.2-0.7-0.1-1.1c0.2-0.8,0.4-1.6,0.6-2.5C583.1,328.9,583.5,329.4,583.9,330z"/>
	<path class="st1" d="M583.1,353c0.4,0.2,0.8,0.4,1.1,0.7c-0.5,0.6-1,1.2-1.5,1.7c-0.2,0.2-0.4,0.4-0.5,0.5
		c-0.2-0.1-0.3-0.2-0.5-0.3c-0.7-0.4-1-1.3-0.6-2c0.1-0.1,0.2-0.2,0.2-0.3C581.8,352.8,582.5,352.7,583.1,353z"/>
	<path class="st1" d="M577.5,435.9c4.8,0,8.7,3.9,8.7,8.7c0,2.7-1.2,5.1-3.1,6.7c-1.3-2.7-2.8-5.2-4.5-7.6c-0.5-0.7-1.4-0.8-2.1-0.3
		c-0.7,0.5-0.8,1.4-0.3,2.1c1.6,2.2,3.1,4.6,4.3,7.3c-0.9,0.3-1.9,0.5-2.9,0.5c-4.8,0-8.7-3.9-8.7-8.7S572.7,435.9,577.5,435.9z"/>
	<path class="st1" d="M582.7,328.4c-0.2,0.8-0.4,1.7-0.6,2.5c-0.1,0.4-0.1,0.8,0.1,1.1l-0.5,0.2c-0.1-0.2-0.2-0.3-0.3-0.5
		c-4.2-6.3-8.8-10.1-13.7-11.3c-1.5-0.4-3-0.5-4.7-0.7c-3.5-0.4-7.2-0.8-10.1-3.3c-3.4-3-4.1-7.5-4.7-11.5c-0.2-1.5-0.5-2.9-0.8-4.1
		c-0.9-3.2-1.9-6.3-3.3-9.3c1-0.3,1.9-0.8,2.7-1.4c1.4,3.2,2.6,6.5,3.5,9.9c0.4,1.4,0.6,2.9,0.9,4.4c0.6,3.7,1.2,7.5,3.8,9.7
		c2.2,1.9,5.2,2.2,8.4,2.6c1.7,0.2,3.4,0.4,5.1,0.8C573.6,318.7,578.4,322.4,582.7,328.4z"/>
	<path class="st1" d="M581.7,355.7c0.2,0.1,0.3,0.2,0.5,0.3c-3.2,3.1-7.1,5.3-10.6,6c-0.5-1-1.2-1.9-1.9-2.8
		c3.4-0.2,7.6-2.5,10.9-5.8c0.1-0.1,0.2-0.3,0.4-0.4l0.4,0.4c-0.1,0.1-0.2,0.2-0.2,0.3C580.7,354.3,581,355.3,581.7,355.7z"/>
	<path class="st1" d="M574.4,607.8c4.8,0,8.7,3.9,8.7,8.7c0,4.8-3.9,8.7-8.7,8.7c-1.7,0-3.3-0.5-4.6-1.3c1.4-1.9,3.2-3.9,5.3-6.1
		c0.6-0.6,0.6-1.5,0-2.1c-0.6-0.6-1.5-0.6-2.1,0c-2.1,2.1-3.9,4.2-5.4,6.2c-1.2-1.5-1.8-3.3-1.8-5.4
		C565.7,611.7,569.6,607.8,574.4,607.8z"/>
	<path class="st1" d="M583,451.2c-0.8,0.6-1.6,1.1-2.6,1.5c-1.2-2.6-2.6-5.1-4.3-7.3c-0.5-0.7-0.4-1.6,0.3-2.1
		c0.7-0.5,1.6-0.4,2.1,0.3C580.3,446,581.8,448.5,583,451.2z"/>
	<path class="st1" d="M575,615.6c0.6,0.6,0.6,1.5,0,2.1c-2.1,2.1-3.9,4.2-5.3,6.1c-0.9-0.5-1.6-1.2-2.2-2c1.5-2,3.2-4.1,5.4-6.2
		C573.5,615,574.4,615,575,615.6z"/>
	<path class="st1" d="M571.6,361.9c2,3.5,2.7,7.4,1.9,11.3c-1.2,6.3-5.8,12.1-13.2,16.6c-0.3-1-0.7-1.9-1.3-2.7
		c6.4-4,10.5-9.1,11.5-14.5c0.7-3.9-0.2-7.7-2.7-11l0.5-0.4c0.2,0.5,0.8,0.9,1.4,0.9c0,0,0.1,0,0.1,0
		C570.4,362.1,571,362,571.6,361.9z"/>
	<path class="st1" d="M571.6,361.9c-0.6,0.1-1.2,0.2-1.8,0.2c0,0-0.1,0-0.1,0c-0.6,0-1.1-0.3-1.4-0.9c-0.1-0.2-0.1-0.4-0.1-0.5
		c0-0.8,0.6-1.5,1.4-1.6c0,0,0,0,0,0C570.4,360,571,361,571.6,361.9z"/>
	<path class="st1" d="M569.9,642.5c0.6,0.6,0.5,1.5,0,2.1c-0.1,0.1-0.2,0.2-0.4,0.4c-0.9-0.5-1.7-1.1-2.5-1.7
		c0.3-0.3,0.5-0.5,0.8-0.8c0.5-0.5,1.3-0.6,1.9-0.2C569.8,642.4,569.9,642.4,569.9,642.5z"/>
	<path class="st1" d="M570.1,641.8l-0.4,0.5c-0.6-0.4-1.4-0.3-1.9,0.2c-0.3,0.2-0.5,0.5-0.8,0.8c-0.9-0.7-1.7-1.6-2.3-2.6
		c-3.5-5.2-2.6-11.5,2.9-18.9c0.6,0.8,1.4,1.5,2.2,2c-4.5,6.2-5.4,11.2-2.6,15.2C567.9,640.1,568.9,641,570.1,641.8z"/>
	<path class="st1" d="M569.7,359.1C569.7,359.2,569.6,359.2,569.7,359.1c-0.9,0.1-1.5,0.8-1.5,1.6c0,0.2,0.1,0.4,0.1,0.5l-0.5,0.4
		c-0.6-0.9-1.4-1.7-2.2-2.5c-4.1-4.1-9-8.4-15.1-13c-6.5-5-13.5-8-21.3-9.4c-2.9-0.6-6-0.9-9.1-1v-0.6c0.5,0,1-0.2,1.2-0.7
		c0.4-0.5,0.7-1.1,1-1.7c2.5,0.1,5,0.4,7.5,1c8.2,1.4,15.6,4.7,22.5,9.9c6.2,4.7,11.2,9,15.4,13.2
		C568.4,357.7,569.1,358.4,569.7,359.1z"/>
	<path class="st1" d="M567,643.2c0.8,0.7,1.6,1.2,2.5,1.7c-6,5.8-12.3,12.4-13.1,18.8c0.6,6,1,12.9-1.4,19.9l0,0.1
		c-2.2,4.9-5.6,9.3-9.4,13.3c-0.5-0.9-1.2-1.7-1.9-2.3c3.5-3.8,6.5-7.7,8.6-12.2c2-5.7,1.9-11.6,1.2-18.7l0-0.2l0-0.2
		C554.2,656.3,560.5,649.5,567,643.2z"/>
	<path class="st1" d="M560.3,389.9c0.2,0.7,0.3,1.4,0.3,2.2c0,4.8-3.9,8.7-8.7,8.7c-4.8,0-8.7-3.9-8.7-8.7c0-4.8,3.9-8.7,8.7-8.7
		c3,0,5.6,1.5,7.1,3.7c-2.2,1.4-4.6,2.6-7.3,3.7c-0.8,0.3-1.1,1.2-0.8,2c0.3,0.8,1.2,1.1,2,0.8C555.6,392.6,558.1,391.3,560.3,389.9
		z"/>
	<path class="st1" d="M559.1,387.2c0.6,0.8,1,1.7,1.3,2.7c-2.2,1.4-4.8,2.7-7.5,3.8c-0.8,0.3-1.6-0.1-2-0.8c-0.3-0.8,0-1.6,0.8-2
		C554.4,389.8,556.9,388.5,559.1,387.2z"/>
	<path class="st1" d="M552.9,423.9l0.6,0.5c-2.2,2.2-4.1,4.9-5.5,7.8c-3.5,7.2-4.9,16-4,26.7c0.2,2.1,0.6,4.4,1.1,6.9
		c1.2,6.5,2.6,13.9-0.8,19.6c-2,3.4-5.7,5.9-11.2,7.7c-7.4,2.3-14.7,5.2-21.8,7.9c-2.1,0.8-4.2,1.6-6.3,2.4
		c-11.8,4.5-29.4,10.1-44.8,5.8c-13.1-3.6-31-2.2-39.6,9.7c-4.3,5.9-1.6,12.4,1.2,19.4c1.2,3.1,2.5,6.2,3.1,9.3
		c1.9,9.6-0.8,16.7-7.2,19.5c-2.9,1.3-6,1.8-9.2,1.8c-7.6,0-15.5-2.7-20.9-4.6c-9.2-3.1-17.8-7.8-25.3-13.8c0.7-0.7,1.3-1.5,1.8-2.4
		c7.3,5.8,15.7,10.4,24.5,13.4c7.3,2.5,19.5,6.6,28,2.9c6.9-3,6.4-11.5,5.4-16.2c-0.5-2.8-1.7-5.7-3-8.8c-2.9-7-6.1-15-0.9-22.2
		c9.4-13,28.9-14.8,42.9-10.8c14.6,4.1,31.5-1.3,42.9-5.7c2.1-0.8,4.2-1.6,6.3-2.4c7.1-2.8,14.5-5.7,22-8c4.8-1.5,7.9-3.6,9.5-6.3
		c2.8-4.7,1.6-11.2,0.4-17.6c-0.5-2.5-0.9-5-1.1-7.2c-0.9-11.3,0.6-20.6,4.3-28.3c1.1-2.3,2.5-4.4,4-6.3c1.1-0.1,2.1-0.3,2.9-0.4
		C552.5,424.2,552.7,424.1,552.9,423.9z"/>
	<path class="st1" d="M553.4,422.5c0.1,0.5-0.1,1.1-0.5,1.4c-0.2,0.2-0.4,0.3-0.7,0.3c-0.8,0.1-1.8,0.3-2.9,0.4c1-1.2,2-2.3,3.1-3.3
		C552.9,421.5,553.3,421.9,553.4,422.5z"/>
	<path class="st1" d="M551.7,421.3c0.2,0,0.5,0,0.7,0c-1.1,1-2.1,2.1-3.1,3.3c-2,0.2-4.4,0.4-7,0.4c-9.8,0-22.9-2.6-28.2-15.5
		c-3.5-8.5-0.9-14.6,1.9-21.1c0.7-1.7,1.5-3.4,2.2-5.3c1.1-2.9,1.6-6,1.6-9.1c1,0,2.1-0.3,3-0.7c0.1,3.7-0.5,7.3-1.8,10.8
		c-0.7,1.9-1.5,3.7-2.2,5.5c-2.8,6.4-4.9,11.4-1.9,18.8C523.6,424.8,545.2,422.4,551.7,421.3z"/>
	<path class="st1" d="M541.4,274.5c4.8,0,8.7,3.9,8.7,8.7c0,2.8-1.3,5.2-3.3,6.8c-1.2-2.6-2.5-5.2-4.1-7.6c-0.4-0.7-1.4-0.9-2.1-0.5
		c-0.7,0.4-0.9,1.4-0.5,2.1c1.5,2.4,2.8,4.9,4,7.4c-0.8,0.3-1.8,0.4-2.7,0.4c-4.8,0-8.7-3.9-8.7-8.7
		C532.8,278.4,536.6,274.5,541.4,274.5z"/>
	<path class="st1" d="M544.3,526.4l2.4,0.1c-1.5,1.8-2.8,3.8-4,6c-2.2,4.1-4.2,9.1-6.2,14.5c-4,10.4-8.5,22.2-16.9,31.2l-0.2,0.2
		c-3.2,2.1-7,3-11.2,3c-12.1,0-27.1-7.3-37.1-13c0-1.2,0-2.4-0.1-3.5c0.1,0,0.1,0,0.2,0.1c10,5.9,34.6,18.7,46.4,11
		c8-8.6,12.3-20,16.2-30.1c2.1-5.4,4-10.6,6.3-14.9c0.8-1.4,1.6-2.7,2.5-4C543.2,527.2,543.9,527,544.3,526.4z"/>
	<path class="st1" d="M545.5,697.1c0.8,1.3,1.2,2.8,1.2,4.3c0,4.8-3.9,8.7-8.7,8.7c-4.8,0-8.7-3.9-8.7-8.7c0-4.8,3.9-8.7,8.7-8.7
		c2.1,0,4.1,0.8,5.6,2c-2.1,2.2-4.3,4.4-6.6,6.6c-0.6,0.6-0.6,1.5-0.1,2.1c0.3,0.3,0.7,0.5,1.1,0.5c0.4,0,0.7-0.1,1-0.4
		C541.3,701.4,543.5,699.3,545.5,697.1z"/>
	<path class="st1" d="M543.6,694.8c0.8,0.7,1.4,1.4,1.9,2.3c-2.1,2.2-4.3,4.4-6.5,6.4c-0.3,0.3-0.7,0.4-1,0.4
		c-0.4,0-0.8-0.2-1.1-0.5c-0.6-0.6-0.5-1.5,0.1-2.1C539.3,699.2,541.5,697,543.6,694.8z"/>
	<path class="st1" d="M546.7,290c-0.8,0.6-1.7,1.1-2.7,1.4c-1.1-2.6-2.5-5.1-4-7.4c-0.4-0.7-0.2-1.6,0.5-2.1
		c0.7-0.4,1.6-0.2,2.1,0.5C544.2,284.8,545.6,287.4,546.7,290z"/>
	<path class="st1" d="M544.3,524.7c0.3,0.5,0.3,1.1,0,1.7c-0.4,0.6-1.1,0.8-1.7,0.6C543.1,526.2,543.6,525.5,544.3,524.7z"/>
	<path class="st1" d="M543.8,524.3c0.2,0.1,0.3,0.2,0.4,0.4c-0.6,0.7-1.2,1.5-1.7,2.3c-0.1,0-0.2-0.1-0.3-0.2
		c-5.2-3.4-13.3-5.1-18.4-4.9c-3.8,0.1-7.8,1.9-11.3,4.3c-0.5-0.9-1.2-1.6-2-2.3c3.9-2.8,8.5-4.9,13.2-5
		C529.4,518.7,538.1,520.5,543.8,524.3z"/>
	<path class="st1" d="M537.6,727.6c0.8,0.1,1.4,0.9,1.2,1.7c0,0.1,0,0.2-0.1,0.3c-1.1,0.5-2.2,1-3.4,1.5c0.2-0.7,0.3-1.5,0.5-2.3
		c0.1-0.5,0.4-0.8,0.7-1.1C536.9,727.6,537.2,727.5,537.6,727.6z"/>
	<path class="st1" d="M536.4,727.4l0.2,0.3c-0.4,0.2-0.7,0.6-0.7,1.1c-0.1,0.8-0.3,1.5-0.5,2.3c-1.1,0.4-2.2,0.8-3.3,1
		c-2.3,0.6-4.6,0.8-6.9,0.8c-6.9,0-13.7-2.4-18.5-6.8c-5.7-5.2-8.7-12.7-8.1-20c1.1-0.7,2.2-1.4,3.3-2.1c-1.4,7.2,1.2,14.8,6.9,19.9
		c5.7,5.2,14.7,7.3,22.7,5.3C533.1,728.8,534.8,728.2,536.4,727.4z"/>
	<path class="st1" d="M514,177.2c10.8,15.1,24.6,34.5,21.6,50.1c-0.1,0-0.3-0.1-0.4-0.1c-0.8-0.2-1.6,0.2-1.9,1
		c-0.2,0.8,0.2,1.6,1,1.8c0.2,0,0.3,0.1,0.5,0.1c-1.3,3.8-3.7,7.3-7.6,10.5c-0.4-1-0.8-2-1.2-2.9c16.9-14.8-0.5-39.2-14.5-58.8
		c-4.8-6.7-8.9-12.5-11.1-17.2c-1.9-4.1-3.3-8.4-4.6-12.6c-1.6-4.9-3.2-10-5.6-14.6c-7-13-20.7-21.1-35.1-20.9c-0.5-1-1.1-2-1.8-2.9
		c0,0,0,0,0.1,0c16.1-0.8,31.6,8,39.5,22.4c2.6,4.8,4.3,10.1,5.9,15.1c1.3,4.1,2.6,8.3,4.5,12.2C505.2,164.9,509.3,170.6,514,177.2z
		"/>
	<path class="st1" d="M535.2,227.2c0.1,0,0.3,0.1,0.4,0.1c-0.2,1-0.4,1.9-0.8,2.9c-0.2,0-0.3-0.1-0.5-0.1c-0.8-0.2-1.3-1.1-1-1.8
		C533.5,227.4,534.4,227,535.2,227.2z"/>
	<path class="st1" d="M535.4,731.1c1.2-0.4,2.3-0.9,3.4-1.5c-3,17.9-20,28.6-37.9,37.6c-8,4-17,8.2-26.7,11.2
		c0.1-0.2,0.2-0.4,0.3-0.6c0.4-0.7,0.1-1.6-0.6-2c-0.2-0.1-0.4-0.2-0.6-0.2c9.3-2.9,18-6.9,26.3-11.1
		C516,756.3,531.7,746.5,535.4,731.1z"/>
	<path class="st1" d="M531.5,658.5c2.9,3.9,3.4,8.7,1.5,14.5c-3.5,10.6-10.9,19.5-20.1,24.6c-3.9,2.2-7.6,4.3-11.1,6.4c0,0,0,0,0,0
		c0.2-0.8-0.4-1.6-1.2-1.8c-0.4-0.1-0.7,0-1,0.2l-0.2-0.4c3.8-2.3,7.8-4.7,12.1-7c8.6-4.7,15.4-13.1,18.7-23
		c1.6-4.8,1.2-8.7-1.1-11.7c-0.5-0.7-1.2-1.4-1.9-2l0.8-0.4c0.2,0.2,0.5,0.3,0.7,0.3c0.1,0,0.1,0,0.2,0c0.6,0,1.2-0.4,1.4-1
		C530.8,657.6,531.1,658,531.5,658.5z"/>
	<path class="st1" d="M530.3,657.2c-0.2,0.6-0.8,1-1.4,1c-0.1,0-0.1,0-0.2,0c-0.3,0-0.5-0.1-0.7-0.3c-0.4-0.3-0.6-0.8-0.6-1.4
		c0.1-0.5,0.1-1,0.2-1.6C528.6,655.6,529.5,656.3,530.3,657.2z"/>
	<path class="st1" d="M527.2,240.7c2.9,7.9,4.4,16.5,0.8,23c-6,10.8-22.1,11-30.8,11.1c-8,0.1-15.6,4.3-21.6,11.8
		c-6.1,7.7-9.6,17.7-9.7,27.2c-0.1,0-0.2,0-0.4,0c-0.9,0-1.8,0.1-2.6,0.4c0-10.3,3.8-21.2,10.4-29.5c6.6-8.2,15-12.8,23.9-13
		c12-0.2,23.7-1.4,28.2-9.6c3.2-5.9,1.5-14.2-1.4-21.7l0.2-0.1c0,0.2,0.1,0.3,0.2,0.4c0.3,0.4,0.8,0.6,1.2,0.6
		c0.3,0,0.6-0.1,0.9-0.3C526.7,241.1,527,240.9,527.2,240.7z"/>
	<path class="st1" d="M528,657.9l-0.8,0.4c-5.6-4.7-16.3-6.1-25.3-5.8c0.2-1,0.3-2,0.4-3c5.4-0.1,17.7,0.2,25.3,5.4
		c-0.1,0.5-0.2,1-0.2,1.6C527.4,657,527.6,657.5,528,657.9z"/>
	<path class="st1" d="M527.1,602.6c0.8,1.3,1.2,2.8,1.2,4.4c0,4.8-3.9,8.7-8.7,8.7c-4.8,0-8.7-3.9-8.7-8.7c0-4.8,3.9-8.7,8.7-8.7
		c2.1,0,4,0.7,5.5,2c-2.1,1.9-4.3,3.7-6.5,5.5c-0.6,0.5-0.7,1.5-0.2,2.1c0.3,0.4,0.7,0.5,1.2,0.5c0.3,0,0.7-0.1,1-0.3
		C522.8,606.3,525,604.5,527.1,602.6z"/>
	<path class="st1" d="M527.2,240.7c-0.2,0.2-0.5,0.4-0.7,0.6c-0.3,0.2-0.6,0.3-0.9,0.3c-0.4,0-0.9-0.2-1.2-0.6
		c-0.1-0.1-0.2-0.3-0.2-0.4c-0.2-0.6,0-1.3,0.5-1.7c0.5-0.4,0.9-0.7,1.4-1.1C526.4,238.7,526.8,239.7,527.2,240.7z"/>
	<path class="st1" d="M525.2,600.3c0.8,0.6,1.5,1.4,2,2.3c-2.1,1.9-4.3,3.8-6.5,5.6c-0.3,0.2-0.6,0.3-1,0.3c-0.4,0-0.9-0.2-1.2-0.5
		c-0.5-0.6-0.4-1.6,0.2-2.1C520.9,604,523.1,602.2,525.2,600.3z"/>
	<path class="st1" d="M519.3,356.8c4.8,0,8.7,3.9,8.7,8.7c0,3.6-2.2,6.7-5.3,8c-0.1-2.9-0.5-5.7-1.5-8.5c-0.3-0.8-1.1-1.2-1.9-0.9
		c-0.8,0.3-1.2,1.1-0.9,1.9c0.9,2.6,1.3,5.4,1.3,8.2c-0.1,0-0.2,0-0.4,0c-4.8,0-8.7-3.9-8.7-8.7S514.6,356.8,519.3,356.8z"/>
	<path class="st1" d="M526,237.8c-0.4,0.4-0.9,0.8-1.4,1.1c-0.5,0.4-0.7,1.1-0.5,1.7l-0.2,0.1c-2.8-7.1-6.7-13.4-8.6-16.3
		c-2.2-3.3-4.5-6.7-6.7-9.9c-5.2-7.6-10.6-15.4-15-23.7c-1.7-3.1-3.1-6.4-4.4-9.6c-3.2-7.6-6.2-14.7-12.5-19.9
		c-5.5-4.6-12.5-5.5-18.1-5.2c0-0.1,0-0.2,0-0.4c0-0.9-0.1-1.8-0.4-2.6c6.3-0.3,14.2,0.7,20.5,5.9c6.8,5.7,10.1,13.5,13.3,21.1
		c1.3,3.1,2.7,6.4,4.3,9.4c4.3,8.1,9.6,15.9,14.8,23.4c2.2,3.3,4.5,6.6,6.8,10C520.1,226.1,523.4,231.6,526,237.8z"/>
	<path class="st1" d="M523.4,316.5c1.7,5.8,1.3,11.8-1.1,16.4c-1.1,0-2.3-0.1-3.4,0c2.7-4,3.3-9.8,1.6-15.5c-1.1-3.8-3-7.2-5.6-9.8
		c0.7-0.7,1.3-1.6,1.7-2.5C519.7,308.1,522.1,312,523.4,316.5z"/>
	<path class="st1" d="M522.3,332.9c-0.3,0.6-0.6,1.1-1,1.7c-0.3,0.4-0.8,0.7-1.2,0.7c-0.3,0-0.6-0.1-0.8-0.3
		c-0.7-0.5-0.9-1.4-0.4-2.1c0,0,0,0,0,0C520,332.8,521.2,332.8,522.3,332.9z"/>
	<path class="st1" d="M521.2,365c0.9,2.7,1.4,5.6,1.5,8.5c-0.9,0.4-1.9,0.6-3,0.7c0-2.8-0.4-5.5-1.3-8.2c-0.3-0.8,0.2-1.6,0.9-1.9
		C520.1,363.7,521,364.2,521.2,365z"/>
	<path class="st1" d="M520.1,335.2v0.6c-14.9-0.1-30.9,6.5-39.2,16.9c-1.6,2-3.2,5.8-1.7,7.8c1.1,1.5,2.4,3,3.6,4.4
		c3.9,4.8,8,9.7,9.7,14.6c1.9,6.3,2.4,13.7,1.4,22.5c-0.8-0.3-1.7-0.4-2.6-0.4c-0.1,0-0.2,0-0.4,0c0.9-8.4,0.4-15.5-1.3-21.2
		c-1.5-4.3-5.4-9-9.2-13.6c-1.2-1.5-2.5-3-3.6-4.5c-2.9-3.8-0.2-9.2,1.7-11.5c8.6-10.8,24.9-17.7,40.3-18c0,0,0,0,0,0
		c-0.5,0.7-0.3,1.6,0.4,2.1C519.5,335.1,519.8,335.2,520.1,335.2z"/>
	<path class="st1" d="M517.4,301.4c0,1.3-0.3,2.5-0.8,3.6c-2.1-2.1-4.6-3.8-7.3-5c-0.8-0.3-1.6,0-2,0.8c-0.3,0.8,0,1.6,0.8,2
		c2.5,1.1,4.8,2.7,6.8,4.7c-1.6,1.6-3.7,2.6-6.1,2.6c-4.8,0-8.7-3.9-8.7-8.7s3.9-8.7,8.7-8.7C513.5,292.7,517.4,296.6,517.4,301.4z"
		/>
	<path class="st1" d="M508.8,441.1c4.8,0,8.7,3.9,8.7,8.7c0,4.8-3.9,8.7-8.7,8.7c-3.3,0-6.1-1.8-7.6-4.5c2.9-0.4,5.6-1.3,8.3-2.5
		c0.7-0.4,1.1-1.2,0.7-2c-0.4-0.8-1.3-1.1-2-0.7c-2.7,1.3-5.3,2-7.9,2.4c-0.1-0.4-0.1-0.8-0.1-1.2
		C500.2,445,504.1,441.1,508.8,441.1z"/>
	<path class="st1" d="M516.6,305c-0.4,0.9-1,1.8-1.7,2.5c-1.9-2-4.2-3.6-6.8-4.7c-0.8-0.3-1.1-1.2-0.8-2c0.3-0.8,1.2-1.1,2-0.8
		C512,301.2,514.5,302.9,516.6,305z"/>
	<path class="st1" d="M506.5,239.4c4.8,0,8.7,3.9,8.7,8.7c0,4.8-3.9,8.7-8.7,8.7s-8.7-3.9-8.7-8.7c0-2,0.7-3.9,1.9-5.3
		c1.9,1.8,3.8,3.9,5.6,6.3c0.3,0.4,0.7,0.6,1.2,0.6c0.3,0,0.6-0.1,0.9-0.3c0.6-0.5,0.8-1.4,0.3-2.1c-1.9-2.4-3.8-4.6-5.8-6.4
		C503.3,239.9,504.8,239.4,506.5,239.4z"/>
	<path class="st1" d="M512.5,526.2c0.8,1.3,1.3,2.9,1.3,4.6c0,4.8-3.9,8.7-8.7,8.7c-4.8,0-8.7-3.9-8.7-8.7c0-4.8,3.9-8.7,8.7-8.7
		c2,0,3.9,0.7,5.3,1.8c-2.6,1.8-4.8,3.9-6.5,5.9c-0.6,0.6-0.5,1.6,0.1,2.1c0.3,0.2,0.6,0.4,1,0.4c0.4,0,0.8-0.2,1.1-0.5
		C508,529.8,510.1,527.8,512.5,526.2z"/>
	<path class="st1" d="M510.5,523.9c0.8,0.6,1.5,1.4,2,2.3c-2.4,1.6-4.5,3.6-6.2,5.5c-0.3,0.3-0.7,0.5-1.1,0.5c-0.3,0-0.7-0.1-1-0.4
		c-0.6-0.5-0.7-1.5-0.1-2.1C505.7,527.8,507.9,525.8,510.5,523.9z"/>
	<path class="st1" d="M510.2,449.4c0.4,0.8,0,1.6-0.7,2c-2.6,1.3-5.4,2.1-8.3,2.5c-0.5-0.9-0.8-1.9-0.9-2.9c2.6-0.3,5.2-1.1,7.9-2.4
		C508.9,448.3,509.8,448.6,510.2,449.4z"/>
	<path class="st1" d="M507.7,247.1c0.5,0.7,0.4,1.6-0.3,2.1c-0.3,0.2-0.6,0.3-0.9,0.3c-0.5,0-0.9-0.2-1.2-0.6
		c-1.9-2.4-3.8-4.5-5.6-6.3c0.6-0.8,1.4-1.5,2.2-2C503.9,242.5,505.8,244.7,507.7,247.1z"/>
	<path class="st1" d="M499.7,627.9c2.4,6.8,3.4,14.4,2.6,21.6c-0.5,0-0.9,0-1.2,0c-0.7,0-1.3,0.5-1.4,1.2l-0.5-0.1
		c1-7.2,0.2-14.9-2.3-21.8c-4.9-13.8-14.6-25.1-25.7-37.4c-1.6-1.8-3.4-3.7-5.3-5.4c0.6-0.8,1.2-1.7,1.6-2.6c2.1,1.9,4.1,4,5.9,5.9
		C484.7,602,494.6,613.5,499.7,627.9z"/>
	<path class="st1" d="M502.3,649.5c-0.1,1-0.2,2-0.4,3c-0.2,0-0.5,0-0.7,0c-0.8,0.1-1.5-0.6-1.6-1.4c0-0.1,0-0.2,0-0.4
		c0.1-0.7,0.7-1.2,1.4-1.2C501.4,649.5,501.9,649.5,502.3,649.5z"/>
	<path class="st1" d="M501.2,652.5c0.2,0,0.5,0,0.7,0c-2,12-8.8,22.8-21.1,27.7c-3.4,1.3-7,2.1-10.5,2.8c-1.5,0.3-3,0.6-4.5,1
		c-8.9,2.2-15.4,7.9-20.9,14.7c-0.7-0.7-1.5-1.3-2.4-1.8c5.9-7.2,12.9-13.4,22.6-15.8c1.5-0.4,3.1-0.7,4.6-1c3.5-0.7,6.8-1.4,10-2.7
		c11.7-4.6,17.9-15.1,19.5-26.7l0.5,0.1c0,0.1,0,0.2,0,0.4C499.7,651.9,500.4,652.6,501.2,652.5z"/>
	<path class="st1" d="M500.7,702.3c0.8,0.2,1.3,1,1.2,1.8c0,0,0,0,0,0c-1.1,0.7-2.2,1.4-3.3,2.1c0.1-0.9,0.2-1.8,0.4-2.7
		c0.1-0.4,0.4-0.8,0.7-1C499.9,702.2,500.3,702.2,500.7,702.3z"/>
	<path class="st1" d="M501.9,240.7c-0.9,0.5-1.6,1.2-2.2,2c-5.1-4.8-10.2-7.3-15.5-7.6c-3.9-0.2-8.1,0.1-13.2,1c0,0-0.1,0-0.1,0
		c0.7-1.1,1.3-2.2,1.8-3.3c4.4-0.6,8.1-0.8,11.6-0.7C490.5,232.5,496.3,235.3,501.9,240.7z"/>
	<path class="st1" d="M500.3,451c0.1,1,0.5,2,0.9,2.9c-1.4,0.2-2.8,0.3-4.1,0.3c-5.7,0-11.6-1.6-17.5-4.8c-2.2-1.2-4.1-2.7-6.1-4.4
		c-6.5-5.2-13.8-11-33.8-10c-0.2,0-0.4,0-0.6-0.1c3.8-0.6,7.5-1.4,11-2.8c13.6,1.2,20,6.3,25.3,10.5c1.9,1.5,3.7,3,5.7,4.1
		C486,449.4,492.8,452,500.3,451z"/>
	<path class="st1" d="M499.4,702l0.2,0.4c-0.4,0.2-0.6,0.6-0.7,1c-0.2,0.9-0.3,1.8-0.4,2.7c-4.3,2.7-8.3,5.5-12.2,8.4
		c-7.9,5.9-16.7,12.6-27,16.5c-8.8,3.4-18.3,5.1-28.1,5.1c-3.7,0-7.5-0.2-11.3-0.8c-5.1-0.7-17.6-3.2-24-11.6
		c-2.5-3.3-3.7-7.2-3.6-11.4c0.5,0,1,0,1.5,0c0,0,0,0,0,0c0.8,0,1.5-0.7,1.5-1.5l0.1,0c-0.4,4.2,0.5,7.9,2.9,11.1
		c5.7,7.5,17.3,9.8,22,10.4c13.2,1.8,26.3,0.3,37.9-4.2c9.8-3.8,18.5-10.4,26.2-16.1C489.2,708.7,494.1,705.3,499.4,702z"/>
	<path class="st1" d="M494,402.1c3.5,1.1,6,4.4,6,8.2c0,4.8-3.9,8.7-8.7,8.7c-4.8,0-8.7-3.9-8.7-8.7c0-4.7,3.7-8.5,8.3-8.6
		c-0.3,2.7-0.7,5.5-1.2,8.4c-0.1,0.8,0.4,1.6,1.2,1.8c0.1,0,0.2,0,0.3,0c0.7,0,1.3-0.5,1.5-1.2C493.3,407.6,493.7,404.8,494,402.1z"
		/>
	<path class="st1" d="M490.3,730.5c4.8,0,8.7,3.9,8.7,8.7c0,4.8-3.9,8.7-8.7,8.7c-2,0-3.9-0.7-5.4-1.9c2-1.4,4.1-3,6.3-4.6
		c0.7-0.5,0.8-1.4,0.3-2.1c-0.5-0.7-1.4-0.8-2.1-0.3c-2.2,1.7-4.4,3.3-6.5,4.7c-0.8-1.3-1.3-2.9-1.3-4.5
		C481.6,734.4,485.5,730.5,490.3,730.5z"/>
	<path class="st1" d="M494,402.1c-0.3,2.7-0.7,5.5-1.2,8.5c-0.1,0.7-0.8,1.2-1.5,1.2c-0.1,0-0.2,0-0.3,0c-0.8-0.1-1.4-0.9-1.2-1.8
		c0.5-2.9,0.9-5.7,1.2-8.4c0.1,0,0.2,0,0.4,0C492.3,401.7,493.1,401.8,494,402.1z"/>
	<path class="st1" d="M491.5,739.3c0.5,0.7,0.4,1.6-0.3,2.1c-2.2,1.6-4.3,3.2-6.3,4.6c-0.8-0.6-1.5-1.4-2-2.2c2.1-1.5,4.2-3,6.5-4.7
		C490,738.5,491,738.6,491.5,739.3z"/>
	<path class="st1" d="M482.9,743.7c0.5,0.9,1.2,1.6,2,2.2c-22.4,16-36.9,20.4-49.1,15.5c-16.8-6.8-32.8-0.1-47.5,8.2
		c-0.8,0.5-1.6,0.9-2.4,1.4c-6.5,3.7-12.8,7.3-20.6,7.3c-1.1,0-2.3-0.1-3.5-0.2c-4.9-0.6-9.6-2.6-13.1-5.6c-0.9-0.8-2.6-2.2-4.2-4
		c0-0.6,0.1-1.1,0.1-1.7c0-0.2,0-0.5-0.1-0.6l1.8-0.2c1.8,2,3.6,3.6,4.4,4.2c3.1,2.6,7.2,4.4,11.6,5c8.6,1.1,14.9-2.5,22.3-6.7
		c0.8-0.5,1.6-0.9,2.5-1.4c15.4-8.7,32.2-15.7,50.1-8.3C448,763.2,461.6,758.8,482.9,743.7z"/>
	<path class="st1" d="M476.3,213.5c0.6,6.6-0.7,13.4-3.6,19.3c-0.7,0.1-1.4,0.2-2.2,0.3c-0.5,0.1-0.8,0.3-1.1,0.7l-0.6-0.3
		c3.4-6,5-13,4.4-19.8c-0.5-5.6-2.4-11-5.4-15.6c0.9-0.5,1.6-1.2,2.3-2C473.6,201.2,475.8,207.3,476.3,213.5z"/>
	<path class="st1" d="M468.9,470.8c4.8,0,8.6,3.9,8.6,8.7c0,4.8-3.9,8.7-8.6,8.7c-4.8,0-8.7-3.9-8.7-8.7c0-1,0.2-2,0.5-3
		c2.3,1.3,4.8,2.7,7.3,4.4c0.7,0.5,1.6,0.3,2.1-0.4c0.5-0.7,0.3-1.6-0.4-2.1c-2.5-1.6-5-3.2-7.4-4.5
		C463.9,472,466.2,470.8,468.9,470.8z"/>
	<path class="st1" d="M473.9,775.8c0.7,0.4,1,1.3,0.6,2c-0.1,0.2-0.2,0.4-0.3,0.6c-1.4,0.4-2.7,0.8-4.1,1.2c0.6-1.1,1.2-2.1,1.8-3.2
		c0.1-0.2,0.3-0.4,0.4-0.5c0.3-0.1,0.6-0.2,1-0.3C473.5,775.6,473.7,775.7,473.9,775.8z"/>
	<path class="st1" d="M473.3,775.6c-0.3,0.1-0.6,0.2-1,0.3C472.6,775.7,472.9,775.6,473.3,775.6z"/>
	<path class="st1" d="M470.5,233.1c0.7-0.1,1.5-0.2,2.2-0.3c-0.5,1.1-1.2,2.2-1.8,3.3c-0.8,0.1-1.5-0.5-1.6-1.2
		c-0.1-0.4,0-0.7,0.2-1C469.7,233.5,470.1,233.2,470.5,233.1z"/>
	<path class="st1" d="M465.9,314c4.6,0.2,8.3,4,8.3,8.6c0,4.8-3.9,8.7-8.6,8.7c-4.8,0-8.7-3.9-8.7-8.7c0-3.9,2.5-7.1,6-8.2
		c0,2.9,0.3,5.8,0.9,8.6c0.2,0.7,0.8,1.2,1.5,1.2c0.1,0,0.2,0,0.3,0c0.8-0.2,1.3-1,1.2-1.8C466.1,319.6,465.9,316.8,465.9,314z"/>
	<path class="st1" d="M472.3,775.9c-0.2,0.1-0.3,0.3-0.4,0.5c-0.6,1.1-1.2,2.2-1.8,3.2c0,0,0,0,0,0c-4.4,1.2-8.9,2.1-13.5,2.6
		c-6.5,0.7-12.8,0-18.9-0.8c-8.4-1-16.4-2-24.6,0.7c-7.1,2.3-13.8,5.9-19.9,9.5c-0.4-0.9-0.9-1.8-1.6-2.5c6.2-3.8,13.2-7.4,20.6-9.9
		c8.9-2.9,17.5-1.8,25.9-0.8c5.9,0.7,12.1,1.5,18.2,0.8C461.7,778.6,467.1,777.4,472.3,775.9z"/>
	<path class="st1" d="M470.1,779.6c1.4-0.4,2.8-0.8,4.1-1.2c-4.3,8-10.3,15.2-18,21.3c-13.1,10.4-30.4,17.3-54.5,21.9
		c-7.3,1.4-14,2.1-20.1,2.1c-14.9,0-26.3-4.1-34.6-12.3c-5.5-5.4-5.7-12.3-6-18.4c-0.2-9.3,0-17.9,0.5-26.3c0-0.4,0.2-0.8,0.5-1
		c0.8,1,1.6,2,2.4,2.9c-0.4,7.8-0.5,15.8-0.4,24.3c0.2,5.8,0.5,11.8,5.1,16.4c11,10.9,28,14,52.1,9.4c23.6-4.4,40.5-11.2,53.2-21.3
		C460.8,792.2,466.1,786.2,470.1,779.6C470.1,779.6,470.1,779.6,470.1,779.6z"/>
	<path class="st1" d="M471,568.9c0,4.8-1,10.2-3.5,14.7c-0.3-0.2-0.5-0.4-0.8-0.7c-0.6-0.5-1.6-0.5-2.1,0.2
		c-0.1,0.1-0.1,0.1-0.2,0.2l-0.2-0.2c2.7-4.3,3.8-9.8,3.8-14.3c0-0.9,0-1.7,0-2.6l0.9,0c0,0.5,0.3,1,0.7,1.3
		c0.5,0.3,0.9,0.5,1.4,0.8C471,568.6,471,568.7,471,568.9z"/>
	<path class="st1" d="M470.9,564.9c0,1.1,0.1,2.3,0.1,3.5c-0.5-0.3-1-0.6-1.4-0.8c-0.5-0.3-0.7-0.8-0.7-1.3c0-0.3,0.1-0.5,0.2-0.8
		C469.4,564.9,470.2,564.6,470.9,564.9z"/>
	<path class="st1" d="M469.3,234.9c0.1,0.8,0.8,1.3,1.6,1.2c-0.6,1-1.3,1.9-2,2.9c-3.7,4.9-8.8,9-15.3,12.5
		c-0.4-0.9-0.8-1.8-1.3-2.7c6.1-3.3,10.8-7.1,14.3-11.6c0.9-1.1,1.7-2.4,2.4-3.6l0.6,0.3C469.3,234.1,469.2,234.5,469.3,234.9z"/>
	<path class="st1" d="M470.9,564.9c-0.7-0.3-1.5,0-1.9,0.6c-0.1,0.2-0.2,0.5-0.2,0.8l-0.9,0c-0.1-6.2-1-11.4-5.5-16.2
		c-1-1-2-2-3.2-2.9c0.7-0.7,1.3-1.6,1.7-2.5c1.3,1,2.5,2.1,3.6,3.3C469.5,553.1,470.7,558.8,470.9,564.9z"/>
	<path class="st1" d="M472.1,190.7c0,2-0.7,3.9-1.9,5.4c-1.6-2.4-3.4-4.5-5.5-6.5c-0.6-0.6-1.6-0.5-2.1,0.1
		c-0.6,0.6-0.5,1.6,0.1,2.1c2,1.9,3.8,4,5.3,6.3c-1.3,0.8-2.9,1.3-4.5,1.3c-4.8,0-8.7-3.9-8.7-8.7s3.9-8.7,8.7-8.7
		S472.1,185.9,472.1,190.7z"/>
	<path class="st1" d="M469.7,478.4c0.7,0.5,0.9,1.4,0.4,2.1c-0.5,0.7-1.4,0.9-2.1,0.4c-2.6-1.7-5-3.1-7.3-4.4c0,0,0,0,0,0
		c0.4-1,0.9-1.8,1.5-2.6h0C464.7,475.2,467.2,476.7,469.7,478.4z"/>
	<path class="st1" d="M470.2,196.1c-0.6,0.8-1.4,1.5-2.3,2c-1.5-2.3-3.3-4.4-5.3-6.3c-0.6-0.6-0.6-1.5-0.1-2.1
		c0.6-0.6,1.5-0.6,2.1-0.1C466.8,191.5,468.6,193.7,470.2,196.1z"/>
	<path class="st1" d="M458.6,378.7c7.8,8.6,11.4,19.6,9.8,29.4c-0.5,2.9-1.4,5.9-2.9,9.1c-3.7,8.1-9.1,12.4-15.4,14.9
		c-3.1-0.3-6.6-0.3-10.6-0.1c-0.1,0-0.2,0-0.3,0l0-0.2c9.9-1.6,18.6-4.9,23.6-15.9c1.3-2.9,2.2-5.7,2.7-8.3c1.5-8.9-1.9-19-9-26.9
		c-4.4-4.9-10.4-8.4-16.3-11.7c-3.8-2.2-7.8-4.5-11.3-7.1c-6.6-5-10-12.6-9.3-21c1.1-13.2,9-25.1,16-35.7l2-3.1
		c8.8-13.3,18.8-28.4,14.9-44.6c-0.5-2.1-1.2-4.1-2.1-6l0.2-0.1c0.3,0.5,0.8,0.8,1.3,0.8c0.2,0,0.5-0.1,0.7-0.2
		c0.4-0.2,0.7-0.4,1.1-0.6c0.8,1.7,1.4,3.5,1.8,5.3c4.1,17.5-6.2,33.2-15.4,47l-2,3.1c-6.8,10.2-14.5,21.8-15.5,34.3
		c-0.6,7.3,2.4,14,8.1,18.4c3.4,2.5,7.2,4.8,11,6.9C447.7,369.9,453.9,373.5,458.6,378.7z"/>
	<path class="st1" d="M466.7,582.9c0.3,0.2,0.5,0.4,0.8,0.7c-0.5,0.9-1,1.8-1.6,2.6c-0.4-0.3-0.7-0.6-1.1-0.9
		c-0.6-0.5-0.7-1.3-0.3-1.9c0-0.1,0.1-0.1,0.2-0.2C465.2,582.5,466.1,582.4,466.7,582.9z"/>
	<path class="st1" d="M466.7,322.3c0.2,0.8-0.3,1.6-1.2,1.8c-0.1,0-0.2,0-0.3,0c-0.7,0-1.3-0.5-1.5-1.2c-0.6-2.8-0.9-5.6-0.9-8.6
		c0.8-0.3,1.7-0.4,2.6-0.4c0.1,0,0.2,0,0.4,0C465.9,316.8,466.1,319.6,466.7,322.3z"/>
	<path class="st1" d="M459.6,627.1c4.8,0,8.7,3.9,8.7,8.7c0,4.8-3.9,8.7-8.7,8.7c-1.6,0-3-0.4-4.3-1.2c1.7-1.9,3.5-4.1,5.5-6.6
		c0.5-0.6,0.4-1.6-0.2-2.1c-0.6-0.5-1.6-0.4-2.1,0.2c-2,2.5-3.8,4.6-5.4,6.5c-1.3-1.5-2-3.5-2-5.6
		C450.9,631,454.8,627.1,459.6,627.1z"/>
	<path class="st1" d="M464.8,585.2c0.4,0.3,0.7,0.6,1.1,0.9c-1.8,2.3-4,4.3-6.9,5.6c-2.5,1.1-5.1,1.6-7.7,2l-1,0.2
		c-10.2,1.8-20,5.1-29.4,9.7c-0.2,0.1-0.4,0.2-0.7,0.2c-0.1,0-0.1,0-0.2,0c-0.4-0.7-0.8-1.4-1.2-2.1c0.1-0.3,0.4-0.6,0.7-0.8
		c9.6-4.7,19.7-8.1,30.2-9.9l1-0.2c2.5-0.4,4.9-0.8,7-1.8c2.8-1.2,4.9-3.3,6.5-5.8l0.2,0.2C464.1,583.9,464.2,584.7,464.8,585.2z"/>
	<path class="st1" d="M461.7,541.3c0,1.2-0.3,2.4-0.7,3.5c-2.1-1.7-4.4-3.2-6.6-4.7c-0.7-0.5-1.6-0.3-2.1,0.4
		c-0.5,0.7-0.3,1.6,0.4,2.1c2.2,1.5,4.5,3,6.6,4.7c-1.6,1.7-3.8,2.7-6.3,2.7c-4.8,0-8.7-3.9-8.7-8.7c0-4.8,3.9-8.7,8.7-8.7
		S461.7,536.5,461.7,541.3z"/>
	<path class="st1" d="M462.3,473.8c-0.6,0.8-1.1,1.6-1.5,2.6c-12.5-6.8-22.3-7.8-34.1-4c-13.6,5.8-24.2,13.4-34.4,20.8l-1,0.8
		c-4.3,3.7-9.1,7.6-14.1,11c-0.3-0.1-0.6-0.3-0.9-0.4c-0.5-0.3-1.2-0.2-1.6,0.2l-0.8-1.2c5.5-3.5,10.8-7.8,15.5-11.9l0.1-0.1
		l1.1-0.8c10.4-7.5,21.2-15.3,35.1-21.1l0.1,0C439.7,465.1,450.9,467.6,462.3,473.8z"/>
	<path class="st1" d="M460.5,634.6c0.6,0.5,0.8,1.5,0.2,2.1c-2,2.5-3.8,4.6-5.5,6.6c-0.9-0.5-1.7-1.1-2.3-1.9c1.7-1.9,3.4-4,5.4-6.5
		C458.9,634.2,459.9,634.1,460.5,634.6z"/>
	<path class="st1" d="M461,544.7c-0.4,0.9-1,1.8-1.7,2.5c-2.1-1.7-4.4-3.2-6.6-4.7c-0.7-0.5-0.9-1.4-0.4-2.1
		c0.5-0.7,1.4-0.9,2.1-0.4C456.5,541.5,458.8,543,461,544.7z"/>
	<path class="st1" d="M458.6,155.5c0,0.1,0,0.2,0,0.4c-3.4,0.2-6.4,0.8-8.3,1.2c-0.8,0.2-1.6-0.3-1.8-1.1c-0.2-0.8,0.3-1.6,1.1-1.8
		c2-0.5,5-1.1,8.6-1.3C458.5,153.7,458.6,154.6,458.6,155.5z"/>
	<path class="st1" d="M455,113.7c1.5,2.9,2.3,6.1,1.2,9c-0.9,2.3-3.2,4.2-6.1,4.8c-4.8,1.1-9.7,0.2-14.5-0.7
		c-3.4-0.7-6.6-1.3-9.7-1.2c-3.1,0.1-8.9,0.8-12.6,4.3c-1.9,1.8-2.9,4.2-4,6.7c-0.6,1.4-1.2,2.8-2,4.1c-0.7-0.9-1.4-1.7-2.1-2.5
		c0.5-0.9,0.9-1.8,1.3-2.8c1.1-2.7,2.3-5.5,4.7-7.7c4.4-4.3,11.1-5.1,14.6-5.2c3.4-0.1,7,0.6,10.4,1.2c4.7,0.9,9.1,1.7,13.2,0.8
		c1.5-0.3,3.4-1.3,4-3c0.9-2.2-0.1-5.1-1.9-8l0.7-0.4c0.3,0.4,0.7,0.6,1.2,0.6c0,0,0,0,0.1,0C454,113.7,454.5,113.7,455,113.7z"/>
	<path class="st1" d="M449.9,146.9c3.9,0,7.2,2.5,8.2,6c-3.6,0.2-6.6,0.8-8.6,1.3c-0.8,0.2-1.3,1-1.1,1.8c0.2,0.8,1,1.3,1.8,1.1
		c1.9-0.5,4.9-1.1,8.3-1.2c-0.2,4.6-4,8.3-8.7,8.3c-4.8,0-8.7-3.9-8.7-8.7C441.3,150.7,445.2,146.9,449.9,146.9z"/>
	<path class="st1" d="M455,113.7c-0.5,0-1,0-1.5,0c0,0,0,0-0.1,0c-0.5,0-0.9-0.2-1.2-0.6c-0.2-0.2-0.3-0.5-0.3-0.8
		c0-0.8,0.6-1.5,1.4-1.6C453.9,111.7,454.5,112.7,455,113.7z"/>
	<path class="st1" d="M455.3,643.3c-3,3.4-5.8,6.3-9.5,9.8c-9.3,8.7-19.5,17.6-33.2,23c-2.9,1.1-5.8,2.3-8.7,3.5
		c-0.1-0.3-0.3-0.6-0.4-0.9c-0.4-0.7-1.3-1-2-0.6l-0.3-0.7c3.4-1.4,6.9-2.8,10.4-4.1c13.2-5.1,23.2-13.9,32.2-22.4
		c3.6-3.4,6.4-6.2,9.3-9.5C453.6,642.1,454.4,642.8,455.3,643.3z"/>
	<path class="st1" d="M453.6,251.5c-0.4,0.2-0.7,0.4-1.1,0.6c-0.2,0.1-0.4,0.2-0.7,0.2c-0.5,0-1.1-0.3-1.3-0.8
		c-0.4-0.7-0.1-1.6,0.7-2c0.4-0.2,0.7-0.4,1.1-0.6C452.7,249.7,453.2,250.6,453.6,251.5z"/>
	<path class="st1" d="M446.4,203.6c4.8,0,8.7,3.9,8.7,8.7c0,4.8-3.9,8.7-8.7,8.7s-8.7-3.9-8.7-8.7c0-1.8,0.6-3.5,1.5-4.9
		c2,1.5,4,3.4,5.9,5.9c0.3,0.4,0.7,0.6,1.2,0.6c0.3,0,0.6-0.1,0.9-0.3c0.6-0.5,0.8-1.5,0.2-2.1c-1.9-2.4-4-4.5-6.2-6.1
		C442.8,204.2,444.5,203.6,446.4,203.6z"/>
	<path class="st1" d="M452.3,248.8c-0.3,0.2-0.7,0.4-1.1,0.6c-0.7,0.4-1,1.3-0.7,2l-0.2,0.1c-3.4-6.9-9.4-11.9-16-12.8
		c-3-0.4-6.1-0.1-9,0.6c-0.2-1-0.5-2-1-2.8c3.4-0.8,7-1.3,10.5-0.8C441.8,236.7,448.3,241.7,452.3,248.8z"/>
	<path class="st1" d="M452.2,113.1l-0.7,0.4c-1.2-2-2.8-3.9-4.4-5.6c-3.8-3.9-8.8-7-14.8-9.4c-6.1-2.3-12.7-3.6-19-4.9
		c-3.3-0.7-6.8-1.4-10.2-2.2c-3.8-0.9-7.6-2.1-11.2-3.2c-6.2-1.9-12.7-3.8-19.2-4.7c-12.1-1.7-24.8,0.9-33.9,7
		c-3.6,3.2-5.5,7.7-5.9,13.8l0,0.2l-0.2,0.8c-0.6,3-1.2,6.4-1.5,10.1c0,0.2-0.1,0.3-0.1,0.4c0.1-3.8-0.4-7.6-1.3-11.2l0.1-0.5
		c0.5-6.9,2.8-12.1,7-15.8l0.2-0.1c9.7-6.6,23.2-9.4,36.1-7.5c6.7,1,13.3,2.9,19.6,4.8c3.6,1.1,7.4,2.2,11.1,3.1
		c3.3,0.8,6.7,1.5,10,2.2c6.5,1.3,13.2,2.7,19.5,5.1c6.5,2.5,11.8,5.8,15.9,10.1c0.9,0.9,2.5,2.7,4,4.8c-0.8,0.1-1.4,0.8-1.4,1.6
		C451.9,112.6,452,112.9,452.2,113.1z"/>
	<path class="st1" d="M447.6,211.3c0.5,0.6,0.4,1.6-0.2,2.1c-0.3,0.2-0.6,0.3-0.9,0.3c-0.4,0-0.9-0.2-1.2-0.6
		c-1.9-2.4-3.9-4.4-5.9-5.9c0.6-0.8,1.3-1.6,2.1-2.1C443.6,206.8,445.6,208.9,447.6,211.3z"/>
	<path class="st1" d="M439.5,432c4-0.2,7.5-0.1,10.6,0.1c-3.5,1.4-7.2,2.2-11,2.8c-0.6-0.2-1-0.7-1-1.3c0-0.7,0.4-1.4,1.1-1.5
		C439.3,432,439.4,432,439.5,432z"/>
	<path class="st1" d="M444.9,698.7c1.5,1.5,2.4,3.6,2.4,5.9c0,4.8-3.9,8.7-8.7,8.7c-4.8,0-8.7-3.9-8.7-8.7c0-4.8,3.9-8.7,8.7-8.7
		c1.4,0,2.7,0.3,3.9,0.9c-1.8,2.2-3.5,4.5-5.1,6.9c-0.5,0.7-0.3,1.6,0.4,2.1c0.3,0.2,0.6,0.3,0.9,0.3c0.5,0,0.9-0.2,1.2-0.7
		C441.4,703.1,443.1,700.8,444.9,698.7z"/>
	<path class="st1" d="M442.5,696.9c0.9,0.5,1.7,1.1,2.4,1.8c-1.8,2.2-3.5,4.5-5.1,6.8c-0.3,0.4-0.8,0.7-1.2,0.7
		c-0.3,0-0.6-0.1-0.9-0.3c-0.7-0.5-0.9-1.4-0.4-2.1C439,701.4,440.7,699.1,442.5,696.9z"/>
	<path class="st1" d="M441.4,205.2c-0.8,0.6-1.5,1.3-2.1,2.1c-8.9-6.5-18.6-4.9-27-0.7c-0.4-0.9-1-1.8-1.7-2.5
		c3.9-2,7.7-3.3,11.3-3.8c0.2,0.4,0.6,0.8,1.1,0.8c0.1,0,0.2,0,0.3,0c0.7,0,1.3-0.5,1.5-1.2C430.8,199.7,436.4,201.4,441.4,205.2z"
		/>
	<path class="st1" d="M439.2,431.9l0,0.2c-0.7,0.2-1.2,0.8-1.1,1.5c0,0.6,0.4,1.2,1,1.3c-2.8,0.4-5.6,0.7-8.3,1
		c-5.1,0.5-10.3,1.1-15,2.4c-14.8,4.1-27.1,14.5-36,23.8c-0.6-0.8-1.4-1.4-2.3-1.9c9.2-9.6,21.9-20.4,37.5-24.8
		c5-1.4,10.3-2,15.5-2.5C433.4,432.7,436.3,432.3,439.2,431.9z"/>
	<path class="st1" d="M427.3,393.9c4.8,0,8.7,3.9,8.7,8.7c0,4.8-3.9,8.7-8.7,8.7s-8.7-3.9-8.7-8.7c0-2.4,1-4.6,2.6-6.1
		c1.8,2,3.3,4.5,4.8,6.9c0.3,0.5,0.8,0.7,1.3,0.7c0.3,0,0.5-0.1,0.8-0.2c0.7-0.4,0.9-1.4,0.5-2.1c-1.4-2.4-3-4.9-4.9-7.1
		C424.7,394.2,426,393.9,427.3,393.9z"/>
	<path class="st1" d="M428.5,401.8c0.4,0.7,0.2,1.6-0.5,2.1c-0.2,0.1-0.5,0.2-0.8,0.2c-0.5,0-1-0.3-1.3-0.7c-1.5-2.4-3-4.9-4.8-6.9
		c0.7-0.7,1.5-1.3,2.5-1.7C425.6,396.9,427.1,399.4,428.5,401.8z"/>
	<path class="st1" d="M425.2,239.3c0.1,0.5,0.1,1,0.1,1.5c0,4.8-3.9,8.7-8.7,8.7c-4.8,0-8.7-3.9-8.7-8.7s3.9-8.7,8.7-8.7
		c3.2,0,6,1.7,7.5,4.3c-3.1,0.8-6,1.8-8.6,2.8c-0.8,0.3-1.2,1.1-0.9,1.9c0.3,0.8,1.1,1.2,1.9,0.9C419.3,241.1,422.2,240,425.2,239.3
		z"/>
	<path class="st1" d="M414.4,150.9c10.6,15.2,13.7,29.9,10.4,49c0,0,0,0.1,0,0.1c-0.9,0.1-1.9,0.1-2.8,0.3c-0.1-0.3-0.2-0.6-0.1-0.9
		c3.2-18.3,0.2-32.3-9.9-46.9c-2.6-4-5.1-7.7-7.8-10.9l0.5-0.4c0.1,0.2,0.3,0.3,0.4,0.4c0.2,0.1,0.5,0.2,0.8,0.2
		c0.5,0,1-0.3,1.3-0.7c0.1-0.1,0.1-0.2,0.2-0.3C409.7,143.9,412,147.2,414.4,150.9z"/>
	<path class="st1" d="M418.4,267c4.8,0,8.7,3.9,8.7,8.7c0,4.8-3.9,8.7-8.7,8.7c-1.9,0-3.7-0.6-5.2-1.7c2.6-2.1,4.7-4.1,6.3-5.7
		c0.6-0.6,0.5-1.5,0-2.1c-0.6-0.6-1.5-0.5-2.1,0.1c-1.5,1.6-3.6,3.6-6.1,5.6c-0.9-1.4-1.4-3-1.4-4.7
		C409.8,270.9,413.6,267,418.4,267z"/>
	<path class="st1" d="M424.2,236.5c0.5,0.9,0.9,1.8,1,2.8c-3,0.7-5.9,1.8-8.7,2.8c-0.8,0.3-1.6-0.1-1.9-0.9
		c-0.3-0.8,0.1-1.6,0.9-1.9C418.2,238.3,421.1,237.2,424.2,236.5z"/>
	<path class="st1" d="M416.1,389.7c3.2,0.9,5.6,2.8,7.5,5c-0.9,0.4-1.8,1-2.5,1.7c-1.6-1.8-3.5-3.2-5.9-3.8
		c-4.1-1.2-8.4-1.2-12.9-1.3c-1.3,0-2.6,0-3.9-0.1c-5.3-0.2-12-0.9-17.1-5c-2.7-2.2-4.8-5.4-6-8.8c0.2-1.6,0.5-3.1,0.8-4.7
		c0.3-1.7,0.6-3.4,0.8-5.1l0.3,0c-0.9,6,1.5,12.6,6,16.2c4.4,3.6,10.5,4.2,15.3,4.4c1.3,0,2.5,0.1,3.8,0.1
		C406.9,388.4,411.6,388.4,416.1,389.7z"/>
	<path class="st1" d="M424.7,200c-0.2,0.7-0.8,1.2-1.5,1.2c-0.1,0-0.2,0-0.3,0c-0.5-0.1-0.9-0.4-1.1-0.8
		C422.8,200.2,423.8,200.1,424.7,200z"/>
	<path class="st1" d="M421.8,607.9c0.8,2.5,1.6,5.1,1.4,7.9c-0.3,6-4.7,10.7-8.5,14.8c-0.5,0.5-1,1.1-1.5,1.6
		c-3,3.2-5.6,6.7-7.9,10.5c-0.8-0.6-1.7-1-2.7-1.3c2.4-4,5.2-7.8,8.4-11.3c0.5-0.5,1-1.1,1.6-1.7c3.7-3.9,7.5-8,7.7-12.9
		c0.1-2.3-0.6-4.6-1.3-6.8c-0.6-1.9-1.3-3.5-2.2-5l2.5-0.6c0.2,0.2,0.6,0.4,0.9,0.5C420.7,605,421.3,606.4,421.8,607.9z"/>
	<path class="st1" d="M419.5,274.7c0.6,0.6,0.6,1.5,0,2.1c-1.6,1.6-3.7,3.7-6.3,5.7c-0.8-0.6-1.5-1.4-2.1-2.2c2.5-2,4.6-4,6.1-5.6
		C417.9,274.2,418.9,274.2,419.5,274.7z"/>
	<path class="st1" d="M420.1,603.7c-0.3,0-0.7-0.2-0.9-0.5c-0.1-0.1-0.2-0.2-0.2-0.3c-0.2-0.4-0.2-0.9,0-1.2
		C419.3,602.3,419.7,603,420.1,603.7z"/>
	<path class="st1" d="M419.2,603.3l-2.5,0.6c-3.1-5.3-8-8.1-15.1-8.7c-1.1-0.1-2.3-0.2-3.4-0.3c-5-0.4-9.7-0.7-14.6-2.4
		c-2.2-0.8-4.5-1.6-6.7-2.4c-1.4-0.5-2.8-1-4.2-1.5c0.5-0.8,0.9-1.8,1.1-2.8c1.4,0.5,2.8,1,4.1,1.5c2.2,0.8,4.4,1.6,6.7,2.4
		c4.5,1.6,9.1,1.9,13.8,2.3c1.1,0.1,2.3,0.2,3.4,0.3c7.8,0.7,13.4,3.8,17,9.5c-0.2,0.4-0.2,0.8,0,1.2
		C419,603,419.1,603.2,419.2,603.3z"/>
	<path class="st1" d="M411.2,280.4c0.5,0.9,1.2,1.6,2.1,2.2c-6,4.8-14.4,9.7-24,9.7c-3.9,0-8.1-0.8-12.3-2.9l0.4-0.9
		c0.2,0.1,0.5,0.2,0.7,0.2c0.4,0,0.9-0.2,1.2-0.6c0.2-0.2,0.4-0.5,0.5-0.7C392.1,292.3,403.7,286.3,411.2,280.4z"/>
	<path class="st1" d="M412.3,206.7c0.5,1.1,0.8,2.3,0.8,3.5c0,4.8-3.9,8.7-8.7,8.7c-4.8,0-8.7-3.9-8.7-8.7s3.9-8.7,8.7-8.7
		c2.4,0,4.6,1,6.2,2.6c-2.3,1.2-4.7,2.6-7.1,4.3c-0.7,0.5-0.8,1.4-0.4,2.1c0.5,0.7,1.4,0.8,2.1,0.4
		C407.4,209.4,409.8,207.9,412.3,206.7z"/>
	<path class="st1" d="M410.6,204.2c0.7,0.7,1.3,1.6,1.7,2.5c-2.5,1.2-4.9,2.7-7,4.2c-0.7,0.5-1.6,0.3-2.1-0.4
		c-0.5-0.7-0.3-1.6,0.4-2.1C405.9,206.8,408.3,205.3,410.6,204.2z"/>
	<path class="st1" d="M407.3,140.8c0,0.1-0.1,0.2-0.2,0.3c-0.3,0.5-0.8,0.7-1.3,0.7c-0.3,0-0.5-0.1-0.8-0.2
		c-0.2-0.1-0.3-0.2-0.4-0.4c-0.4-0.5-0.4-1.1-0.1-1.7c0.2-0.4,0.5-0.9,0.7-1.3C405.9,139.1,406.6,140,407.3,140.8z"/>
	<path class="st1" d="M405.3,642.8c2.2,1.6,3.7,4.2,3.7,7.1c0,4.8-3.9,8.7-8.7,8.7s-8.7-3.9-8.7-8.7c0-4.8,3.9-8.7,8.7-8.7
		c0.8,0,1.5,0.1,2.2,0.3c-1.5,2.5-2.9,5.1-4,7.8c-0.3,0.8,0,1.6,0.8,2c0.2,0.1,0.4,0.1,0.6,0.1c0.6,0,1.1-0.3,1.4-0.9
		C402.4,647.8,403.8,645.3,405.3,642.8z"/>
	<path class="st1" d="M405.2,138.3c-0.2,0.4-0.5,0.9-0.7,1.3c-0.3,0.5-0.3,1.2,0.1,1.7l-0.5,0.4c-7-8.5-14.8-14.2-26.2-16.7
		c0.3-0.9,0.4-1.8,0.4-2.7c0-0.1,0-0.2,0-0.3C390,124.4,398.1,130,405.2,138.3z"/>
	<path class="st1" d="M403.8,679.5c2.9,6.4-0.8,13.8-4,20.2c-1.9,3.8-3.7,7.3-4.1,10.4c0,0.3-0.1,0.6-0.1,0.9l-0.1,0
		c0-0.8-0.7-1.5-1.5-1.5c-0.4,0-0.8,0-1.2,0c0.6-3.5,2.4-7.2,4.4-11.1c3.1-6.2,6.3-12.6,3.9-17.8C402,680.2,402.9,679.9,403.8,679.5
		z"/>
	<path class="st1" d="M403.4,678.6c0.2,0.3,0.3,0.6,0.4,0.9c-0.9,0.4-1.9,0.7-2.8,1.1c-0.1-0.2-0.2-0.4-0.3-0.5
		c-0.4-0.7-0.1-1.6,0.6-2C402.1,677.6,403,677.9,403.4,678.6z"/>
	<path class="st1" d="M402.5,641.5c1,0.3,1.9,0.7,2.7,1.3c-1.5,2.5-2.9,5-4,7.7c-0.2,0.6-0.8,0.9-1.4,0.9c-0.2,0-0.4,0-0.6-0.1
		c-0.8-0.3-1.1-1.2-0.8-2C399.7,646.6,401,644,402.5,641.5z"/>
	<path class="st1" d="M401.1,677.3l0.3,0.7c-0.7,0.4-1,1.3-0.6,2c0.1,0.2,0.2,0.4,0.3,0.5c-0.6,0.2-1.1,0.5-1.7,0.7
		c-11.3,4.5-22.9,9.2-34.2,12.8c-3,1.1-6.4,1.7-9.9,1.7c-0.4,0-0.7,0-1,0c0.4-0.6,0.4-1.4-0.1-2c-0.2-0.2-0.5-0.4-0.8-0.4l0-0.6
		c3.8,0.3,7.6-0.3,10.8-1.5c11.3-3.7,22.9-8.3,34.1-12.8C399.2,678.1,400.1,677.7,401.1,677.3z"/>
	<path class="st1" d="M394.9,520.6c4.8,0,8.6,3.9,8.6,8.7c0,4.8-3.9,8.7-8.6,8.7c-4.8,0-8.7-3.9-8.7-8.7c0-3,1.6-5.7,3.9-7.3
		c1.8,2.9,3.2,5.6,3.9,7.8c0.2,0.6,0.8,1,1.4,1c0.2,0,0.3,0,0.5-0.1c0.8-0.3,1.2-1.2,0.9-1.9c-0.8-2.2-2.2-5-4-7.9
		C393.6,520.7,394.2,520.6,394.9,520.6z"/>
	<path class="st1" d="M396.9,528.8c0.3,0.8-0.1,1.6-0.9,1.9c-0.2,0.1-0.3,0.1-0.5,0.1c-0.6,0-1.2-0.4-1.4-1
		c-0.8-2.1-2.1-4.9-3.9-7.8c0.8-0.5,1.8-1,2.8-1.2C394.7,523.8,396.1,526.5,396.9,528.8z"/>
	<path class="st1" d="M393.9,709.5c0.8,0,1.5,0.7,1.5,1.5c0,0.8-0.7,1.5-1.5,1.5c0,0,0,0,0,0c-0.5,0-1,0-1.5,0
		c0-0.9,0.1-1.8,0.2-2.8c0-0.1,0-0.1,0-0.2C393.1,709.5,393.5,709.5,393.9,709.5z"/>
	<path class="st1" d="M393.1,791.7c0.4,1,0.6,2.1,0.6,3.3c0,4.8-3.9,8.7-8.7,8.7c-4.8,0-8.7-3.9-8.7-8.7c0-4.8,3.9-8.7,8.7-8.7
		c2.5,0,4.8,1.1,6.4,2.8c-2.5,1.5-4.9,3.1-7.2,4.6c-0.7,0.5-0.9,1.4-0.4,2.1c0.3,0.5,0.8,0.7,1.3,0.7c0.3,0,0.6-0.1,0.8-0.2
		C388.2,794.8,390.6,793.2,393.1,791.7z"/>
	<path class="st1" d="M392.6,328.6c2.1,8-1.1,15-4.2,20.1c-1.2,2.1-2.8,4.1-4.3,6.1c-2.5,3.2-5,6.5-6.2,10.3
		c-0.3,0.8-0.4,1.7-0.6,2.5l-0.3,0c0.1-0.8-0.4-1.6-1.2-1.7c-0.5-0.1-1,0.1-1.3,0.4c0.1-0.7,0.3-1.4,0.5-2.1
		c1.4-4.2,4.1-7.8,6.7-11.2c1.5-2,3-3.9,4.1-5.8c4.1-6.9,5.3-12.4,3.9-17.8c-2.7-10.4-14-15.8-23.1-18.5c0.4-0.9,0.6-1.9,0.7-2.9
		C377.2,310.9,389.5,316.8,392.6,328.6z"/>
	<path class="st1" d="M392.7,709.5c0,0.1,0,0.2,0,0.2c-0.1,0.9-0.2,1.9-0.2,2.8c-0.1,0-0.3,0-0.5,0c-4.9-0.1-9.5-0.1-13.8,1.8
		c-7.7,3.5-9.5,11.5-9.4,19.6c-0.1,0-0.2,0-0.3,0c-0.9,0-1.8,0.1-2.6,0.4c-0.2-8.9,1.8-18.6,11.1-22.8c4.9-2.2,10-2.1,15-2
		C392.3,709.5,392.5,709.5,392.7,709.5z"/>
	<path class="st1" d="M391.5,789.2c0.7,0.7,1.2,1.6,1.6,2.5c-2.5,1.5-4.9,3.1-7.2,4.5c-0.2,0.2-0.5,0.2-0.8,0.2
		c-0.5,0-1-0.2-1.3-0.7c-0.5-0.7-0.3-1.6,0.4-2.1C386.5,792.3,389,790.7,391.5,789.2z"/>
	<path class="st1" d="M392.9,520.8c-1,0.2-2,0.6-2.8,1.2c-3.5-5.6-8.9-11.7-15.2-14.8c-0.2-0.1-0.4-0.3-0.6-0.5
		c0.9-0.6,1.9-1.2,2.8-1.8C383.8,508.5,389.3,515,392.9,520.8z"/>
	<path class="st1" d="M383.6,250.6c6.2,12.1,4.8,25.7-3.8,36.8c-0.9-0.4-1.9-0.8-2.8-1.3c8.3-10.3,9.7-22.8,3.9-34.1
		c-6.8-13.4-8.8-26.2-6.2-40.5c0.6-3.3,1.4-6.7,2.2-9.9c2.1-8.8,4.3-17.8,2.8-26.5c-1.1-6.3-5.2-12.4-11.5-17.2
		c-7.6-5.7-17.6-8.5-25.5-7.2c-5.5,0.9-9.9,3.7-12.9,8.2c-0.1,0.1-0.2,0.2-0.3,0.3c0-1.6,0-3.1-0.1-4.7c3.3-3.6,7.7-5.9,12.8-6.8
		c8.8-1.5,19.5,1.5,27.8,7.7c7,5.2,11.5,12,12.7,19.1c1.6,9.3-0.6,18.6-2.8,27.7c-0.8,3.4-1.6,6.6-2.2,9.8
		C375.1,225.8,376.9,237.7,383.6,250.6z"/>
	<path class="st1" d="M379.8,287.4c-0.2,0.2-0.4,0.5-0.5,0.7c-0.3,0.4-0.7,0.6-1.2,0.6c-0.2,0-0.5-0.1-0.7-0.2
		c-0.1,0-0.1-0.1-0.2-0.1c-0.6-0.5-0.7-1.5-0.2-2.1c0,0,0.1-0.1,0.1-0.1C377.9,286.6,378.9,287,379.8,287.4z"/>
	<path class="st1" d="M379.7,462.2c1.3,1.5,2.1,3.5,2.1,5.6c0,4.8-3.9,8.7-8.7,8.7c-4.8,0-8.7-3.9-8.7-8.7c0-4.8,3.9-8.7,8.7-8.7
		c1.6,0,3,0.4,4.3,1.1c-2,2.1-3.8,4.1-5.4,5.9c-0.5,0.6-0.5,1.6,0.1,2.1c0.3,0.3,0.6,0.4,1,0.4c0.4,0,0.8-0.2,1.1-0.5
		C375.9,466.3,377.7,464.2,379.7,462.2z"/>
	<path class="st1" d="M377.4,460.2c0.9,0.5,1.7,1.2,2.3,1.9c-2,2.1-3.8,4.1-5.5,6c-0.3,0.3-0.7,0.5-1.1,0.5c-0.4,0-0.7-0.1-1-0.4
		c-0.6-0.5-0.7-1.5-0.1-2.1C373.6,464.3,375.4,462.3,377.4,460.2z"/>
	<path class="st1" d="M378.3,122c0,0.1,0,0.2,0,0.3c0,0.9-0.1,1.8-0.4,2.7c-2.6-0.6-5.4-1-8.4-1.2c-0.8-0.1-1.4-0.8-1.4-1.6
		c0.1-0.8,0.8-1.4,1.6-1.4C372.8,121,375.7,121.4,378.3,122z"/>
	<path class="st1" d="M377.4,288.4l-0.4,0.9c-0.7-0.3-1.3-0.6-2-1c-26-11.7-27.2-28.5-26.2-70.7c0.4,0.1,0.9,0.1,1.3,0.1
		c0.6,0,1.2-0.1,1.7-0.2c-1,44.6,1,57.6,24.4,68.1l0.1,0.1c0.2,0.1,0.4,0.2,0.6,0.4c0,0-0.1,0.1-0.1,0.1c-0.5,0.6-0.4,1.6,0.2,2.1
		C377.2,288.4,377.3,288.4,377.4,288.4z"/>
	<path class="st1" d="M376.2,504.5c0.3,0.1,0.6,0.3,0.9,0.4c-0.9,0.6-1.8,1.2-2.8,1.8c-0.3-0.4-0.4-1-0.1-1.5
		c0.1-0.2,0.2-0.4,0.4-0.5C375,504.4,375.6,504.3,376.2,504.5z"/>
	<path class="st1" d="M375.8,365.9c0.8,0.1,1.4,0.9,1.2,1.7c-0.3,1.7-0.6,3.4-0.8,5.1c-0.3,1.6-0.5,3.1-0.8,4.7
		c-1.2-3.5-1.6-7.4-0.9-11.1C374.8,366,375.3,365.8,375.8,365.9z"/>
	<path class="st1" d="M369.7,113.7c4.7,0,8.5,3.7,8.6,8.3c-2.6-0.6-5.5-1-8.5-1.2c-0.8-0.1-1.5,0.6-1.6,1.4
		c-0.1,0.8,0.6,1.6,1.4,1.6c3,0.2,5.8,0.6,8.4,1.2c-1.1,3.5-4.4,6-8.2,6c-4.8,0-8.6-3.9-8.6-8.7C361,117.5,364.9,113.7,369.7,113.7z
		"/>
	<path class="st1" d="M368.9,733.9c4.6,0.2,8.3,4,8.3,8.7c0,4.8-3.9,8.7-8.7,8.7s-8.7-3.9-8.7-8.7c0-3.8,2.5-7.1,6-8.2
		c0,2.5,0.2,5,0.5,7.2l0,0.2c0.1,0.4,0.1,0.8,0.2,1.1c0.1,0.7,0.8,1.3,1.5,1.3c0.1,0,0.2,0,0.2,0c0.8-0.1,1.4-0.9,1.2-1.7
		c-0.1-0.4-0.1-0.8-0.2-1.2C369.1,738.7,368.9,736.3,368.9,733.9z"/>
	<path class="st1" d="M374.6,400.5c0.7,5.6,1.4,11.3-0.6,16.9c-3.3,9.2-11.3,14.6-19,19.8c-3.5,2.4-6.9,4.6-9.8,7.2
		c-3,2.7-5.7,5.6-8.1,8.6l-1.2-1c0.2-0.6,0-1.2-0.5-1.6c2.3-2.9,5-5.7,7.9-8.3c3-2.7,6.6-5.1,10.1-7.4c7.3-5,14.9-10.1,17.9-18.3
		c1.8-5,1.1-10.1,0.4-15.6c-0.3-2.7-0.7-5.5-0.7-8.2c-0.1-6.8,1.1-13.7,2.3-20.4c0.3-1.7,0.6-3.4,0.9-5c0.1-0.3,0.2-0.6,0.4-0.8
		c-0.7,3.6-0.3,7.5,0.9,11.1c-0.8,5.1-1.5,10.2-1.5,15.2C374,395.1,374.3,397.8,374.6,400.5z"/>
	<path class="st1" d="M373.8,503.6l0.8,1.2c-0.2,0.1-0.3,0.3-0.4,0.5c-0.2,0.5-0.2,1.1,0.1,1.5c-7.6,4.7-15.8,8-24,8
		c-1.8,0-3.5-0.2-5.2-0.5c-6.3-1.1-11.4-4.8-15.1-9.6c0.1-0.6,0.3-1,0.4-1.2c0.4-0.5,0.4-1.1,0.2-1.6l0.7-0.5c3.4,5,8.2,8.8,14.3,10
		c1.6,0.3,3.1,0.4,4.7,0.4C358.3,511.8,366.3,508.3,373.8,503.6z"/>
	<path class="st1" d="M374,584.1c0,0.6,0,1.1-0.2,1.7c-2.6-1-5.4-1.9-8.1-2.7c-0.8-0.2-1.6,0.2-1.9,1c-0.2,0.8,0.2,1.6,1,1.9
		c2.6,0.8,5.3,1.7,7.9,2.6c-1.5,2.5-4.3,4.2-7.4,4.2c-4.8,0-8.7-3.9-8.7-8.7c0-4.8,3.9-8.7,8.7-8.7C370.1,575.4,374,579.3,374,584.1
		z"/>
	<path class="st1" d="M369.1,634.1c4,0.8,6.9,4.3,6.9,8.5c0,4.8-3.9,8.7-8.7,8.7s-8.7-3.9-8.7-8.7c0-4.3,3.2-7.9,7.4-8.6
		c0.1,2.4,0,5.1-0.3,8c-0.1,0.8,0.5,1.6,1.3,1.7c0.1,0,0.1,0,0.1,0c0.8,0,1.4-0.6,1.5-1.4C369,639.3,369.2,636.6,369.1,634.1z"/>
	<path class="st1" d="M373.8,585.7c-0.2,1-0.6,2-1.1,2.8c-2.6-0.9-5.2-1.8-7.9-2.6c-0.8-0.2-1.2-1.1-1-1.9c0.2-0.8,1.1-1.2,1.9-1
		C368.4,583.9,371.1,584.8,373.8,585.7z"/>
	<path class="st1" d="M369.6,742.3c0.1,0.8-0.4,1.6-1.2,1.7c-0.1,0-0.2,0-0.2,0c-0.7,0-1.4-0.5-1.5-1.3c0-0.3-0.1-0.7-0.2-1.1l0-0.2
		c-0.2-2.3-0.5-4.7-0.5-7.2c0.8-0.3,1.7-0.4,2.6-0.4c0.1,0,0.2,0,0.3,0c0,2.4,0.2,4.9,0.5,7.2C369.4,741.5,369.5,741.9,369.6,742.3z
		"/>
	<path class="st1" d="M369.1,634.1c0.1,2.5,0,5.2-0.3,8.2c-0.1,0.8-0.7,1.4-1.5,1.4c0,0-0.1,0-0.1,0c-0.8-0.1-1.4-0.8-1.3-1.7
		c0.3-2.9,0.4-5.5,0.3-8c0.4-0.1,0.9-0.1,1.3-0.1C367.9,633.9,368.5,634,369.1,634.1z"/>
	<path class="st1" d="M369.1,634.1c-0.6-0.1-1.1-0.2-1.7-0.2c-0.4,0-0.9,0-1.3,0.1c-0.5-12.7-6.6-19.6-21.4-25.4
		c-2.1-0.8-8.7-3.6-12.4-7c0-0.8,0.1-1.5,0.1-2.4c0-0.4-0.2-0.8-0.4-1.1l0.8-0.6c0.2,0.2,0.4,0.5,0.5,0.7c2.2,2.8,8.1,5.7,12.5,7.5
		C361.8,612.1,368.6,619.9,369.1,634.1z"/>
	<path class="st1" d="M367.4,307.4c0,0.2,0,0.4,0,0.6c-3.4-1-6.5-1.7-8.8-2.1c-0.8-0.1-1.6,0.4-1.7,1.2c-0.1,0.8,0.4,1.6,1.2,1.7
		c2.2,0.4,5.2,1,8.5,2c-1.3,3-4.4,5.2-7.9,5.2c-4.8,0-8.7-3.9-8.7-8.7c0-4.8,3.9-8.7,8.7-8.7S367.4,302.6,367.4,307.4z"/>
	<path class="st1" d="M367.4,308c-0.1,1-0.3,2-0.7,2.9c-3.3-1-6.3-1.6-8.5-2c-0.8-0.1-1.4-0.9-1.2-1.7c0.1-0.8,0.9-1.3,1.7-1.2
		C360.9,306.3,364,306.9,367.4,308z"/>
	<path class="st1" d="M364.8,544.4c0,1.4-0.3,2.7-0.9,3.8c-2.3-1.9-4.6-3.9-6.7-6c-0.6-0.6-1.5-0.6-2.1,0c-0.6,0.6-0.6,1.5,0,2.1
		c2.2,2.2,4.6,4.3,7.1,6.3c-1.6,1.5-3.7,2.4-6,2.4c-4.8,0-8.7-3.9-8.7-8.7c0-4.8,3.9-8.7,8.7-8.7S364.8,539.6,364.8,544.4z"/>
	<path class="st1" d="M363.9,548.2c-0.4,0.9-1,1.7-1.8,2.4c-2.5-2-4.8-4.1-7.1-6.3c-0.6-0.6-0.6-1.5,0-2.1c0.6-0.6,1.5-0.6,2.1,0
		C359.3,544.3,361.6,546.3,363.9,548.2z"/>
	<path class="st1" d="M350.1,200.4c4.8,0,8.7,3.9,8.7,8.7c0,4.2-3,7.7-6.9,8.5c0-2.7,0.1-5.5,0.2-8.4c0-0.8-0.6-1.5-1.5-1.5
		c-0.8,0-1.5,0.6-1.5,1.5c-0.1,3-0.1,5.8-0.2,8.6c-4.2-0.6-7.4-4.2-7.4-8.6C341.4,204.3,345.3,200.4,350.1,200.4z"/>
	<path class="st1" d="M354.1,693.8c0.5,0.5,0.6,1.4,0.1,2c-1.2,0-2.5-0.2-3.8-0.4c0.5-0.6,1-1.1,1.5-1.6c0.4-0.4,0.9-0.5,1.3-0.4
		C353.6,693.4,353.8,693.6,354.1,693.8z"/>
	<path class="st1" d="M354.2,695.8c0,0-0.1,0.1-0.1,0.2c-0.7,0.6-1.3,1.4-2.1,2.3c-0.9,1-1.9,2.1-3.1,3.3c-5,5.1-8,12.6-8,19.9
		c-0.1,3.5,0,7,0.1,10.6c0.1,3.7,0.3,7.4,0.1,11.3c0,0.6-0.1,1.2-0.1,1.9c-0.2,5.5-0.5,11.2,1.6,15.7c0.8,1.7,2.1,3.5,3.5,5
		l-1.8,0.2c-0.2-0.5-0.7-0.9-1.3-0.9c-0.4,0-0.8,0.1-1.1,0.4c-0.8-1.1-1.5-2.2-2.1-3.4c-2.4-5.1-2.1-11.2-1.8-17.1l0.1-1.9
		c0.1-3.7,0-7.4-0.1-11c-0.1-3.5-0.2-7.2-0.1-10.8c0-8.1,3.3-16.3,8.9-22c1.1-1.1,2.1-2.2,3-3.2c0.2-0.3,0.5-0.5,0.7-0.8
		C351.7,695.6,352.9,695.7,354.2,695.8z"/>
	<path class="st1" d="M353.3,692.7l0,0.6c-0.5-0.1-1,0-1.3,0.4c-0.5,0.5-1,1-1.5,1.6c-6.2-1-12.3-4-16.8-9.9
		c0.3-1.2,0.6-2.5,0.8-3.7c0,0.1,0,0.2,0.4,0.5c0.2,0.2,0.6,0.5,0.9,1C340.2,689.5,346.9,692.3,353.3,692.7z"/>
	<path class="st1" d="M350.5,207.6c0.8,0,1.5,0.7,1.5,1.5c-0.1,2.9-0.1,5.7-0.2,8.4c-0.6,0.1-1.1,0.2-1.7,0.2c-0.4,0-0.9,0-1.3-0.1
		c0.1-2.8,0.1-5.6,0.2-8.6C349,208.2,349.7,207.6,350.5,207.6z"/>
	<path class="st1" d="M344.3,766.1c0.1,0.2,0.1,0.4,0.1,0.6c0,0.6-0.1,1.1-0.1,1.7c-0.8-0.9-1.6-1.9-2.4-2.9
		c0.3-0.3,0.7-0.4,1.1-0.4C343.6,765.2,344.1,765.6,344.3,766.1z"/>
	<path class="st1" d="M335.9,452.1l1.2,1c-7.1,9.2-11.1,19.9-11.2,30.5c-0.1,6.1,1.8,12.6,5.3,17.8l-0.7,0.5
		c-0.1-0.2-0.2-0.4-0.4-0.5c-0.6-0.5-1.6-0.4-2.1,0.2c0,0,0,0.1-0.1,0.1c-3.3-5.5-5.1-12.1-5-18.2c0.1-10.6,3.9-21.3,10.6-30.7
		c0.1,0,0.1,0.1,0.1,0.1c0.2,0.1,0.5,0.2,0.7,0.2c0.5,0,1-0.3,1.3-0.8C335.9,452.3,335.9,452.2,335.9,452.1z"/>
	<path class="st1" d="M335.4,450.5c0.5,0.4,0.7,1,0.5,1.6c0,0.1-0.1,0.2-0.1,0.4c-0.3,0.5-0.8,0.8-1.3,0.8c-0.2,0-0.5-0.1-0.7-0.2
		c-0.1,0-0.1-0.1-0.1-0.1C334.2,452.1,334.8,451.3,335.4,450.5z"/>
	<path class="st1" d="M335.2,450.4c0.1,0,0.1,0.1,0.2,0.1c-0.6,0.8-1.2,1.6-1.8,2.4c-2.2-1.3-4.4-3.2-6.4-5.5
		c-9-10.5-9.1-31.9-6.7-50.1c3.1-8.1,5.4-16.3,7.3-23.1l0.9-3l0.4,0.1c-0.4,1.7-0.9,3.3-1.3,5l-0.2,0.7c-5.4,20.3-9.4,55.2,1.9,68.5
		C331.3,447.6,333.2,449.2,335.2,450.4z"/>
	<path class="st1" d="M334.9,648.2c0.7,6.7,0.5,13.7,0.2,20.4c-0.1,2.3-0.2,4.7-0.2,7.1c0.1,2.1-0.1,4.2-0.4,6.1c0,0,0,0,0-0.1
		c0.1-0.8-0.6-1.5-1.4-1.6c-0.7,0-1.4,0.5-1.5,1.1c0.3-1.8,0.4-3.6,0.3-5.6c0.1-2.5,0.1-4.8,0.2-7.2c0.3-6.9,0.5-13.5-0.2-20
		c-0.9-8.4-5.2-26.1-7-28c-0.1-0.1-0.2-0.1-0.2-0.2c0.7-0.6,1.4-1.4,2.1-2.2C330.3,621.3,334.4,643.7,334.9,648.2z"/>
	<path class="st1" d="M334.5,681.8L334.5,681.8c-0.2,1.3-0.5,2.5-0.8,3.7c-0.1-0.2-0.2-0.3-0.4-0.5c-0.2-0.2-0.3-0.4-0.5-0.6
		c-0.5-0.5-1.3-1.3-1.2-2.9c0-0.1,0-0.2,0-0.3c0.2-0.7,0.8-1.2,1.5-1.1C333.9,680.2,334.5,680.9,334.5,681.8
		C334.5,681.8,334.5,681.8,334.5,681.8z"/>
	<path class="st1" d="M333.3,685c0.1,0.2,0.2,0.3,0.4,0.5c-1.7,5.8-5,10.6-9.9,14.4c-0.6-0.8-1.2-1.6-1.9-2.3
		c5.4-4.1,8.6-9.5,9.6-16.1c-0.1,1.5,0.7,2.3,1.2,2.9C332.9,684.6,333.1,684.8,333.3,685z"/>
	<path class="st1" d="M331.5,261.7c0.8,0.1,1.4,0.9,1.2,1.7l-0.1,0.6c-0.1,0.4-0.1,0.8-0.2,1.1c-0.7,3.1-2.3,5.9-4.9,8.4
		c0,0,0,0,0,0c0.9-2.8,1.4-5.6,1.9-8.6c0.2-0.8,0.4-1.5,0.4-2.3c0,0,0,0,0,0C330.1,262,330.8,261.6,331.5,261.7z"/>
	<path class="st1" d="M332.7,263.5c0.1-0.8-0.4-1.6-1.2-1.7c-0.7-0.1-1.4,0.3-1.7,1c0.3-3.6-0.8-7.6-3.4-12.2
		c-8.7-15.7-5.7-28.3-2.2-43c0.3-1.4,0.7-2.9,1-4.4l0-0.2c2.4-6.3,3.9-10.8,4-14.8c0.1-3.5-1.1-6.6-2.9-9.1l0.3-0.2
		c0.3,0.4,0.7,0.7,1.2,0.7h0c0.8,0,1.4-0.6,1.5-1.3c1.8,2.8,3,6.2,2.9,10.1c-0.1,4.8-2.2,10.4-4.2,15.7c-0.3,1.5-0.7,2.9-1,4.3
		c-3.5,14.6-6.2,26.1,1.9,40.8c3.3,6,4.4,11.4,3.3,16.1c0.1-0.4,0.1-0.8,0.2-1.1L332.7,263.5z"/>
	<path class="st1" d="M332.6,597.6l-0.8,0.6c-0.3-0.3-0.6-0.4-1.1-0.4c-0.5,0-0.9,0.2-1.2,0.6c-3.1-5-3.4-10.9-3.6-16.6
		c-0.1-2-0.2-4-0.4-6c-0.7-7.3-1.2-68.8,2.4-74.1c0.6,1,1.3,2,2,3c-2.2,9.4-2.4,61.6-1.4,70.8c0.2,2.1,0.3,4.1,0.4,6.2
		C329.2,587.5,329.5,593.1,332.6,597.6z"/>
	<path class="st1" d="M332.2,318.1c5.1,18.7,1.4,35.6-3.2,53.1l-0.4-0.1c0.2-0.8-0.2-1.6-1-1.9c-0.4-0.1-0.9,0-1.3,0.2
		c4.5-17.3,7.7-32.9,2.9-50.6c-0.6-2.3-1.4-4.6-2-6.9c-2.2-7-4.4-14.3-4.1-21.8c0.1-4,1.2-8.4,3.4-13.9c0.4-0.9,0.7-1.8,1-2.7
		c0,0,0,0,0,0c2.5-2.5,4.1-5.3,4.9-8.4c-0.7,4.2-1.5,8.2-3.1,12.3c-2.1,5.2-3.1,9.3-3.2,12.9c-0.3,7,1.8,13.7,4,20.8
		C330.9,313.4,331.6,315.8,332.2,318.1z"/>
	<path class="st1" d="M332.3,599.3c0,0.8,0,1.6-0.1,2.4c-0.5-0.5-1-0.9-1.4-1.4c-0.5-0.6-0.9-1.2-1.3-1.8c0.3-0.4,0.7-0.6,1.2-0.6
		c0.4,0,0.8,0.2,1.1,0.4C332.1,598.5,332.3,598.9,332.3,599.3z"/>
	<path class="st1" d="M330.8,600.2c0.4,0.5,0.9,1,1.4,1.4c-0.4,7.9-2.7,13-5.5,16.5c-0.1-0.1-0.2-0.2-0.4-0.2
		c-0.7-0.4-1.6-0.1-2,0.6c-0.3,0.6-0.2,1.3,0.3,1.8c-2.9,2.7-6,4-8.2,5l-0.2,0.1c-4.1,1.8-9.3,2.8-15.6,3.1c-0.7,0-1.3,0.1-2,0.1
		c-0.1-0.4-0.3-0.8-0.5-1.2c-0.2-0.5-0.8-0.9-1.4-0.9l0-0.9c1.2,0,2.5,0,3.7,0c5.9-0.3,10.8-1.2,14.5-2.9l0.2-0.1
		c4.9-2.1,14-6.1,14-23.3c0-0.3,0.1-0.6,0.3-0.9C329.9,599,330.4,599.6,330.8,600.2z"/>
	<path class="st1" d="M329.8,104.7c0.9,3.6,1.4,7.4,1.3,11.2c-0.2,0.6-0.8,1-1.5,0.9c-0.8-0.1-1.4-0.7-1.4-1.5c0,0,0-0.1,0-0.1
		c0.3-3.8,1-7.3,1.6-10.4L329.8,104.7z"/>
	<path class="st1" d="M331.1,115.9c0,0.4,0,0.8,0,1.2c-0.5,5.9-2.7,11.2-6,14.8c-0.2-0.4-0.5-0.7-0.8-1c-0.5-0.6-1.5-0.7-2.1-0.1
		l-0.1-0.1c0.1-0.1,0.1-0.1,0.2-0.2c3.2-3.1,5.3-8.1,5.8-13.6c0-0.5,0-1,0-1.5h0.1c0,0.8,0.6,1.4,1.4,1.5
		C330.2,116.9,330.8,116.5,331.1,115.9z"/>
	<path class="st1" d="M330.6,501.9c0.2,0.5,0.2,1.1-0.2,1.6c-0.1,0.2-0.3,0.6-0.4,1.2c-0.7-0.9-1.4-1.9-2-3c0,0,0-0.1,0.1-0.1
		c0.5-0.6,1.5-0.7,2.1-0.2C330.3,501.5,330.5,501.7,330.6,501.9z"/>
	<path class="st1" d="M329.8,263c0-0.1,0-0.2,0.1-0.3c-0.1,0.8-0.2,1.6-0.4,2.3c0.1-0.5,0.2-1,0.2-1.5L329.8,263z"/>
	<path class="st1" d="M329.8,104.7l0,0.2c-0.6,3.1-1.3,6.6-1.6,10.4c0,0,0,0.1,0,0.1h-0.1c0-8.3-2.5-16.4-7.2-22.9
		c-5.7-7.8-15.8-10.1-23.2-10.6c-11-0.8-22.3,0.6-32.7,4.1c-7.3,2.4-14.3,5.8-21.2,9.2c-5.7,2.8-11.5,5.6-15.8,10.3
		c-2.4,2.6-4.3,6.2-4.8,10l-0.2,0c0-0.1,0-0.3,0-0.4c-0.1-0.8-0.8-1.4-1.6-1.4c-0.3,0-0.6,0.1-1,0.1c0.7-3.6,2.5-7.2,5.3-10.3
		c4.6-5.1,11-8.2,16.7-11c6.9-3.4,14.1-6.9,21.5-9.3c10.8-3.6,22.5-5,33.9-4.2c11.6,0.8,20.3,4.9,25.4,11.8
		C326.3,94.9,328.5,99.6,329.8,104.7z"/>
	<path class="st1" d="M329.4,159.2c0.1,6.4,0.2,12.8,0.1,18.7c0,0.1,0,0.1,0,0.2c-0.9-1.3-1.9-2.5-3-3.6c0-5.2-0.1-10.8-0.2-16.4
		l0.6,0c0,0.5,0.2,0.9,0.6,1.2C328.1,159.7,328.9,159.7,329.4,159.2z"/>
	<path class="st1" d="M329.3,154.6c0,1.6,0.1,3.1,0.1,4.7c-0.5,0.4-1.2,0.5-1.8,0.1c-0.4-0.3-0.6-0.8-0.6-1.2c0-0.3,0.1-0.6,0.2-0.8
		C327.8,156.3,328.5,155.4,329.3,154.6z"/>
	<path class="st1" d="M329.3,153.9c0,0.2,0,0.5,0,0.7c-0.8,0.8-1.5,1.7-2.1,2.7c-0.2,0.3-0.2,0.5-0.2,0.8l-0.6,0
		c0-1.4,0-2.8-0.1-4.2c-0.1-3.3-0.1-6.4-0.2-9.5c-0.3-3.1-1.1-7.3-3.3-10.5c0.5-0.4,1-0.9,1.5-1.3c0.2-0.2,0.5-0.5,0.7-0.7
		c2.2,3,3.6,7.2,4.1,12.3v0.1C329.2,147.4,329.2,150.6,329.3,153.9z"/>
	<path class="st1" d="M329.4,265c-0.5,2.9-1,5.8-1.9,8.6c-9.6,9.5-23,11.2-34.9,12.8c-8.3,1.1-16.2,2.1-21.7,5.6
		c-1.3,0.8-2.5,1.7-3.7,2.6c-0.5-0.2-1-0.3-1.5-0.5c-0.6-0.2-1.3,0.1-1.7,0.6l-0.7-0.9c1.9-1.5,3.9-3,6-4.3c6-3.8,14.2-4.9,22.9-6
		c12-1.6,24.4-3.2,33.2-12C327.5,269.5,328.8,267.3,329.4,265z"/>
	<path class="st1" d="M327.7,369.3c0.8,0.2,1.3,1.1,1,1.9l-0.9,3c-1.9,6.9-4.2,15.1-7.3,23.1c1.1-8.1,2.6-15.6,4.1-21.1l0.2-0.7
		c0.5-2,1.1-4,1.6-6C326.8,369.2,327.2,369.1,327.7,369.3z"/>
	<path class="st1" d="M328.6,719c0.4,8.2-1.1,15.7-2.4,21.3c-0.2,2.7-0.7,5.2-1.5,7.5c0-0.1-0.1-0.3-0.1-0.4c-0.2-0.8-1-1.3-1.8-1
		c-0.5,0.1-0.9,0.5-1,1l0,0c0.8-2.2,1.4-4.7,1.5-7.3l0-0.2c1.9-8.2,2.6-14.4,2.3-20.6c-0.2-4.8-0.7-9.8-2.5-14.2
		c-0.7-1.6-1.6-3.1-2.6-4.4l0.7-0.6c0.3,0.4,0.8,0.6,1.2,0.6c0.3,0,0.6-0.1,0.9-0.3c0.2-0.1,0.3-0.2,0.5-0.4
		c0.8,1.2,1.6,2.5,2.1,3.9C327.8,708.7,328.3,714,328.6,719z"/>
	<path class="st1" d="M329.5,178.1c-0.1,0.7-0.7,1.3-1.5,1.3h0c-0.5,0-1-0.3-1.2-0.7c-0.2-0.2-0.3-0.5-0.3-0.8c0-1.1,0-2.2,0-3.4
		C327.7,175.6,328.7,176.8,329.5,178.1z"/>
	<path class="st1" d="M326.8,178.8l-0.3,0.2c-2.7-3.8-7-6.4-10.9-7.8c-8.5-3.1-18.5-1.6-25.5,3.8c-5.9,4.6-8.9,11.1-8.3,18.5
		c0.4,4.8,1.4,9.8,2.3,14.5c2.1,10.8,4.2,22,0.3,33.2c-2,5.8-6.3,11-12.2,14.8c-7,4.6-16.7,7.8-25.5,7c0.4-0.9,0.6-1.9,0.6-2.9
		c8,0.6,16.8-2.4,23.2-6.6c5.3-3.4,9.2-8.1,11-13.3c3.6-10.5,1.7-20.8-0.4-31.7c-0.9-4.8-1.9-9.8-2.3-14.8c-0.7-8.4,2.6-16,9.4-21.2
		c7.8-6,18.9-7.7,28.4-4.3c3.4,1.2,7,3.3,9.9,6.2c0,1.2,0,2.3,0,3.4C326.5,178.2,326.6,178.5,326.8,178.8z"/>
	<path class="st1" d="M326.7,618.2c-0.7,0.8-1.4,1.5-2.1,2.2c-0.5-0.4-0.6-1.2-0.3-1.8c0.4-0.7,1.3-1,2-0.6
		C326.4,618,326.5,618.1,326.7,618.2z"/>
	<path class="st1" d="M325.8,370.3c0.1-0.4,0.3-0.6,0.6-0.8c-0.5,2-1.1,3.9-1.6,6l-0.2,0.7c-1.5,5.5-3.1,13-4.1,21.1
		c-7.1,18.5-18.2,36.5-38,36.5c-1.2,0-2.4-0.1-3.7-0.2c-7.5-0.8-15.3-3.7-20.6-7.8c-8.2-6.2-10-17.7-9.1-26.4
		c0.7-6.9,4.9-12.3,9.3-18.1c3-3.9,6.1-8,8.4-12.8c2.8-6,2.7-11.8-0.2-17.2c-3.6-6.8-11.6-12.4-21.5-15.4c0.4-0.9,0.6-1.9,0.7-2.9
		c10.8,3.3,19.5,9.4,23.5,16.9c3.3,6.2,3.4,13.1,0.2,19.9c-2.4,5.1-5.6,9.3-8.7,13.4c-4.3,5.6-8,10.5-8.7,16.6
		c-0.9,7.9,0.7,18.2,7.9,23.7c4.9,3.7,12.2,6.5,19.1,7.2c28.9,3.1,39.5-34.7,45.9-57.2L325.8,370.3z"/>
	<path class="st1" d="M325,131.9c-0.2,0.2-0.5,0.5-0.7,0.7c-0.5,0.5-1,0.9-1.5,1.3c-0.3-0.4-0.5-0.8-0.9-1.1
		c-0.6-0.6-0.5-1.6,0.1-2.1c0.6-0.5,1.6-0.5,2.1,0.1C324.5,131.2,324.8,131.6,325,131.9z"/>
	<path class="st1" d="M324.7,747.8c3,11.2,1.8,21.8-3.2,29.7c-0.4-0.5-1-0.7-1.6-0.5c-0.4,0.1-0.7,0.4-0.9,0.8l-1-0.4
		c4.8-6.5,6.4-15.4,4.6-25.1C323.4,750.9,324.1,749.4,324.7,747.8z"/>
	<path class="st1" d="M324.6,747.4c0,0.1,0.1,0.3,0.1,0.4c-0.6,1.6-1.3,3.1-2.1,4.4c-0.2-1.3-0.5-2.7-0.9-4c-0.1-0.3-0.1-0.6,0-0.9
		c0.2-0.5,0.5-0.8,1-1C323.5,746.2,324.3,746.6,324.6,747.4z"/>
	<path class="st1" d="M323.7,700c-0.2,0.1-0.3,0.3-0.5,0.4c-0.3,0.2-0.6,0.3-0.9,0.3c-0.5,0-0.9-0.2-1.2-0.6
		c-0.5-0.7-0.4-1.6,0.3-2.1c0.1-0.1,0.3-0.2,0.4-0.3C322.5,698.4,323.2,699.1,323.7,700z"/>
	<path class="st1" d="M321.7,778c2.2,6.3,2.7,13.1,1.6,20.9l0,0.1c-0.6,2.8-1.6,6.8-4.1,10.8c-2.5,3.9-5.8,7.1-9,8.7
		c-7.4,3.9-16.1,5.8-25.9,5.8c-10.2,0-21.7-2.1-34.3-6.3c-10.6-3.2-21.4-8.8-33.2-17.2c-2.4-1.7-4.8-3.5-7.1-5.3
		c-5.1-3.9-10.3-7.9-16-10.9c-3.4-1.8-6.9-3.4-10.2-4.9c-8.7-4-17-7.7-24-15.9c-5.9-6.9-11-12.5-18.3-16.5c-1.9-1-3.9-2-5.8-3
		c-5.6-2.8-11.4-5.7-16.1-10.1c-9.5-8.9-16.1-26.4-14.9-34.8c0.9,0.7,1.9,1.4,2.8,2c-0.1,8,5.9,22.9,14.1,30.6
		c4.4,4.1,10,6.9,15.4,9.6c1.9,1,3.9,2,5.9,3c7.7,4.2,13,10,19.1,17.2c6.6,7.7,14.6,11.3,23,15.1c3.4,1.5,6.9,3.1,10.4,5
		c5.8,3.1,11.2,7.2,16.4,11.2c2.3,1.8,4.7,3.6,7,5.2c11.5,8.2,22.1,13.7,32.4,16.8c24,7.9,43.5,8.2,58,0.7c2.7-1.3,5.7-4.2,7.9-7.6
		c2.2-3.5,3.2-7.2,3.7-9.7c0.9-6.7,0.6-12.6-1-18c0.8-0.9,1.5-1.9,2.1-2.9C321.6,777.7,321.6,777.8,321.7,778z"/>
	<path class="st1" d="M322,132.9c0.3,0.4,0.6,0.7,0.9,1.1c-7.8,6.3-19.8,6.8-30.4,7.3c-3.6,0.2-7,0.3-10.1,0.7l-0.1-0.7
		c0.8-0.1,1.4-0.8,1.4-1.6c0-0.3-0.1-0.6-0.1-0.8c2.8-0.2,5.7-0.4,8.8-0.5c10.7-0.5,22.9-1,29.8-7.6l0.1,0.1
		C321.5,131.3,321.4,132.3,322,132.9z"/>
	<path class="st1" d="M321.7,748.2c0.4,1.3,0.7,2.7,0.9,4c-1.4,2.2-3,4-5,5.1c-1.7,1-3.6,1.5-5.5,1.5c-1.9,0-3.8-0.5-5.7-1.4
		c-8.5-4-9.3-12.6-10-20.1c-0.2-1.8-0.4-3.6-0.6-5.2c1-0.3,2-0.9,2.8-1.5c0,0.2,0.1,0.3,0.1,0.5c0.3,1.9,0.5,3.9,0.7,5.9
		c0.7,7.4,1.4,14.4,8.3,17.7c3.1,1.5,6,1.5,8.5,0c2.3-1.4,4.3-4,5.6-7.4l0,0C321.6,747.6,321.6,747.9,321.7,748.2z"/>
	<path class="st1" d="M321.8,697.6c-0.1,0.1-0.3,0.2-0.4,0.3c-0.7,0.5-0.8,1.4-0.3,2.1l-0.7,0.6c-7.2-8.8-22.3-9.2-36.5-8.3
		c-8.2,0.7-17.8,2.1-25.7,5.7l-0.6-1.3c0.8-0.3,1.1-1.2,0.9-1.9c0,0,0-0.1,0-0.1c9.5-4,20.1-4.9,25.2-5.4
		C293.5,688.7,312.2,687.6,321.8,697.6z"/>
	<path class="st1" d="M319.8,777.1c0.6-0.2,1.3,0,1.6,0.5c-0.6,1-1.3,2-2.1,2.9c-0.2-0.5-0.3-1-0.5-1.5c-0.1-0.4-0.1-0.8,0.1-1.2
		C319.1,777.5,319.4,777.2,319.8,777.1z"/>
	<path class="st1" d="M318.9,779c0.2,0.5,0.3,1,0.5,1.5c-1,1.3-2.2,2.4-3.4,3.5c-8.7,10-23,15.8-37.9,15.8c-2.5,0-4.9-0.1-7.4-0.5
		c-15.4-2-28.2-11.2-40.5-20.1l-2.1-1.5c-8.2-5.9-16.4-11.5-25.3-15.1c0.5-0.9,0.8-1.8,1-2.9c9.3,3.8,17.7,9.5,26.1,15.6l2.1,1.5
		c12,8.6,24.4,17.6,39.1,19.5c16.5,2.2,33.2-3.5,42.7-14.4l0.2-0.2c1.5-1.3,2.9-2.8,4.1-4.4l1,0.4
		C318.8,778.2,318.7,778.6,318.9,779z"/>
	<path class="st1" d="M298,100.9c4.8,0,8.7,3.9,8.7,8.7c0,4.8-3.9,8.7-8.7,8.7c-4.8,0-8.7-3.9-8.7-8.7c0-0.6,0.1-1.2,0.2-1.8
		c3.4,1.1,6.3,2.4,7.9,3.1c0.8,0.3,1.6,0,2-0.8s0-1.6-0.8-2c-1.9-0.9-4.7-2.1-8-3.2C292.2,102.6,294.9,100.9,298,100.9z"/>
	<path class="st1" d="M301,321.3c6.3,14.4,4.6,32.8-5.2,56.1c-0.8-0.5-1.8-0.9-2.8-1.2c9.3-22.3,11.1-40.4,5.2-53.8
		c-5.2-11.7-16.4-20.4-33.4-25.6c-0.2-0.1-0.3-0.1-0.4-0.2c0.9-0.7,1.9-1.5,2.9-2.2C284.3,300.1,295.7,309.1,301,321.3z"/>
	<path class="st1" d="M298.6,108.2c0.8,0.3,1.1,1.2,0.8,2s-1.2,1.1-2,0.8c-1.6-0.7-4.4-1.9-7.9-3.1c0.2-1,0.6-2,1.1-2.8
		C293.9,106.1,296.7,107.3,298.6,108.2z"/>
	<path class="st1" d="M293,715.3c4.8,0,8.7,3.9,8.7,8.7c0,2.7-1.2,5.1-3.2,6.7c-0.6-3.2-1.8-5.9-3.5-8c-0.5-0.7-1.5-0.8-2.1-0.3
		c-0.6,0.5-0.8,1.5-0.2,2.1c1.5,1.9,2.5,4.3,3,7.2c0,0.2,0,0.3,0.1,0.5c-0.8,0.3-1.7,0.4-2.7,0.4c-4.8,0-8.7-3.9-8.7-8.7
		C284.4,719.1,288.2,715.3,293,715.3z"/>
	<path class="st1" d="M298.7,628.5c2.7,7.1,2.2,17.9-1.5,26.1c-2.7,6.2-6.8,10.3-11.8,11.9c-2.7,0.8-4.9,1-7,1l-0.2,0l-0.2,0
		c-16.2-3.4-32.4-14-45.6-30c-2.7-3.3-5-7.1-7.2-10.8c-1.5-2.5-3-5-4.7-7.4c0.9-0.4,1.8-1,2.5-1.7c1.7,2.5,3.2,5,4.8,7.5
		c2.1,3.5,4.3,7.2,6.9,10.4c12.7,15.4,28.2,25.7,43.7,29c1.9-0.1,3.7-0.2,6-0.9c5.2-1.6,8.3-6.5,9.9-10.2c3.5-7.9,3.9-18.6,1-24.9
		c0,0,0-0.1-0.1-0.1c1,0.1,2,0.1,3,0.1C298.5,628.5,298.6,628.5,298.7,628.5z"/>
	<path class="st1" d="M298.7,628.5c-0.1,0-0.2,0-0.3,0c-1,0-2,0-3-0.1c-0.3-0.7,0.1-1.5,0.8-1.9c0.2-0.1,0.4-0.1,0.6-0.1
		c0.6,0,1.1,0.3,1.4,0.9C298.4,627.7,298.5,628.1,298.7,628.5z"/>
	<path class="st1" d="M295.9,377.5c2.4,1.5,4,4.2,4,7.3c0,4.8-3.9,8.7-8.7,8.7s-8.7-3.9-8.7-8.7s3.9-8.7,8.7-8.7
		c0.7,0,1.3,0.1,1.9,0.2c-1.1,2.5-2.2,5.1-3.5,7.8c-0.4,0.8,0,1.6,0.7,2c0.2,0.1,0.4,0.1,0.6,0.1c0.6,0,1.1-0.3,1.4-0.9
		C293.6,382.7,294.8,380.1,295.9,377.5z"/>
	<path class="st1" d="M296.9,625.5l0,0.9c-0.2,0-0.4,0-0.6,0.1c-0.7,0.3-1,1.1-0.8,1.9c-10.7-0.6-22.2-4.2-31.7-10.1
		c-8.9-5.6-15.1-12.5-18-20c1,0,2-0.3,3-0.7C255.2,613.6,277.3,625,296.9,625.5z"/>
	<path class="st1" d="M291.4,569.5c4,0.7,7.1,4.3,7.1,8.5c0,4.8-3.9,8.7-8.7,8.7c-4.8,0-8.7-3.9-8.7-8.7c0-4.3,3.1-7.8,7.2-8.5
		c-0.3,2.8-0.4,5.7-0.4,8.5c0,0.8,0.7,1.5,1.5,1.5c0,0,0,0,0,0c0.8,0,1.5-0.7,1.5-1.5C290.9,575.2,291.1,572.3,291.4,569.5z"/>
	<path class="st1" d="M298.5,730.7c-0.8,0.7-1.8,1.2-2.8,1.5c0-0.2,0-0.3-0.1-0.5c-0.5-2.9-1.5-5.3-3-7.2c-0.5-0.7-0.4-1.6,0.2-2.1
		c0.7-0.5,1.6-0.4,2.1,0.3C296.7,724.8,297.9,727.5,298.5,730.7z"/>
	<path class="st1" d="M293.1,376.3c1,0.2,1.9,0.6,2.8,1.2c-1.1,2.6-2.2,5.2-3.5,7.9c-0.3,0.5-0.8,0.9-1.4,0.9
		c-0.2,0-0.4-0.1-0.6-0.1c-0.8-0.4-1.1-1.2-0.7-2C290.9,381.5,292,378.9,293.1,376.3z"/>
	<path class="st1" d="M291.9,527.5c3.2,11.1,1.8,22.2,0.5,32.9c-0.4,3-0.8,6-1,9.1c-0.5-0.1-1-0.1-1.6-0.1c-0.5,0-1,0-1.5,0.1
		c0.3-3.2,0.7-6.3,1.1-9.4c1.4-10.9,2.7-21.2-0.4-31.7c-2.3-8-8.5-21.7-23.7-23.9c-13.3-2-28.6,0.1-45.3,6.2
		c-4.1,1.5-8.3,3.4-12.4,5.2c-10.2,4.6-20.9,9.2-32.5,9.1c-12.1-0.2-24.8-6.6-34.7-17.6c-9-9.9-10.9-24.2-11.7-38.1
		c-0.2-3.9-0.7-7.8-1.2-11.9c0.7-0.2,1.2-0.8,1.1-1.6l1.7-0.2c0.6,4.5,1.1,9.2,1.4,13.6c0.7,13.3,2.5,27,10.9,36.2
		c9.4,10.4,21.3,16.4,32.6,16.6c11,0.1,21.3-4.4,31.2-8.9c4.1-1.8,8.4-3.7,12.6-5.2c17.2-6.2,33-8.4,46.8-6.3
		C278.2,503.4,287.5,512.6,291.9,527.5z"/>
	<path class="st1" d="M291.4,569.5c-0.3,2.8-0.4,5.7-0.4,8.5c0,0.8-0.7,1.5-1.5,1.5c0,0,0,0,0,0c-0.8,0-1.5-0.7-1.5-1.5
		c0-2.8,0.2-5.7,0.4-8.5c0.5-0.1,1-0.1,1.5-0.1C290.3,569.4,290.9,569.4,291.4,569.5z"/>
	<path class="st1" d="M284.5,762.6c4.8,0,8.7,3.9,8.7,8.7c0,4.8-3.9,8.7-8.7,8.7c-4.3,0-7.8-3.1-8.5-7.2c0.4,0,0.9,0,1.3,0
		c2.6,0,5-0.1,7.4-0.4c0.8-0.1,1.4-0.8,1.3-1.6c-0.1-0.8-0.8-1.4-1.6-1.3c-2.7,0.3-5.5,0.4-8.4,0.3
		C276.7,765.7,280.2,762.6,284.5,762.6z"/>
	<path class="st1" d="M290.6,105c-0.5,0.8-0.9,1.8-1.1,2.8c-6.2-2.1-14.2-3.9-19.4-1.8c-2.1,0.9-3.5,2.3-4.3,4.5
		c-0.7,1.9-0.2,4.3,1.4,7.4c1.6,2.9,4.4,5.5,7.2,8c4.1,3.7,8.3,7.6,9.2,12.9c-0.6,0.1-1.2,0.1-1.8,0.2c-0.4,0.1-0.8,0.1-1.2,0.2
		c-0.7-4.2-4.4-7.5-8.2-11c-2.9-2.7-6-5.4-7.8-8.8c-2.1-3.9-2.7-7.1-1.6-9.9c1.1-2.9,3.1-5,6-6.2C275,100.8,283.8,102.7,290.6,105z"
		/>
	<path class="st1" d="M282.1,459.1c4.8,0,8.7,3.9,8.7,8.7s-3.9,8.7-8.7,8.7c-3.9,0-7.2-2.6-8.3-6.1c3-0.5,6.1-1.1,9.3-2
		c0.8-0.2,1.3-1,1.1-1.8c-0.2-0.8-1-1.3-1.8-1.1c-3.1,0.8-6.1,1.4-8.9,1.9C273.7,462.7,277.5,459.1,282.1,459.1z"/>
	<path class="st1" d="M286,770.8c0.1,0.8-0.5,1.6-1.3,1.6c-2.3,0.2-4.8,0.4-7.4,0.4c-0.4,0-0.9,0-1.3,0c-0.1-0.5-0.1-1-0.1-1.5
		c0-0.5,0.1-1,0.1-1.5c2.9,0.1,5.7-0.1,8.4-0.3C285.2,769.4,285.9,769.9,286,770.8z"/>
	<path class="st1" d="M284.2,466.4c0.2,0.8-0.3,1.6-1.1,1.8c-3.2,0.8-6.3,1.5-9.3,2c-0.2-0.8-0.4-1.6-0.4-2.5c0-0.1,0-0.3,0-0.5
		c2.9-0.5,5.8-1.1,8.9-1.9C283.2,465.2,284,465.6,284.2,466.4z"/>
	<path class="st1" d="M283.6,139.6c0.1,0.8-0.5,1.6-1.4,1.6c-0.1,0-0.1,0-0.1,0c-0.8,0-1.4-0.6-1.5-1.4c0-0.3-0.1-0.5-0.1-0.8
		c0.4-0.1,0.8-0.1,1.2-0.2c0.6-0.1,1.2-0.1,1.8-0.2C283.5,139.1,283.6,139.3,283.6,139.6z"/>
	<path class="st1" d="M282.2,141.2l0.1,0.7c-0.1,0-0.1,0-0.2,0c-1.3,0.1-2.5,0.4-3.7,0.6c-24,5-42.3,31.8-43.7,52.8
		c-0.4,5.9,0.4,15.4,7.7,21.6c-0.6,0.8-1.1,1.7-1.4,2.7c-6.7-5.4-10-13.9-9.4-24.5c1.4-22.1,20.7-50.3,46.1-55.6
		c0.9-0.2,1.8-0.3,2.7-0.5c0,0.2,0.1,0.5,0.1,0.8c0.1,0.8,0.7,1.4,1.5,1.4C282.2,141.3,282.2,141.3,282.2,141.2z"/>
	<path class="st1" d="M276,769.8c-0.1,0.5-0.1,1-0.1,1.5c0,0.5,0,1,0.1,1.5c-14.6-0.2-31.9-4.7-41.8-16.9c-1.8-2.2-2.9-4.7-4.1-7.1
		c-1.1-2.4-2.1-4.6-3.7-6.5c-3.8-4.6-11-5.5-16.4-5.5c-14.8,0.2-34.2-0.6-53.7-8.4c-14.3-5.7-27.8-13.7-39-20.7
		c-1.2-0.8-2.4-1.5-3.7-2.3c-2.2-1.3-4.4-2.7-6.6-4.1c0-0.7,0.1-1.3,0.2-1.8c0.1-0.5-0.1-1.1-0.5-1.4l0.3-0.5
		c2.6,1.8,5.3,3.5,8.2,5.2c1.2,0.8,2.5,1.5,3.7,2.3c11.1,7,24.4,14.9,38.5,20.5c14.8,5.9,31,8.4,52.5,8.1c6-0.1,14.2,1,18.7,6.6
		c1.8,2.2,3,4.7,4.1,7.1c1.1,2.3,2.1,4.5,3.7,6.5C245.3,764.8,261.5,769.5,276,769.8z"/>
	<path class="st1" d="M273.5,467.3c0,0.2,0,0.3,0,0.5c0,0.9,0.1,1.7,0.4,2.5c-4.9,0.8-9.5,1.2-13.7,1.2c-34.3,0-47.8-24.5-53.1-41.1
		c-2.3-7.3-3.3-13.6-3.1-19.4c0.1-1.7,0.3-3.4,0.6-5.1c2.6-4.2,4.5-8.3,6.1-12c0.1-0.1,0.1-0.2,0.1-0.3l0.2,0.1
		c-0.1,0.3-0.2,0.6-0.3,0.8c-1.8,5.8-3.6,11.3-3.8,16.6c-0.2,5.4,0.8,11.4,3,18.4C215.5,447.1,231.1,474.3,273.5,467.3z"/>
	<path class="st1" d="M265.8,732.4c4.8,0,8.7,3.9,8.7,8.7c0,4.8-3.9,8.7-8.7,8.7c-4.8,0-8.7-3.9-8.7-8.7c0-0.9,0.1-1.8,0.4-2.6
		c2.5,1,4.9,2.1,7,3.7c0.7,0.5,1.6,0.4,2.1-0.3c0.5-0.7,0.4-1.6-0.3-2.1c-2.3-1.7-4.8-2.9-7.4-4C260.5,733.8,263,732.4,265.8,732.4z
		"/>
	<path class="st1" d="M265.7,294.1c0.5,0.2,1,0.3,1.5,0.5c-1,0.7-1.9,1.4-2.9,2.2c-0.5-0.4-0.8-1-0.6-1.7c0-0.2,0.1-0.3,0.2-0.4
		C264.5,294.1,265.1,293.9,265.7,294.1z"/>
	<path class="st1" d="M266.3,739.8c0.7,0.5,0.8,1.4,0.3,2.1c-0.5,0.7-1.4,0.8-2.1,0.3c-2-1.6-4.5-2.7-7-3.7c0.3-1,0.8-1.9,1.4-2.7
		C261.5,736.9,264,738.1,266.3,739.8z"/>
	<path class="st1" d="M264.4,296.7c0,0-0.1,0.1-0.1,0.1c-2.3,1.7-4.6,3.5-7.1,5.1c-8,5.1-17.4,7.7-26.8,7.7c-4,0-7.9-0.5-11.8-1.4
		c0.5-0.9,0.8-1.9,0.9-2.9c12.2,2.8,25.6,0.7,36.1-6c2.4-1.5,4.6-3.2,6.8-4.9c0.3-0.2,0.6-0.5,0.9-0.7l0.7,0.9
		c-0.1,0.1-0.2,0.3-0.2,0.4C263.7,295.7,263.9,296.4,264.4,296.7z"/>
	<path class="st1" d="M253.1,538.9c4.8,0,8.7,3.9,8.7,8.7c0,4.8-3.9,8.7-8.7,8.7c-4.8,0-8.7-3.9-8.7-8.7c0-0.9,0.1-1.8,0.4-2.6
		c2.5,0.9,5,2.2,7.4,3.8c0.7,0.5,1.6,0.3,2.1-0.4c0.5-0.7,0.3-1.6-0.4-2.1c-2.5-1.7-5.1-3-7.7-3.9
		C247.8,540.2,250.3,538.9,253.1,538.9z"/>
	<path class="st1" d="M258.5,694.8c0.3,0.8-0.1,1.6-0.9,1.9c-0.2,0.1-0.4,0.1-0.5,0.1c-0.6,0-1.1-0.3-1.4-0.9
		C256.6,695.5,257.6,695.1,258.5,694.8C258.5,694.7,258.5,694.8,258.5,694.8z"/>
	<path class="st1" d="M257.6,696.7l0.6,1.3c-7.3,3.3-13.1,8.6-14.6,17c-0.1,0.6-0.2,1.2-0.3,1.7c-0.3,2.1-0.3,4.5,0.1,7
		c1.1,6.7,6.4,8.7,12.6,11c0.9,0.4,1.9,0.7,2.8,1.1c-0.6,0.8-1.1,1.7-1.4,2.7c-0.8-0.3-1.7-0.7-2.5-1c-6.4-2.4-13.1-4.9-14.5-13.3
		c-0.5-2.8-0.5-5.5-0.1-8c0.1-0.6,0.2-1.3,0.4-1.9c1.6-9.1,7.7-14.8,15-18.4c0.2,0.5,0.8,0.9,1.4,0.9
		C257.3,696.8,257.5,696.8,257.6,696.7z"/>
	<path class="st1" d="M254,686.6c1.7,2,3.1,4.5,4.5,8.1c-0.9,0.4-1.8,0.8-2.7,1.2c0,0,0-0.1,0-0.1c-1.3-3.4-2.5-5.6-4-7.4
		c-3.8-4.5-10.8-7.7-18.4-8.5c-4.9-0.5-10.1,0-16.1,1.5c-1.4,0.4-2.9,0.8-4.2,1.3c-3.3,1-6.8,2.1-10.5,2.3c-7.8,0.3-14.7-3.2-19-6.2
		c-5.3-3.6-13.4-9.8-18.1-17.1c1-0.2,1.9-0.6,2.8-1.2c4.5,6.6,12,12.5,17,15.8c4,2.7,10.3,5.9,17.2,5.7c3.3-0.1,6.4-1.1,9.7-2.1
		c1.4-0.4,2.9-0.9,4.4-1.3c6.3-1.6,11.9-2.2,17.1-1.6C242,677.9,249.7,681.5,254,686.6z"/>
	<path class="st1" d="M249.5,213.4c4.8,0,8.7,3.9,8.7,8.7s-3.9,8.7-8.7,8.7s-8.7-3.9-8.7-8.7c0-0.8,0.1-1.6,0.3-2.4
		c2.3,1.8,4.9,3.3,8,4.3c0.8,0.3,1.6-0.1,1.9-0.9c0.3-0.8-0.1-1.6-0.9-1.9c-3.1-1.1-5.6-2.5-7.6-4.2
		C244.1,214.8,246.6,213.4,249.5,213.4z"/>
	<path class="st1" d="M253.9,546.2c0.7,0.5,0.9,1.4,0.4,2.1c-0.4,0.7-1.4,0.9-2.1,0.4c-2.4-1.6-4.9-2.8-7.4-3.8
		c0.3-1,0.8-1.9,1.4-2.7C248.8,543.2,251.4,544.5,253.9,546.2z"/>
	<path class="st1" d="M245.3,581.1c4.8,0,8.7,3.9,8.7,8.7c0,3.6-2.2,6.7-5.3,8c-1.1-2.6-1.7-5.3-1.9-8.1c0-0.8-0.8-1.5-1.6-1.4
		c-0.8,0.1-1.5,0.8-1.4,1.6c0.2,2.9,0.8,5.8,1.9,8.6c-0.1,0-0.2,0-0.4,0c-4.8,0-8.7-3.9-8.7-8.7C236.6,585,240.5,581.1,245.3,581.1z
		"/>
	<path class="st1" d="M250.1,221.2c0.8,0.3,1.2,1.1,0.9,1.9c-0.3,0.8-1.1,1.2-1.9,0.9c-3-1.1-5.7-2.5-8-4.3c0.3-1,0.8-1.9,1.4-2.7
		C244.5,218.6,247,220.1,250.1,221.2z"/>
	<path class="st1" d="M247.3,259.9c0,0.1,0,0.2,0,0.2c-2.9-0.2-5.7-1-8.2-2.3c-0.7-0.4-1.6-0.1-2,0.6c-0.4,0.7-0.1,1.6,0.6,2
		c2.8,1.5,5.9,2.3,9,2.6c-1.3,3.2-4.4,5.5-8,5.5c-4.8,0-8.7-3.9-8.7-8.7c0-4.8,3.9-8.7,8.7-8.7C243.5,251.2,247.3,255.1,247.3,259.9
		z"/>
	<path class="st1" d="M246.8,589.7c0.2,2.8,0.8,5.5,1.9,8.1c-0.9,0.4-1.9,0.6-3,0.7c-1.1-2.8-1.7-5.7-1.9-8.6
		c-0.1-0.8,0.6-1.5,1.4-1.6C246,588.2,246.7,588.8,246.8,589.7z"/>
	<path class="st1" d="M247.3,260.2c0,1-0.2,2-0.6,2.9c-3.2-0.3-6.2-1.1-9-2.6c-0.7-0.4-1-1.3-0.6-2c0.4-0.7,1.3-1,2-0.6
		C241.6,259.2,244.4,259.9,247.3,260.2z"/>
	<path class="st1" d="M245.7,332.4c0,0.1,0,0.3,0,0.4c-2.7-0.8-5.5-1.5-8.4-1.9c-0.8-0.1-1.6,0.4-1.7,1.3c-0.1,0.8,0.4,1.6,1.2,1.7
		c2.9,0.4,5.6,1.1,8.2,1.9c-1.3,3.1-4.4,5.3-8,5.3c-4.8,0-8.7-3.9-8.7-8.7c0-4.8,3.9-8.7,8.7-8.7S245.7,327.7,245.7,332.4z"/>
	<path class="st1" d="M245.7,332.9c-0.1,1-0.3,2-0.7,2.9c-2.6-0.8-5.4-1.4-8.2-1.9c-0.8-0.1-1.4-0.9-1.2-1.7
		c0.1-0.8,0.9-1.4,1.7-1.3C240.2,331.4,243,332,245.7,332.9z"/>
	<path class="st1" d="M246.2,542.3c-0.6,0.8-1.1,1.7-1.4,2.7c-5.4-1.9-11-2.2-16.7-0.9c-19.9,4.7-37.1,28.3-48.1,47.4
		c-0.2-1.5-0.5-2.9-0.9-4.4c11.3-19,28.4-41.2,48.3-45.9C233.9,539.6,240.1,540,246.2,542.3z"/>
	<path class="st1" d="M231.3,131.1c3.7,4.3,5.1,8.8,3.9,12.6c-1.3,4.1-5.1,6.5-8.5,8.6l-0.6,0.3c-17.2,10.7-34.5,29.9-26.3,49.2
		c1.1,2.5,2.4,5,3.8,7.4c1.2,2.2,2.5,4.6,3.6,7c5.3,11.8,5.3,25.9,0.1,39.5c-3.3,8.7-9.2,15-15,21.1c-2.4,2.6-4.9,5.2-7.2,8
		c-5.8,7.3-7.5,22-5.2,43.6c-0.6-0.9-1.2-1.7-1.9-2.5c-0.5-0.6-1-1.2-1.6-1.7c-1.7-20.2,0.3-33.7,6.3-41.2c2.4-2.9,4.9-5.6,7.3-8.2
		c5.8-6.2,11.3-12,14.4-20.1c4.9-12.9,4.9-26.1,0-37.2c-1-2.3-2.3-4.6-3.5-6.8c-1.4-2.5-2.8-5-3.9-7.7c-8.9-21,9.2-41.7,27.5-53
		l0.6-0.3c3.1-1.9,6.2-3.8,7.2-6.9c1.2-3.8-1.6-7.8-3.4-9.8c-0.7-0.8-1.4-1.6-2.2-2.4c-2.1-2.3-4.3-4.6-5.6-7.7
		c-0.8-1.9-1.2-4.1-1.1-6.2c0.5-0.1,1.1-0.1,1.6-0.2c0.7-0.1,1.2-0.6,1.3-1.2l0.2,0c-0.3,2.2-0.1,4.3,0.8,6.4c1.1,2.5,3,4.6,5,6.8
		C229.8,129.4,230.6,130.2,231.3,131.1z"/>
	<path class="st1" d="M217,602.9c4.8,0,8.7,3.9,8.7,8.7c0,2.4-1,4.6-2.6,6.1c-1.8-2.6-3.9-5.1-6.3-7.2c-0.6-0.5-1.6-0.5-2.1,0.1
		s-0.5,1.6,0.1,2.1c2.2,2,4.1,4.3,5.8,6.7c-1.1,0.5-2.3,0.8-3.6,0.8c-4.8,0-8.7-3.9-8.7-8.7C208.4,606.8,212.2,602.9,217,602.9z"/>
	<path class="st1" d="M216.9,610.5c2.4,2.1,4.5,4.6,6.3,7.2c-0.7,0.7-1.5,1.3-2.5,1.7c-1.7-2.5-3.6-4.8-5.8-6.7
		c-0.6-0.5-0.7-1.5-0.1-2.1S216.2,609.9,216.9,610.5z"/>
	<path class="st1" d="M223,115c0,0.1,0,0.3,0,0.4c-0.1,0.6-0.7,1.1-1.3,1.2c-0.5,0.1-1.1,0.1-1.6,0.2c0-1,0.1-2,0.3-3.1
		c0.3,0,0.6-0.1,1-0.1C222.2,113.5,223,114.1,223,115z"/>
	<path class="st1" d="M220.4,113.7c-0.2,1-0.3,2.1-0.3,3.1c-10.1,1.2-19.8,5.4-27.4,11.8c-2.6,2.2-5.1,4.8-7.5,7.2
		c-3,3.1-6.1,6.3-9.6,8.9c-1.9,1.4-3.8,2.7-5.7,3.9c-4.2,2.7-8.1,5.3-10.8,9.1c-2.4,3.3-3.6,7.2-4.9,11.3c-0.9,3-1.9,6.1-3.3,8.9
		c-2.9,5.8-7.7,10.4-12.2,14.8c-2.8,2.7-5.7,5.5-8.1,8.6c-5.6,7.1-8.9,15.7-12,24.1c-2.8,7.5-5.8,15.2-6.6,24.4
		c-0.5,5.5-0.1,11.8,1.1,17.1c-0.9,0.5-1.8,1.1-2.7,1.6c-1.4-5.8-2-12.9-1.4-19c0.9-9.6,3.9-17.5,6.8-25.2
		c3.2-8.6,6.6-17.5,12.5-24.9c2.5-3.2,5.5-6.1,8.4-8.8c4.6-4.4,8.9-8.6,11.6-14c1.3-2.7,2.2-5.6,3.1-8.5c1.3-4.2,2.6-8.5,5.3-12.2
		c3.1-4.2,7.4-7.1,11.7-9.8c1.9-1.2,3.8-2.5,5.5-3.8c3.3-2.6,6.3-5.6,9.3-8.7c2.4-2.5,5-5.1,7.7-7.5
		C199,119.3,209.5,114.9,220.4,113.7z"/>
	<path class="st1" d="M213.4,700.9c4.8,0,8.7,3.9,8.7,8.7c0,4.8-3.9,8.7-8.7,8.7c-2.6,0-5-1.2-6.6-3.1c2.8-0.9,5.4-2.4,7.6-4.5
		c0.6-0.6,0.6-1.5,0.1-2.1c-0.6-0.6-1.5-0.6-2.1-0.1c-2.2,2-4.6,3.3-7.1,4c-0.3-0.9-0.5-1.9-0.5-2.9
		C204.7,704.8,208.6,700.9,213.4,700.9z"/>
	<path class="st1" d="M219.6,304.2c0,0.4,0,0.8-0.1,1.2c-2.7-0.6-5.4-1.5-8-2.6c-0.8-0.3-1.6,0-2,0.8c-0.3,0.8,0,1.6,0.8,2
		c2.7,1.2,5.4,2.1,8.3,2.8c-1.4,2.7-4.3,4.6-7.6,4.6c-4.8,0-8.7-3.9-8.7-8.7s3.9-8.7,8.7-8.7S219.6,299.4,219.6,304.2z"/>
	<path class="st1" d="M219.5,305.3c-0.1,1-0.5,2-0.9,2.9c-2.8-0.7-5.6-1.6-8.3-2.8c-0.8-0.3-1.1-1.2-0.8-2c0.3-0.8,1.2-1.1,2-0.8
		C214.1,303.8,216.8,304.7,219.5,305.3z"/>
	<path class="st1" d="M214.5,708.6c0.6,0.6,0.5,1.6-0.1,2.1c-2.3,2.1-4.8,3.6-7.6,4.5c-0.7-0.8-1.2-1.7-1.6-2.7c2.5-0.7,4.9-2,7.1-4
		C213,707.9,213.9,708,214.5,708.6z"/>
	<path class="st1" d="M213.9,369.6c2,7.9-0.4,16.1-3,24.1l-0.2-0.1c0.1-0.7-0.2-1.4-0.9-1.7c-0.5-0.2-1.1-0.1-1.6,0.2
		c2.3-7.4,4.5-14.9,2.7-21.8c-1.9-7.4-8.1-12.3-14.6-17.4c-4-3.2-8.2-6.4-11.2-10.4c-1.8-2.3-3.1-4.8-4.5-7.2
		c-1.1-1.9-2.1-3.7-3.2-5.4c0.3,0.3,0.7,0.5,1.1,0.5c0.1,0,0.1,0,0.2,0c0.8-0.1,1.4-0.8,1.3-1.6c0-0.1,0-0.3,0-0.4
		c1.2,1.8,2.3,3.7,3.3,5.5c1.3,2.3,2.7,4.7,4.3,6.8c2.8,3.6,6.6,6.6,10.7,9.8C204.9,355.8,211.8,361.1,213.9,369.6z"/>
	<path class="st1" d="M209.9,391.9c0.7,0.3,1,1,0.9,1.7c0,0.1-0.1,0.2-0.1,0.3c-1.6,3.7-3.6,7.8-6.1,12c0.7-4.1,2-8.3,3.3-12.3
		c0.2-0.5,0.3-1,0.5-1.5C208.7,391.8,209.3,391.7,209.9,391.9z"/>
	<path class="st1" d="M202.5,476.4c4.8,0,8.7,3.9,8.7,8.7c0,4.8-3.9,8.7-8.7,8.7c-4.8,0-8.7-3.9-8.7-8.7c0-0.5,0-1,0.1-1.5
		c1.5,0.5,2.9,1,4.3,1.4c1.4,0.4,2.7,0.8,3.9,1.3c0.8,0.3,1.6-0.2,1.9-1c0.3-0.8-0.2-1.6-1-1.9c-1.3-0.4-2.6-0.8-3.9-1.3
		c-1.4-0.4-2.8-0.9-4.2-1.4C196.4,478.1,199.2,476.4,202.5,476.4z"/>
	<path class="st1" d="M208.3,392.1c-0.2,0.5-0.3,1-0.5,1.5c-1.3,4-2.6,8.2-3.3,12.3c-1.4,2.2-2.9,4.5-4.6,6.8
		c-6.7,8.2-17.6,13.9-27.3,14.4c-0.3-1-0.7-2-1.2-2.9c0.1,0,0.2,0,0.3,0c9.1-0.2,19.5-5.6,25.9-13.3c4.8-6.1,7.9-12.6,10.4-18.1
		C208,392.5,208.1,392.3,208.3,392.1z"/>
	<path class="st1" d="M200.2,139.2c4.8,0,8.7,3.9,8.7,8.7c0,4.8-3.9,8.7-8.7,8.7c-1.3,0-2.5-0.3-3.6-0.8c2-2.1,3.7-4.4,4.9-7.3
		c0.3-0.8,0-1.6-0.8-2c-0.8-0.3-1.7,0-2,0.8c-1.1,2.7-2.8,4.9-4.7,6.8c-1.6-1.6-2.6-3.8-2.6-6.2C191.5,143,195.4,139.2,200.2,139.2z
		"/>
	<path class="st1" d="M200.2,642.9c4.8,0,8.7,3.9,8.7,8.7s-3.9,8.7-8.7,8.7c-4.8,0-8.6-3.9-8.6-8.7c0-1.9,0.6-3.7,1.7-5.2
		c1.8,2,3.7,4.1,5.9,6.2c0.3,0.3,0.7,0.4,1,0.4c0.4,0,0.8-0.2,1.1-0.5c0.6-0.6,0.6-1.5,0-2.1c-2.2-2.1-4.1-4.2-5.8-6.1
		C196.7,643.5,198.4,642.9,200.2,642.9z"/>
	<path class="st1" d="M205.3,712.5c0.3,1,0.9,1.9,1.6,2.7c-2.1,0.7-4.3,1-6.7,1c-5.3,0-11.3-1.7-17.9-5.1c-2.6-1.3-5.2-2.6-7.9-3.9
		c-9.8-4.8-20-9.8-28-17.5c-1.6-1.6-3.1-3.3-4.6-5.1c0.7-0.1,1.3-0.6,1.4-1.3c0.1-0.3,0-0.7-0.2-1l0.6-0.4c1.5,2,3.1,3.9,4.9,5.6
		c7.6,7.4,17.6,12.2,27.2,16.9c2.6,1.3,5.3,2.6,7.9,4C189.9,711.7,198,714.5,205.3,712.5z"/>
	<path class="st1" d="M203.1,483.4c0.8,0.3,1.2,1.1,1,1.9c-0.3,0.8-1.1,1.2-1.9,1c-1.2-0.4-2.6-0.8-3.9-1.3
		c-1.4-0.4-2.9-0.9-4.3-1.4c0.2-1,0.5-2,1-2.8c1.4,0.5,2.9,0.9,4.2,1.4C200.5,482.5,201.9,483,203.1,483.4z"/>
	<path class="st1" d="M203.8,758.4c0,0.4,0,0.8-0.1,1.3c-2.6-1.1-5.4-2-8.2-2.7c-0.8-0.2-1.6,0.3-1.8,1.1c-0.2,0.8,0.3,1.6,1.1,1.8
		c2.7,0.7,5.4,1.6,8,2.7c-1.5,2.7-4.3,4.5-7.6,4.5c-4.8,0-8.7-3.9-8.7-8.7c0-4.8,3.9-8.7,8.7-8.7S203.8,753.6,203.8,758.4z"/>
	<path class="st1" d="M203.7,759.7c-0.1,1-0.5,2-1,2.9c-2.6-1.1-5.2-2-8-2.7c-0.8-0.2-1.3-1-1.1-1.8c0.2-0.8,1-1.3,1.8-1.1
		C198.3,757.7,201.1,758.6,203.7,759.7z"/>
	<path class="st1" d="M200.8,146.4c0.8,0.3,1.1,1.2,0.8,2c-1.2,2.9-3,5.3-4.9,7.3c-0.9-0.4-1.8-1-2.5-1.7c1.9-1.9,3.5-4.1,4.7-6.8
		C199.1,146.5,200,146.1,200.8,146.4z"/>
	<path class="st1" d="M201.2,650.5c0.6,0.6,0.6,1.5,0,2.1c-0.3,0.3-0.7,0.5-1.1,0.5c-0.4,0-0.8-0.1-1-0.4c-2.2-2.1-4.2-4.2-5.9-6.2
		c0.6-0.8,1.3-1.5,2.2-2.1C197.1,646.3,199,648.4,201.2,650.5z"/>
	<path class="st1" d="M196.6,155.7c-3.4,3.6-7.6,6.1-10.9,8.1c-2.2,1.3-4.1,2.5-5.2,3.6c-6.7,6.4-10.1,15.6-13.5,24.4
		c-0.9,2.4-1.9,4.9-2.9,7.4c-3.5,8.4-8.9,16.4-16.8,24.7c-0.6-0.8-1.3-1.5-2.1-2.1c7.6-8,12.8-15.6,16.1-23.7c1-2.4,1.9-4.9,2.8-7.3
		c3.5-9.2,7-18.6,14.2-25.5c1.4-1.3,3.4-2.5,5.8-4c3.2-1.9,6.9-4.2,10-7.2C194.8,154.7,195.7,155.3,196.6,155.7z"/>
	<path class="st1" d="M195.4,644.4c-0.8,0.6-1.6,1.3-2.2,2.1c-12.1-13.8-14.2-24.5-14.6-33.3c-0.1-1.1-0.1-2.3-0.1-3.4
		c-0.2-6.2-0.5-12.6-1.6-18.6l0.2,0c0.1,0.5,0.3,0.9,0.7,1.1c0.2,0.1,0.5,0.2,0.8,0.2c0.5,0,1-0.3,1.3-0.8c0-0.1,0.1-0.1,0.1-0.2
		c1,5.9,1.2,12.1,1.4,18.1c0.1,1.1,0.1,2.3,0.1,3.4C182,621.2,184,631.3,195.4,644.4z"/>
	<path class="st1" d="M194.9,480.7c-0.5,0.9-0.8,1.8-1,2.8c-10-3.3-20.9-7.9-24.8-18.2c-2.6-6.8-1.2-13.4,0.1-19.9
		c1.1-5.3,2.1-10.3,1.1-15.4c-0.2-1.2-0.6-2.4-1.1-3.6l1.2-0.3c0.2,0.5,0.8,0.9,1.4,0.9c0,0,0,0,0,0c0.3,0,0.6,0,0.9,0
		c0.3,0.8,0.5,1.6,0.6,2.4c1.1,5.6,0,11.2-1.1,16.6c-1.2,6.3-2.4,12.3-0.2,18.2C175.3,473.4,185.5,477.6,194.9,480.7z"/>
	<path class="st1" d="M174.9,222.1c4.8,0,8.7,3.9,8.7,8.7c0,4.8-3.9,8.7-8.7,8.7c-1.3,0-2.6-0.3-3.7-0.8c1.9-2.2,3.5-4.6,5-7.1
		c0.4-0.7,0.2-1.6-0.5-2c-0.7-0.4-1.6-0.2-2.1,0.5c-1.4,2.4-3.1,4.7-4.9,6.9c-1.5-1.6-2.5-3.7-2.5-6.1
		C166.2,225.9,170.1,222.1,174.9,222.1z"/>
	<path class="st1" d="M174.2,375c4.8,0,8.7,3.9,8.7,8.7s-3.9,8.7-8.7,8.7c-4.8,0-8.7-3.9-8.7-8.7c0-1.8,0.6-3.6,1.6-5
		c1.9,1.8,3.9,3.8,6,6c0.3,0.3,0.7,0.5,1.1,0.5c0.4,0,0.7-0.1,1-0.4c0.6-0.6,0.6-1.5,0.1-2.1c-2.1-2.2-4.1-4.2-6.1-6.1
		C170.6,375.6,172.3,375,174.2,375z"/>
	<path class="st1" d="M180.1,591.4c0,0.1-0.1,0.1-0.1,0.2c-0.3,0.5-0.8,0.8-1.3,0.8c-0.2,0-0.5-0.1-0.8-0.2
		c-0.4-0.2-0.7-0.7-0.7-1.1c0-0.3,0-0.6,0.2-0.9c0.6-1,1.2-2,1.8-3.1C179.5,588.5,179.8,589.9,180.1,591.4z"/>
	<path class="st1" d="M180,328.9c0.1,0.8-0.5,1.6-1.3,1.6c-0.1,0-0.1,0-0.2,0c-0.4,0-0.8-0.2-1.1-0.5c-0.1-0.1-0.2-0.2-0.2-0.4
		c-0.1-0.1-0.1-0.3-0.1-0.5c-0.2-1.7-0.3-3.3-0.5-4.9c0.6,0.5,1.1,1.1,1.6,1.7c0.7,0.8,1.3,1.6,1.9,2.5
		C180,328.6,180,328.7,180,328.9z"/>
	<path class="st1" d="M179.2,587c-0.6,1-1.2,2.1-1.8,3.1c-0.2,0.3-0.2,0.6-0.2,0.9l-0.2,0c-1.3-7.2-3.9-13.9-9.1-19.5
		c-10.5-11.1-25.6-16.4-38.9-20.5c-10.4-3.2-19.8-7.7-27.9-13.4c-0.6-0.4-1.2-0.8-1.8-1.3c0.1-0.1,0.2-0.2,0.3-0.3
		c0.5-0.6,0.4-1.6-0.2-2.1c-0.3-0.2-0.6-0.3-0.9-0.3l1.1-0.8c1.2,0.9,2.4,1.7,3.4,2.4c7.8,5.5,16.9,9.8,27.1,13
		c13.7,4.2,29.3,9.7,40.2,21.3C174.9,574.7,177.6,580.7,179.2,587z"/>
	<path class="st1" d="M177.1,329.7c0.1,0.1,0.2,0.2,0.2,0.4C177.3,329.9,177.2,329.8,177.1,329.7z"/>
	<path class="st1" d="M177,329.2c0,0.2,0.1,0.3,0.1,0.5c-0.4-0.6-0.9-1.2-1.4-1.8c-4.2-5.1-10.9-8.3-17.9-8.5
		c-3.8-0.2-7.2,1-10.9,2.2c-0.8,0.2-1.5,0.5-2.3,0.8c0,0,0,0,0-0.1c0-1-0.2-2-0.5-2.9c0.6-0.2,1.2-0.4,1.9-0.6
		c3.8-1.2,7.7-2.5,12-2.4c7,0.3,13.8,3.2,18.5,7.9C176.7,325.9,176.8,327.5,177,329.2z"/>
	<path class="st1" d="M175.7,229.4c0.7,0.4,0.9,1.3,0.5,2c-1.5,2.5-3.1,4.8-5,7.1c-0.9-0.4-1.8-1-2.5-1.7c1.8-2.2,3.5-4.5,4.9-6.9
		C174,229.2,175,229,175.7,229.4z"/>
	<path class="st1" d="M175.3,382.6c0.6,0.6,0.5,1.6-0.1,2.1c-0.3,0.3-0.7,0.4-1,0.4c-0.4,0-0.8-0.2-1.1-0.5c-2.1-2.2-4.1-4.2-6-6
		c0.6-0.8,1.3-1.5,2.1-2.1C171.2,378.4,173.2,380.4,175.3,382.6z"/>
	<path class="st1" d="M172.5,427.1c-0.3,0-0.6,0-0.9,0c0,0,0,0,0,0c-0.6,0-1.1-0.4-1.4-0.9c-0.1-0.2-0.1-0.4-0.1-0.6
		c0-0.7,0.5-1.3,1.1-1.5C171.8,425.1,172.2,426.1,172.5,427.1z"/>
	<path class="st1" d="M170.3,426.2l-1.2,0.3c-3.6-8.3-13.8-16.6-22.8-17.8c-4.2-0.6-10,0.2-13.6,7.4c-5.9,11.9-4.2,25.8-2.5,39.2
		c0,0.1,0,0.3,0.1,0.4l-1.7,0.2c-0.1-0.8-0.7-1.4-1.5-1.4c-1.7-13.5-3.2-27.4,2.9-39.8c3.4-6.8,9.3-10,16.6-9
		c9.6,1.3,20.1,9.5,24.6,18.4c-0.7,0.2-1.2,0.8-1.1,1.5C170.1,425.9,170.2,426,170.3,426.2z"/>
	<path class="st1" d="M163.3,644.7c4.8,0,8.7,3.9,8.7,8.7c0,3-1.5,5.7-3.9,7.2c-1.6-2.4-2.9-5-3.4-7.5c-0.2-0.8-1-1.3-1.8-1.2
		c-0.8,0.2-1.3,1-1.2,1.8c0.6,2.8,1.8,5.5,3.5,8.1c-0.6,0.1-1.3,0.2-2,0.2c-4.8,0-8.7-3.9-8.7-8.7
		C154.7,648.6,158.6,644.7,163.3,644.7z"/>
	<path class="st1" d="M168.7,236.8c0.7,0.7,1.5,1.3,2.5,1.7c-5.9,7.1-13.6,13.1-22.8,17.6c-5.2,2.6-10.7,4.4-15.9,6.1
		c-6.9,2.2-13.5,4.4-19.6,8.2l-0.4-0.6c0.5-0.3,0.8-1,0.6-1.6c-0.1-0.4-0.2-0.8-0.3-1.2c6.1-3.5,12.5-5.6,18.7-7.6
		c5.1-1.7,10.5-3.4,15.5-5.9C155.8,249.2,163.2,243.5,168.7,236.8z"/>
	<path class="st1" d="M169.2,376.5c-0.8,0.6-1.5,1.3-2.1,2.1c-5.4-5-10.2-8.5-14.6-11.1c0.5-0.2,0.9-0.7,1-1.3
		c0-0.6-0.3-1.2-0.9-1.4l0.2-0.5C157.7,367.1,163.2,370.9,169.2,376.5z"/>
	<path class="st1" d="M168.1,660.6c-0.8,0.5-1.8,1-2.8,1.2c-1.7-2.6-3-5.3-3.5-8.1c-0.2-0.8,0.4-1.6,1.2-1.8
		c0.8-0.2,1.6,0.4,1.8,1.2C165.2,655.6,166.4,658.2,168.1,660.6z"/>
	<path class="st1" d="M151.5,604.3c4.8,0,8.7,3.9,8.7,8.7c0,4.8-3.9,8.7-8.7,8.7c-2.1,0-4-0.8-5.5-2c2.1-2.2,4.4-4,6.8-5.4
		c0.7-0.4,1-1.3,0.6-2c-0.4-0.7-1.3-1-2-0.6c-2.8,1.6-5.2,3.5-7.3,5.6c-0.7-1.3-1.2-2.8-1.2-4.3
		C142.9,608.2,146.8,604.3,151.5,604.3z"/>
	<path class="st1" d="M153.4,612.3c0.4,0.7,0.1,1.6-0.6,2c-2.4,1.4-4.7,3.2-6.8,5.4c-0.8-0.7-1.5-1.5-2-2.3c2.1-2.1,4.5-4.1,7.3-5.6
		C152.1,611.3,153,611.5,153.4,612.3z"/>
	<path class="st1" d="M152.6,364.8c0.5,0.2,0.9,0.8,0.9,1.4c0,0.6-0.4,1.1-1,1.3c-2.1-1.2-4.1-2.2-6-3c1.9,0,3.7,0,5.6,0.1
		C152.2,364.7,152.4,364.8,152.6,364.8z"/>
	<path class="st1" d="M147,276.6c4.8,0,8.7,3.9,8.7,8.7c0,4.8-3.9,8.7-8.7,8.7c-3.9,0-7.3-2.6-8.3-6.3c2.5-0.4,5.1-0.8,8-0.9
		c0.8,0,1.4-0.8,1.4-1.6c-0.1-0.8-0.8-1.4-1.6-1.4c-2.9,0.2-5.6,0.5-8.1,0.9C138.7,280.2,142.4,276.6,147,276.6z"/>
	<path class="st1" d="M152.8,364.4l-0.2,0.5c-0.2-0.1-0.4-0.1-0.6-0.1c-1.8-0.1-3.7-0.1-5.6-0.1c-5.8-2.5-10.7-3.3-14.9-4
		c-2-0.3-3.8-0.7-5.5-1.1l-0.1-0.1c-6-2.3-13.5-5.8-17.8-12.3c-9.2-13.8-4.8-36.6,4.9-48.4c6.4-7.7,14.3-12.2,25.3-14.1
		c0,0.2,0,0.4,0,0.6c0,0.8,0.1,1.6,0.3,2.4c-10.1,1.8-17.5,6-23.3,13c-9,11-13.2,32.1-4.8,44.8c3.8,5.7,10.7,8.9,16.3,11.1
		c1.5,0.4,3.2,0.7,5.2,1C137.4,358.5,144.3,359.7,152.8,364.4z"/>
	<path class="st1" d="M152.5,367.6c-0.2,0.1-0.4,0.1-0.6,0.1c-8.5-0.4-17.2-0.1-23.4,4.4c-2.8,2-5.1,4.9-7.5,7.9
		c-5,6.2-10.3,12.5-19.7,11.7c-3.9-0.4-7.4-2.2-10.7-4c-2.4-1.3-4.6-2.5-7-3.2c-4-1.2-7.9-1-11.5,0.6c0.5-0.3,0.8-0.9,0.7-1.5
		c-0.1-0.7-0.1-1.3-0.1-2c3.7-1.2,7.7-1.2,11.7,0c2.7,0.8,5.2,2.1,7.6,3.4c3.2,1.7,6.2,3.4,9.6,3.7c7.8,0.7,12.3-4.8,17.1-10.6
		c2.5-3,5-6.1,8.1-8.4c5.5-4,12.6-5.1,19.7-5.1C148.4,365.4,150.4,366.4,152.5,367.6z"/>
	<path class="st1" d="M148.1,285.2c0,0.8-0.6,1.5-1.4,1.6c-2.8,0.2-5.5,0.5-8,0.9c-0.2-0.8-0.3-1.6-0.3-2.4c0-0.2,0-0.4,0-0.6
		c2.6-0.5,5.2-0.7,8.1-0.9C147.3,283.7,148,284.4,148.1,285.2z"/>
	<path class="st1" d="M147.3,223.9c1,1.4,1.5,3.1,1.5,4.9c0,4.8-3.9,8.7-8.7,8.7c-4.8,0-8.7-3.9-8.7-8.7c0-4.8,3.9-8.7,8.7-8.7
		c1.9,0,3.6,0.6,5,1.6c-1.9,2-3.9,4-6,6c-0.6,0.6-0.6,1.5-0.1,2.1c0.3,0.3,0.7,0.5,1.1,0.5c0.4,0,0.7-0.1,1-0.4
		C143.4,227.9,145.4,225.9,147.3,223.9z"/>
	<path class="st1" d="M145.2,221.7c0.8,0.6,1.5,1.3,2.1,2.1c-1.9,2-3.9,4-6.1,6c-0.3,0.3-0.7,0.4-1,0.4c-0.4,0-0.8-0.2-1.1-0.5
		c-0.6-0.6-0.5-1.6,0.1-2.1C141.3,225.7,143.3,223.7,145.2,221.7z"/>
	<path class="st1" d="M144,617.3c0.5,0.9,1.2,1.7,2,2.3c-2.7,2.8-5.1,6.3-7,10.3l-0.5-0.3c0.2-0.4,0.2-0.8,0-1.2
		c-0.3-0.8-0.6-1.5-1-2.3C139.3,623.1,141.4,620,144,617.3z"/>
	<path class="st1" d="M144.7,322.3C144.7,322.3,144.7,322.3,144.7,322.3c-2.8,0.9-5.6,1.6-8.6,1.7c-0.8,0-1.5-0.6-1.5-1.5
		c0-0.8,0.7-1.5,1.5-1.5c2.8,0,5.4-0.7,8.2-1.6C144.5,320.2,144.7,321.2,144.7,322.3z"/>
	<path class="st1" d="M143.6,681.9l-0.6,0.4c-0.2-0.4-0.6-0.6-1.1-0.7c-0.8-0.1-1.7-0.3-2.5-0.5c-7-10.9-10.1-24.7-7.9-37.1
		c0.6-3.2,1.8-8.6,4.3-14.3c0.3,0.5,0.8,0.8,1.3,0.8c0.2,0,0.4,0,0.6-0.1c0.3-0.2,0.6-0.4,0.8-0.8l0.5,0.3
		c-2.1,4.3-3.7,9.3-4.6,14.6C132.2,657.2,135.8,671.4,143.6,681.9z"/>
	<path class="st1" d="M143,682.3c0.2,0.3,0.2,0.6,0.2,1c-0.1,0.7-0.7,1.2-1.4,1.3c-0.9-1.1-1.7-2.3-2.4-3.5c0.8,0.2,1.7,0.4,2.5,0.5
		C142.4,681.7,142.8,682,143,682.3z"/>
	<path class="st1" d="M136,323.9c3,0,5.9-0.8,8.6-1.6c0,4.8-3.9,8.6-8.7,8.6c-4.8,0-8.7-3.9-8.7-8.7s3.9-8.7,8.7-8.7
		c3.8,0,6.9,2.4,8.1,5.7c-2.7,0.9-5.4,1.6-8.2,1.6c-0.8,0-1.5,0.7-1.5,1.5C134.5,323.3,135.2,323.9,136,323.9z"/>
	<path class="st1" d="M141.8,684.6c0,0-0.1,0-0.1,0c-0.1,0-0.1,0-0.2,0c-5-0.7-10.2-3-15.3-6.7c-15.5-11.3-27.4-27.6-37.9-42.9
		c0.9-0.4,1.8-0.9,2.5-1.6c10.3,15.1,22,31,37.1,42.1c3.8,2.8,7.7,4.7,11.4,5.6C140.1,682.3,141,683.5,141.8,684.6z"/>
	<path class="st1" d="M138.5,628.5c0.2,0.4,0.2,0.9,0,1.2c-0.1,0.3-0.4,0.6-0.8,0.8c-0.2,0.1-0.4,0.1-0.6,0.1
		c-0.6,0-1.1-0.3-1.3-0.8c0.5-1.2,1.1-2.4,1.8-3.5C137.9,627,138.2,627.7,138.5,628.5z"/>
	<path class="st1" d="M137.6,626.2c-0.6,1.2-1.2,2.4-1.8,3.5c0,0,0,0,0-0.1c-5.7-13.1-8.5-25.4-9.4-41.3c-0.3-6.3-2.9-10.8-8.1-14.4
		c0.6-0.8,1.1-1.7,1.3-2.7c5,3.3,9.3,8.5,9.8,16.9C130.2,602.8,132.7,614.3,137.6,626.2z"/>
	<path class="st1" d="M128.6,455.9c0.1,0.8-0.4,1.4-1.1,1.6c-0.1-0.6-0.1-1.2-0.2-1.8c-0.1-0.4-0.1-0.8-0.1-1.1
		C127.9,454.5,128.5,455.1,128.6,455.9z"/>
	<path class="st1" d="M127.3,455.6c0.1,0.6,0.2,1.2,0.2,1.8c-0.1,0-0.2,0-0.2,0c-4.8,0.4-9.5,1.3-14.1,2.8c-2,0.6-4,1.4-5.9,2.1
		l-0.3-0.9c0.2-0.1,0.4-0.2,0.6-0.4c0.4-0.6,0.4-1.4-0.1-1.9c1.6-0.6,3.2-1.2,4.9-1.7c4.8-1.5,9.7-2.5,14.8-2.9c0,0,0.1,0,0.1,0
		C127.2,454.9,127.2,455.2,127.3,455.6z"/>
	<path class="st1" d="M120,568.9c0,0.9-0.1,1.7-0.4,2.5c-2.6-1.7-5.3-2.9-7.8-3.9c-0.8-0.3-1.6,0.1-1.9,0.9
		c-0.3,0.8,0.1,1.6,0.9,1.9c2.9,1.1,5.4,2.4,7.5,3.8c-1.6,2.1-4.1,3.5-7,3.5c-4.8,0-8.7-3.9-8.7-8.7c0-4.8,3.9-8.7,8.7-8.7
		S120,564.1,120,568.9z"/>
	<path class="st1" d="M119.6,571.3c-0.3,1-0.8,1.9-1.3,2.7c-2.1-1.4-4.6-2.6-7.5-3.8c-0.8-0.3-1.2-1.2-0.9-1.9
		c0.3-0.8,1.2-1.1,1.9-0.9C114.3,568.4,117,569.6,119.6,571.3z"/>
	<path class="st1" d="M113.1,268.2c0.2,0.6-0.1,1.3-0.6,1.6c-0.1,0.1-0.3,0.2-0.5,0.2c-0.1,0-0.2,0.1-0.4,0.1
		c-0.7,0-1.3-0.5-1.4-1.1c0-0.1-0.1-0.2-0.1-0.3c0.9-0.6,1.8-1.1,2.7-1.6C112.9,267.4,113,267.8,113.1,268.2z"/>
	<path class="st1" d="M112.5,269.8l0.4,0.6c-1,0.6-2,1.3-2.9,2c-18.2,13.4-28.4,38-26,62.7c0.2,1.8,0.5,3.7,0.7,5.7
		c1.1,7.2,2.1,14.8-1,21.6c-1.3,2.8-3.3,5.2-5.2,7.6c-3,3.7-5.8,7.2-5.9,11.7c-1,0.3-2,0.8-3,1.3c-0.4-6.1,3.1-10.5,6.5-14.8
		c1.9-2.3,3.6-4.5,4.8-7c2.8-6,1.8-13,0.8-19.9c-0.3-1.9-0.6-3.9-0.8-5.8c-2.6-25.8,8.1-51.4,27.2-65.4c0.7-0.5,1.3-0.9,2-1.4
		c0,0.1,0.1,0.2,0.1,0.3c0.2,0.7,0.8,1.1,1.4,1.1c0.1,0,0.2,0,0.4-0.1C112.2,270,112.4,269.9,112.5,269.8z"/>
	<path class="st1" d="M105.5,603.9c4.8,0,8.7,3.9,8.7,8.7c0,4.8-3.9,8.7-8.7,8.7c-4.8,0-8.7-3.9-8.7-8.7c0-2.3,0.9-4.3,2.3-5.9
		c1.7,2.1,3.4,4.3,5.1,6.8c0.3,0.4,0.8,0.6,1.2,0.6c0.3,0,0.6-0.1,0.9-0.3c0.7-0.5,0.8-1.4,0.4-2.1c-1.7-2.4-3.5-4.7-5.2-6.8
		C102.7,604.3,104,603.9,105.5,603.9z"/>
	<path class="st1" d="M107.4,459.1c0.5,0.5,0.5,1.3,0.1,1.9c-0.2,0.2-0.3,0.3-0.6,0.4c-0.5,0.2-1.1,0.2-1.6-0.1
		c-0.4-0.3-0.8-0.6-1.2-1c0.4-0.2,0.8-0.3,1.3-0.5C106.1,459.6,106.7,459.3,107.4,459.1z"/>
	<path class="st1" d="M107.1,458.9c0.1,0.1,0.2,0.1,0.2,0.2c-0.7,0.2-1.3,0.5-2,0.7c-0.4,0.2-0.8,0.3-1.3,0.5
		c-9.6-7.8-14.5-19.7-16.6-26.3c-3-9.3-6.7-20.8-15.8-21.6c-3.9-0.3-7.4,1.7-10.1,4.6c0.4-0.4,0.5-1,0.2-1.5
		c-0.3-0.7-0.6-1.4-0.8-2.1c3-2.6,6.7-4.3,10.9-4c11.1,0.9,15.3,14,18.4,23.6C92.5,439.6,97.4,451.7,107.1,458.9z"/>
	<path class="st1" d="M106.7,698.2c0.4,0.3,0.6,0.8,0.5,1.4c-0.1,0.6-0.2,1.2-0.2,1.8c-1-0.7-1.9-1.3-2.8-2c0-0.1,0-0.2,0-0.3
		c0.1-0.8,0.9-1.4,1.7-1.2C106.3,697.9,106.5,698,106.7,698.2z"/>
	<path class="st1" d="M106.9,461.4l0.3,0.9c-0.3,0.1-0.5,0.2-0.8,0.3c-3.9,1.5-7.9,3-12.1,3.8c-2.1,0.4-4.2,0.6-6.2,0.6
		c-2.1,0-4.2-0.2-6.1-0.7c0.7-0.8,1.2-1.7,1.5-2.7c3,0.6,6.5,0.6,10.2-0.1c3.5-0.7,7-1.9,10.3-3.2c0.4,0.3,0.8,0.7,1.2,1
		C105.8,461.6,106.4,461.7,106.9,461.4z"/>
	<path class="st1" d="M107.1,697.7l-0.3,0.5c-0.2-0.2-0.4-0.3-0.7-0.3c-0.8-0.1-1.6,0.4-1.7,1.2c0,0.1,0,0.2,0,0.3
		c-3.5-2.6-6.7-5.5-9.4-9.2c-4.1-5.6-6.9-12-9.6-18.1c-0.8-1.7-1.5-3.4-2.3-5.1l-2.2-4.9c-3.6-7.8-7.3-15.9-11.3-23.8
		C62.4,624.2,55,609.7,50,594.4c-15.7-47.7-8.3-99.8-1.7-145.8c1.1-7.8,2.2-15.8,5.1-23.4c1.2-3.2,3-6.6,5.4-9.4
		c0.1,0.3,0.2,0.6,0.3,0.9c0.2,0.6,0.8,0.9,1.4,0.9c0.2,0,0.4,0,0.6-0.1c0.2-0.1,0.3-0.2,0.5-0.4c-2.4,2.6-4.3,6-5.4,9.1
		c-2.7,7.3-3.8,15.1-4.9,22.7c-6.5,45.7-13.9,97.4,1.6,144.4c5,15.1,12.3,29.5,19.3,43.5c4,7.9,7.7,16,11.3,23.9l2.2,4.9
		c0.8,1.7,1.5,3.4,2.3,5.1c2.7,6,5.4,12.2,9.3,17.6C100,692.2,103.4,695.1,107.1,697.7z"/>
	<path class="st1" d="M106.7,611.7c0.5,0.7,0.3,1.6-0.4,2.1c-0.3,0.2-0.6,0.3-0.9,0.3c-0.5,0-0.9-0.2-1.2-0.6
		c-1.7-2.4-3.4-4.7-5.1-6.8c0.7-0.7,1.5-1.4,2.4-1.8C103.2,607,105,609.3,106.7,611.7z"/>
	<path class="st1" d="M91.7,593.9c2.9,3.1,6.3,6.8,9.8,11c-0.9,0.5-1.7,1.1-2.4,1.8c-3.3-4.1-6.6-7.6-9.6-10.8
		c-5.3-5.7-9.5-10.2-10.9-14.9c-4.4-14.3,4.2-28.9,8-34.4c1.9-2.7,4.1-5.1,6.2-7.5c0.8-0.9,1.6-1.7,2.3-2.6c0.5-0.6,1.1-1.2,1.6-1.9
		c0.8,0.6,1.7,1.2,2.4,1.8c-0.6,0.7-1.2,1.4-1.7,2.1c-0.8,0.9-1.6,1.8-2.3,2.6c-2.1,2.3-4.2,4.7-6,7.2c-3.6,5.2-11.6,18.7-7.6,31.8
		C82.7,584.2,86.7,588.5,91.7,593.9z"/>
	<path class="st1" d="M99.2,534c0.6,0.5,0.7,1.5,0.2,2.1c-0.1,0.1-0.2,0.2-0.3,0.3c-0.8-0.5-1.6-1.1-2.4-1.8
		c0.1-0.1,0.2-0.3,0.4-0.5c0.3-0.4,0.7-0.5,1.2-0.5C98.6,533.7,98.9,533.8,99.2,534z"/>
	<path class="st1" d="M99.3,532.9l-1.1,0.8c-0.4,0-0.9,0.2-1.2,0.5c-0.1,0.2-0.2,0.3-0.4,0.5c-6.9-5.1-15.5-12.5-16.2-20.6
		c-0.3-4,1-7.9,3-11.1c0.7,0.8,1.4,1.4,2.3,1.9c-1.6,2.6-2.6,5.7-2.4,9C84.1,521,92.8,528.1,99.3,532.9z"/>
	<path class="st1" d="M90.2,488.7c4.8,0,8.7,3.9,8.7,8.7s-3.9,8.7-8.7,8.7c-1.6,0-3-0.4-4.3-1.1c1.6-2.6,3.7-4.8,5.7-6.3
		c0.7-0.5,0.8-1.4,0.3-2.1c-0.5-0.7-1.4-0.8-2.1-0.3c-2.1,1.6-4.4,4-6.2,6.8c-1.3-1.5-2-3.5-2-5.6C81.5,492.6,85.4,488.7,90.2,488.7
		z"/>
	<path class="st1" d="M91.8,496.5c0.5,0.7,0.4,1.6-0.3,2.1c-2,1.5-4.1,3.7-5.7,6.3c-0.9-0.5-1.7-1.2-2.3-1.9c1.8-2.8,4-5.1,6.2-6.8
		C90.4,495.7,91.3,495.8,91.8,496.5z"/>
	<path class="st1" d="M85,618.4c4.8,0,8.7,3.9,8.7,8.7c0,2.5-1.1,4.8-2.8,6.4c-1.6-2.3-3.1-4.6-4.6-6.8c-0.5-0.7-1.4-0.9-2.1-0.4
		c-0.7,0.5-0.9,1.4-0.4,2.1c1.5,2.2,3,4.5,4.6,6.7c-1,0.4-2.1,0.7-3.3,0.7c-4.8,0-8.7-3.9-8.7-8.7C76.4,622.3,80.3,618.4,85,618.4z"
		/>
	<path class="st1" d="M86.3,626.6c1.5,2.2,3,4.5,4.6,6.8c-0.7,0.7-1.6,1.2-2.5,1.6c-1.6-2.3-3.1-4.5-4.6-6.7
		c-0.5-0.7-0.3-1.6,0.4-2.1C84.9,625.8,85.8,626,86.3,626.6z"/>
	<path class="st1" d="M84.1,460.8c0,1-0.2,2-0.5,2.8c-2.8-0.6-5.3-1.7-7.2-3.4c-0.6-0.5-1.6-0.5-2.1,0.2c-0.5,0.6-0.5,1.6,0.1,2.1
		c2.1,1.8,4.7,3.1,7.6,3.8c-1.6,1.9-4,3.1-6.6,3.1c-4.8,0-8.7-3.9-8.7-8.7c0-4.8,3.9-8.7,8.7-8.7C80.2,452.1,84.1,456,84.1,460.8z"
		/>
	<path class="st1" d="M83.6,463.6c-0.3,1-0.9,1.9-1.5,2.7c-2.9-0.7-5.5-2-7.6-3.8c-0.6-0.5-0.7-1.5-0.1-2.1c0.5-0.6,1.5-0.7,2.1-0.2
		C78.4,461.9,80.8,463.1,83.6,463.6z"/>
	<path class="st1" d="M72.8,383.6c0.1,0.6-0.2,1.2-0.7,1.5c-0.1,0-0.2,0.1-0.2,0.1c0,0,0,0,0,0c-0.1,0-0.2,0.1-0.3,0.1
		c-0.1,0-0.2,0-0.2,0c-0.7,0-1.4-0.5-1.5-1.3c-0.1-0.4-0.1-0.8-0.1-1.1c1-0.5,2-0.9,3-1.3C72.7,382.2,72.7,382.9,72.8,383.6z"/>
	<path class="st1" d="M71.9,385.2c0.1,0,0.2-0.1,0.2-0.1C72,385.1,72,385.2,71.9,385.2z"/>
	<path class="st1" d="M71.6,385.3c0.1,0,0.2,0,0.3-0.1c-1.9,0.9-3.6,2.1-5.2,3.7c-5.9,5.9-8.3,15.4-6,23.2c0.1,0.4,0.3,0.9,0.4,1.3
		c-0.8,0.7-1.6,1.5-2.3,2.4c-0.4-1-0.7-1.9-1-2.8c-2.6-8.8,0.2-19.6,6.8-26.2c1.6-1.6,3.4-2.9,5.2-3.9c0,0.4,0.1,0.8,0.1,1.1
		c0.1,0.7,0.8,1.3,1.5,1.3C71.4,385.3,71.5,385.3,71.6,385.3z"/>
	<path class="st1" d="M61.9,415.5c0.2,0.5,0.1,1.1-0.2,1.5c0,0,0,0-0.1,0.1c-0.1,0.1-0.3,0.3-0.5,0.4c-0.2,0.1-0.4,0.1-0.6,0.1
		c-0.6,0-1.1-0.3-1.4-0.9c-0.1-0.3-0.2-0.6-0.3-0.9c0.7-0.8,1.5-1.6,2.3-2.4C61.3,414.1,61.6,414.8,61.9,415.5z"/>
</g>
<rect x="1694.9" y="1213.6" style="fill:none;" width="9.1" height="0"/>
<g>
	<g id="hIag8g_00000072980332289058429900000002284104885130516661_">
		<g>
			<path class="st2" d="M283.8,344.6c-10-19.5-24.8-25.4-31.7-26.2c-3.2-0.4-6.5-0.7-9.7-0.8c-3.2-0.1-6.4-0.2-9.6,0
				c-3.5,0.2-6.9,0.8-10.4,1.2c-2.9,0.4-5.9,0.7-8.8,1c-0.9,0.1-1.8,0.2-2.8,0.3v-74.7c5.7-1.2,11.4-2.6,17.2-3.7
				c5.3-1,10.6-1.8,15.9-2.3c5.3-0.4,10.6-0.3,15.9-0.3c1.2,0,2.4,0.2,3.6,0.2c6.5,0,12.9,0.8,19.4,2c7.2,1.3,14.1,3.4,20.7,6.3
				c11.7,5.3,21.2,13.3,29.2,23.2c10.2,12.6,17.5,26.8,24.2,41.5c8.4,18.4,15.3,37.5,22.4,56.4c23.7,62.8,47.3,125.7,71,188.5
				c2,5.2,4.1,10.3,6.4,15.4c1.9,4,4.4,7.6,8.4,9.8c3.2,1.8,6.8,2.6,10.4,2.9c1.1,0.1,2.2,0.3,3.3,0.3c7.8,0.1,15.5-0.9,23-3
				c1.5-0.4,3.1-0.7,4.7-1.1c0,2.8,0,5.5,0,8.1c0.1,21.8,0.2,43.5,0.3,65.3c0,0.5,0,1.1,0,1.6c-0.1,0.1-0.1,0.1-0.2,0.2
				c-5.2,2.1-10.5,3.9-16.1,4.7c-4.9,0.7-9.7,1.4-14.6,2c-1.4,0.2-2.8,0.2-4.2,0.3h-23.2c-0.3-0.1-0.7-0.3-1-0.3
				c-2.3,0.1-4.5-0.3-6.8-0.7c-4.5-0.8-9.1-1.4-13.5-2.6c-15.4-3.9-27.9-12.3-37.4-25c-6.5-8.7-11.3-18.3-15.1-28.4
				c-12.2-32.7-24.3-65.4-36.4-98.1c-1.3-3.4-2.5-6.8-3.9-10.4c-3.1,7.5-6.1,14.7-9,21.9c-19.4,47.2-38.8,94.3-58.1,141.5
				c-0.5,1.1-0.9,1.5-2.2,1.5c-32,0-63.9,0-95.9,0c-0.1-0.2-0.1-0.2-0.2-0.4c1.5-3.3,3.1-6.6,4.6-10
				c29.9-67.5,59.8-134.9,89.6-202.4c9.2-20.9,18.5-41.7,27.7-62.6c1.6-3.6,2-7.7,1-11.5L283.8,344.6z"/>
		</g>
	</g>
	<circle class="st3" cx="297.9" cy="275.8" r="10.7"/>
	<circle class="st3" cx="270.8" cy="298.8" r="10.7"/>
	<circle class="st3" cx="322.2" cy="320.3" r="10.7"/>
	<circle class="st3" cx="320.3" cy="364.9" r="10.7"/>
	<circle class="st3" cx="352.4" cy="404.6" r="10.7"/>
	<circle class="st3" cx="311.4" cy="418.7" r="10.7"/>
	<circle class="st3" cx="348.5" cy="463.2" r="10.7"/>
	<circle class="st3" cx="290.3" cy="462.5" r="10.7"/>
	<circle class="st3" cx="305.8" cy="500.8" r="11.9"/>
	<circle class="st3" cx="259.2" cy="551.2" r="10.7"/>
	<circle class="st3" cx="246.1" cy="633.6" r="10.7"/>
	<circle class="st3" cx="221.7" cy="598.9" r="10.7"/>
	<circle class="st3" cx="389.1" cy="483.8" r="10.7"/>
	<circle class="st3" cx="392.3" cy="556.5" r="10.7"/>
	<circle class="st3" cx="419.3" cy="613.5" r="10.7"/>
	<circle class="st3" cx="446" cy="605.7" r="10.7"/>
	<circle class="st3" cx="470.7" cy="634.9" r="10.7"/>
	<path class="st4" d="M331.6,325.3c20.8,12.9,1.5,61.8,18.1,73.1"/>
	<path class="st4" d="M321,375.6c0.4,7.6-1.1,28.6-4.8,35.6"/>
	<path class="st4" d="M320.5,426.2c8.4,4.6,17.5,20.1,23.4,27.9"/>
	<path class="st4" d="M356.1,470.7c7,32.4,7.8,81.8,31.4,77"/>
	<path class="st4" d="M397.9,566.4c10.3,15.5,9.2,22,16.5,39.4"/>
	<path class="st4" d="M423.1,618.2c12.1,8.2,26,14,40.4,16.7"/>
	<path class="st4" d="M288.6,472.4c3.5,6.2,9.9,17.2,13.3,23.4"/>
	<path class="st4" d="M302,512.9c-4.4,14.6-22.6,23.3-35.5,31.3"/>
	<path class="st4" d="M221,609.4c3.3,11.1,10.9,14.3,16.8,17"/>
	<circle class="st3" cx="261.4" cy="597.2" r="10.7"/>
	<path class="st4" d="M256.8,561.6c-0.3,5.7,2.2,20.6,4.3,26"/>
	<circle class="st3" cx="237.9" cy="268.2" r="10.7"/>
	<path class="st4" d="M246.2,262.1c10.6-4.6,32.2,4.1,43.5,6.4"/>
	<path class="st4" d="M241.9,277.1c2.8,4.9,12.8,17.5,18.3,18.8"/>
	<path class="st4" d="M308.9,491.1c-0.7-19.2,11.5-22.7,29.1-30.3"/>
	<path class="st4" d="M346.9,408.8c0.7,18.6,11.9,30.8,10.4,49.3"/>
	<path class="st4" d="M358,412.9c35,8.6,16.4,39.7,30.6,61.9"/>
	<path class="st4" d="M303.6,284.9c-0.2,9.3,5.3,23.7,13.4,28.3"/>
	<path class="st4" d="M291.6,453c8.4-9.7,15.3-12.6,16.4-25.3"/>
	<path class="st4" d="M394.4,546.6c-0.4-13.8-11.3-39.1-7.7-52.4"/>
	<path class="st4" d="M277.2,307.4c29.2-1.5,27.3,48.7,41.3,47"/>
	<path class="st4" d="M225.4,589.6c0-16.5,11.7-41.8,24.1-41.8"/>
	<circle class="st3" cx="264.5" cy="513.8" r="10.7"/>
	<path class="st4" d="M264.5,503.1c0-16.1,9.1-36.4,16.6-36.4"/>
	<path class="st4" d="M396.1,491.9c28,12.1,10.6,75.1,46.1,104"/>
</g>
<g>
	<text transform="matrix(1 0 0 1 622.3419 387.8002)" class="st5 st6">COGNITIVE &amp; NEURAL COMPUTATION</text>
	<text transform="matrix(1 0 0 1 1115.9449 594.5979)" class="st7 st8 st6">LABORATORY AT YALE UNIVERSITY</text>
</g>
</svg>
