<?xml version="1.0" encoding="utf-8"?>
<!-- Generator: Adobe Illustrator 27.8.1, SVG Export Plug-In . SVG Version: 6.00 Build 0)  -->
<svg version="1.1" id="Layer_1" xmlns="http://www.w3.org/2000/svg" xmlns:xlink="http://www.w3.org/1999/xlink" x="0px" y="0px"
	 viewBox="0 0 854.8 892.6" style="enable-background:new 0 0 854.8 892.6;" xml:space="preserve">
<style type="text/css">
	.st0{fill:#FFFFFF;}
	.st1{filter:url(#Adobe_OpacityMaskFilter);}
	.st2{mask:url(#SVGID_1_);}
</style>
<path class="st0" d="M655.4,804.3H189.5c-74.5,0-134.9-60.4-134.9-134.9V213.9c0-74.5,60.4-134.9,134.9-134.9h465.8
	c74.5,0,134.9,60.4,134.9,134.9v455.5C790.3,743.9,729.9,804.3,655.4,804.3z"/>
<g>
	<defs>
		<filter id="Adobe_OpacityMaskFilter" filterUnits="userSpaceOnUse" x="216.6" y="208.3" width="412" height="445">
			<feFlood  style="flood-color:white;flood-opacity:1" result="back"/>
			<feBlend  in="SourceGraphic" in2="back" mode="normal"/>
		</filter>
	</defs>
	<mask maskUnits="userSpaceOnUse" x="216.6" y="208.3" width="412" height="445" id="SVGID_1_">
		<g class="st1">
			
				<image style="overflow:visible;" width="416" height="449" xlink:href="DD9EA1DD1988D1E8.jpg"  transform="matrix(1 0 0 1 214.6359 206.2852)">
			</image>
		</g>
	</mask>
	<g class="st2">
		<g style="opacity:0.55;">
			
				<image style="overflow:visible;" width="412" height="445" xlink:href="DD9EA1DD1988D1E8.png"  transform="matrix(1 0 0 1 216.6359 208.2852)">
			</image>
		</g>
		<g>
			<path d="M623.3,427.5h-23.6h-75.4v131.9c-22.1,11.5-47.6,18.2-74.9,18.2c-83.4,0-151-61.6-151-137.6s67.6-137.6,151-137.6
				c43,0,81.7,16.5,109.2,42.8l64.7-61h1.8c-42.6-44.4-104-72.4-172.5-72.4c-128.5,0-232.7,98.1-232.7,219.1S324,650,452.5,650
				c67.6,0,128.2-27.3,170.7-70.6V427.5z"/>
		</g>
	</g>
</g>
</svg>
