<?xml version="1.0" encoding="utf-8"?>
<!-- Generator: Adobe Illustrator 27.8.1, SVG Export Plug-In . SVG Version: 6.00 Build 0)  -->
<svg version="1.1" id="Layer_1" xmlns="http://www.w3.org/2000/svg" xmlns:xlink="http://www.w3.org/1999/xlink" x="0px" y="0px"
	 viewBox="0 0 1064.7 955.6" style="enable-background:new 0 0 1064.7 955.6;" xml:space="preserve">
<style type="text/css">
	.st0{fill:#FFFFFF;}
	.st1{fill:#3F9E44;}
	.st2{fill:#A0071A;}
	.st3{fill:#9B3E81;}
</style>
<path class="st0" d="M845.3,905.7H204.4c-93.9,0-170-76.1-170-170V212.4c0-93.9,76.1-170,170-170h640.9c93.9,0,170,76.1,170,170
	v523.3C1015.3,829.6,939.2,905.7,845.3,905.7z"/>
<g>
	<g>
		<circle class="st1" cx="524.9" cy="271.6" r="178.9"/>
		<path d="M524.9,93.2c24.1,0,47.4,4.7,69.4,14c21.2,9,40.3,21.8,56.7,38.2c16.4,16.4,29.2,35.5,38.2,56.7c9.3,22,14,45.4,14,69.4
			s-4.7,47.4-14,69.4c-9,21.2-21.8,40.3-38.2,56.7c-16.4,16.4-35.5,29.2-56.7,38.2c-22,9.3-45.4,14-69.4,14
			c-24.1,0-47.4-4.7-69.4-14c-21.2-9-40.3-21.8-56.7-38.2c-16.4-16.4-29.2-35.5-38.2-56.7c-9.3-22-14-45.4-14-69.4s4.7-47.4,14-69.4
			c9-21.2,21.8-40.3,38.2-56.7c16.4-16.4,35.5-29.2,56.7-38.2C477.4,97.9,500.8,93.2,524.9,93.2 M524.9,92.2
			c-99.1,0-179.4,80.3-179.4,179.4s80.3,179.4,179.4,179.4c99.1,0,179.4-80.3,179.4-179.4S623.9,92.2,524.9,92.2L524.9,92.2z"/>
	</g>
	<g>
		<circle class="st2" cx="273" cy="676.6" r="178.9"/>
		<path d="M273,498.2c24.1,0,47.4,4.7,69.4,14c21.2,9,40.3,21.8,56.7,38.2c16.4,16.4,29.2,35.5,38.2,56.7c9.3,22,14,45.4,14,69.4
			s-4.7,47.4-14,69.4c-9,21.2-21.8,40.3-38.2,56.7s-35.5,29.2-56.7,38.2c-22,9.3-45.4,14-69.4,14c-24.1,0-47.4-4.7-69.4-14
			c-21.2-9-40.3-21.8-56.7-38.2c-16.4-16.4-29.2-35.5-38.2-56.7c-9.3-22-14-45.4-14-69.4s4.7-47.4,14-69.4
			c9-21.2,21.8-40.3,38.2-56.7c16.4-16.4,35.5-29.2,56.7-38.2C225.6,502.9,248.9,498.2,273,498.2 M273,497.2
			c-99.1,0-179.4,80.3-179.4,179.4S173.9,855.9,273,855.9c99.1,0,179.4-80.3,179.4-179.4S372.1,497.2,273,497.2L273,497.2z"/>
	</g>
	<g>
		<circle class="st3" cx="776.8" cy="676.6" r="178.9"/>
		<path d="M776.8,498.2c24.1,0,47.4,4.7,69.4,14c21.2,9,40.3,21.8,56.7,38.2c16.4,16.4,29.2,35.5,38.2,56.7c9.3,22,14,45.4,14,69.4
			s-4.7,47.4-14,69.4c-9,21.2-21.8,40.3-38.2,56.7s-35.5,29.2-56.7,38.2c-22,9.3-45.4,14-69.4,14c-24.1,0-47.4-4.7-69.4-14
			c-21.2-9-40.3-21.8-56.7-38.2c-16.4-16.4-29.2-35.5-38.2-56.7c-9.3-22-14-45.4-14-69.4s4.7-47.4,14-69.4
			c9-21.2,21.8-40.3,38.2-56.7c16.4-16.4,35.5-29.2,56.7-38.2C729.3,502.9,752.7,498.2,776.8,498.2 M776.8,497.2
			c-99.1,0-179.4,80.3-179.4,179.4s80.3,179.4,179.4,179.4c99.1,0,179.4-80.3,179.4-179.4S875.8,497.2,776.8,497.2L776.8,497.2z"/>
	</g>
</g>
</svg>
